<svg id="svg" xmlns="http://www.w3.org/2000/svg" xmlns:xlink="http://www.w3.org/1999/xlink" width="400" height="400" viewBox="0, 0, 400,400">
   <g id="svgg">
      <path id="path0" d="M55.982 17.633 C 42.991 20.803,28.540 32.468,22.053 45.019 C 16.079 56.579,16.346 51.753,16.584 143.947 L 16.797 226.172 18.846 231.439 C 24.937 247.096,37.781 259.642,53.125 264.924 C 59.265 267.037,82.233 268.037,88.130 266.448 C 99.739 263.319,104.122 247.935,96.030 238.719 C 91.588 233.660,90.268 233.304,74.219 232.840 C 57.208 232.348,55.558 231.785,52.344 225.378 L 50.391 221.484 50.391 141.797 C 50.391 54.485,50.185 58.307,55.109 53.984 C 59.222 50.373,58.786 50.391,142.578 50.391 L 221.484 50.391 225.378 52.344 C 231.785 55.558,232.348 57.208,232.840 74.219 C 233.304 90.268,233.660 91.588,238.719 96.030 C 247.935 104.122,263.319 99.739,266.448 88.130 C 268.037 82.233,267.037 59.265,264.924 53.125 C 259.642 37.781,247.096 24.937,231.439 18.846 L 226.172 16.797 143.359 16.658 C 73.967 16.541,59.807 16.699,55.982 17.633 M175.237 133.621 C 157.550 137.172,141.019 152.441,134.667 171.094 C 133.272 175.188,133.203 179.319,133.203 258.594 L 133.203 341.797 135.014 346.875 C 140.559 362.427,152.938 375.076,168.561 381.154 L 173.828 383.203 256.053 383.416 C 348.247 383.654,343.421 383.921,354.981 377.947 C 363.797 373.391,373.391 363.797,377.947 354.981 C 383.921 343.421,383.654 348.247,383.416 256.053 L 383.203 173.828 381.154 168.561 C 375.076 152.938,362.427 140.559,346.875 135.014 L 341.797 133.203 260.156 133.083 C 215.254 133.017,177.040 133.259,175.237 133.621 M342.969 169.154 C 344.703 170.153,346.417 172.153,347.656 174.622 L 349.609 178.516 349.609 258.203 C 349.609 345.515,349.815 341.693,344.891 346.016 C 340.778 349.627,341.214 349.609,257.422 349.609 L 178.516 349.609 174.622 347.656 C 166.960 343.812,167.608 351.654,167.368 259.902 C 167.127 167.324,166.805 170.736,176.028 168.041 C 181.799 166.354,339.940 167.408,342.969 169.154 " stroke="none" fill="#000000" fill-rule="evenodd"></path>
   </g>
</svg>