<svg id="svg" version="1.1"
	xmlns="http://www.w3.org/2000/svg"
	xmlns:xlink="http://www.w3.org/1999/xlink" width="400" height="365.6998738965952" viewBox="0, 0, 400,365.6998738965952">
	<g id="svgg">
		<path id="path0" d="M87.516 43.374 C 70.763 47.185,58.679 59.352,54.946 76.166 C 53.462 82.851,53.462 284.362,54.946 291.047 C 58.507 307.090,70.102 319.287,85.750 323.450 L 90.038 324.590 195.208 324.590 L 300.378 324.590 304.666 323.450 C 319.500 319.503,331.094 307.895,335.061 293.019 L 336.192 288.777 336.192 183.607 L 336.192 78.436 335.051 74.149 C 330.888 58.501,318.692 46.906,302.648 43.344 C 296.099 41.890,93.915 41.918,87.516 43.374 M300.228 72.083 C 303.107 73.554,305.194 75.663,306.766 78.689 L 307.945 80.958 307.945 183.607 L 307.945 286.255 306.766 288.525 C 305.194 291.550,303.107 293.659,300.228 295.131 L 297.856 296.343 195.208 296.343 L 92.560 296.343 90.290 295.164 C 87.265 293.593,85.155 291.505,83.684 288.627 L 82.472 286.255 82.472 183.607 L 82.472 80.958 83.653 78.689 C 85.707 74.743,88.938 72.052,92.690 71.161 C 93.764 70.906,138.402 70.747,196.217 70.792 L 297.856 70.870 300.228 72.083 M189.378 100.311 C 185.803 102.003,183.204 104.793,181.954 108.279 C 181.145 110.537,181.080 114.769,181.082 165.069 C 181.083 194.962,180.913 219.420,180.703 219.420 C 180.494 219.420,172.946 212.027,163.932 202.991 C 145.466 184.482,144.732 183.922,138.966 183.922 C 128.786 183.922,121.980 194.267,126.052 203.553 C 127.833 207.616,185.647 265.245,189.820 267.118 C 193.317 268.688,197.595 268.684,201.009 267.109 C 204.412 265.538,262.967 206.799,264.364 203.555 C 268.394 194.191,261.640 183.922,251.450 183.922 C 245.684 183.922,244.951 184.482,226.485 202.991 C 217.470 212.027,209.923 219.420,209.713 219.420 C 209.503 219.420,209.333 194.962,209.334 165.069 C 209.337 104.439,209.547 108.128,205.841 103.798 C 203.449 101.004,198.840 98.866,195.208 98.866 C 193.201 98.866,191.588 99.266,189.378 100.311 " stroke="none" fill="#000000" fill-rule="evenodd"></path>
	</g>
</svg>