<svg xmlns="http://www.w3.org/2000/svg" xmlns:xlink="http://www.w3.org/1999/xlink" id="svg" width="400" height="379.4754846066134" viewBox="0, 0, 400,379.4754846066134">
   <g id="svgg">
      <path id="path0" d="M76.853 47.640 C 63.203 50.495,52.449 61.016,49.503 74.397 C 48.238 80.143,48.679 108.528,50.097 112.657 C 52.412 119.395,56.299 125.349,61.393 129.956 C 62.621 131.067,65.371 133.636,67.503 135.664 C 69.635 137.693,75.485 143.248,80.502 148.009 C 85.519 152.770,91.779 158.726,94.413 161.244 C 97.047 163.762,101.049 167.572,103.307 169.711 C 105.564 171.850,109.873 175.949,112.880 178.818 C 118.081 183.780,121.651 187.178,132.024 197.035 C 142.156 206.664,146.794 211.101,149.943 214.178 L 153.250 217.409 153.250 268.007 C 153.250 328.079,152.932 325.290,160.547 332.116 C 170.352 340.905,177.215 340.296,198.958 328.706 C 201.036 327.598,205.405 325.304,208.666 323.607 C 218.483 318.499,224.969 315.093,227.138 313.907 C 234.976 309.621,240.588 302.774,243.865 293.501 L 245.154 289.852 245.382 253.452 L 245.610 217.053 254.966 207.842 C 270.682 192.371,300.666 163.070,301.030 162.828 C 302.838 161.625,339.028 125.426,340.545 123.302 C 343.151 119.656,345.434 114.631,346.357 110.514 C 347.429 105.729,347.429 78.992,346.357 74.206 C 343.319 60.650,332.032 49.945,318.160 47.463 C 313.941 46.708,80.491 46.879,76.853 47.640 M318.864 67.619 C 326.811 71.522,328.012 74.918,327.841 92.997 L 327.708 106.956 326.452 109.638 C 325.040 112.652,326.447 111.202,298.290 138.661 C 287.879 148.814,274.743 161.644,269.099 167.172 C 263.455 172.701,254.843 181.117,249.962 185.875 C 231.556 203.816,230.477 204.940,229.195 207.493 C 226.293 213.275,226.498 210.296,226.237 250.399 C 225.973 290.880,226.189 288.001,223.074 292.528 C 221.414 294.942,218.898 296.639,210.490 301.021 C 206.978 302.851,202.052 305.420,199.544 306.731 C 194.215 309.516,185.104 314.271,179.986 316.940 C 175.881 319.081,174.937 319.208,173.462 317.822 L 172.406 316.831 172.406 266.463 C 172.406 202.317,174.377 210.813,155.290 192.702 C 150.531 188.187,144.072 182.038,140.936 179.037 C 137.800 176.036,133.489 171.928,131.357 169.908 C 129.225 167.888,123.277 162.236,118.140 157.348 C 113.002 152.460,106.955 146.716,104.702 144.584 C 102.449 142.452,98.340 138.539,95.571 135.889 C 92.802 133.239,88.489 129.134,85.988 126.767 C 73.253 114.716,70.611 111.960,69.402 109.464 L 68.187 106.956 68.055 92.997 C 67.889 75.498,68.788 72.554,75.584 68.354 C 79.261 66.081,73.030 66.186,198.632 66.277 L 316.306 66.363 318.864 67.619 " stroke="none" fill-rule="evenodd" />
   </g>
</svg>