<?xml version="1.0" encoding="UTF-8"?>
<svg xmlns="http://www.w3.org/2000/svg" xmlns:xlink="http://www.w3.org/1999/xlink" id="svg" version="1.1" width="400" height="402.0460358056266" viewBox="0, 0, 400,402.0460358056266">
    <g id="svgPauseMetrics">
        <path id="path0" d="M182.800 2.200 C 182.800 2.720,183.181 2.819,184.805 2.721 C 187.478 2.560,187.544 1.831,184.900 1.679 C 183.189 1.581,182.800 1.677,182.800 2.200 M214.278 1.856 C 213.707 2.427,214.556 2.800,216.424 2.800 C 217.914 2.800,218.400 2.652,218.400 2.200 C 218.400 1.585,214.845 1.288,214.278 1.856 M171.400 2.800 C 170.989 3.464,171.583 4.000,172.724 3.995 C 174.414 3.986,175.600 3.557,175.600 2.953 C 175.600 2.294,171.798 2.155,171.400 2.800 M225.200 2.975 C 225.200 3.603,228.416 4.284,229.172 3.818 C 230.381 3.070,229.543 2.400,227.400 2.400 C 225.753 2.400,225.200 2.545,225.200 2.975 M166.400 4.200 C 166.400 4.600,166.800 4.800,167.600 4.800 C 168.400 4.800,168.800 4.600,168.800 4.200 C 168.800 3.800,168.400 3.600,167.600 3.600 C 166.800 3.600,166.400 3.800,166.400 4.200 M232.800 4.200 C 232.800 4.573,233.178 4.800,233.800 4.800 C 234.422 4.800,234.800 4.573,234.800 4.200 C 234.800 3.827,234.422 3.600,233.800 3.600 C 233.178 3.600,232.800 3.827,232.800 4.200 M161.300 5.300 C 161.392 5.575,161.797 5.800,162.200 5.800 C 162.603 5.800,163.008 5.575,163.100 5.300 C 163.206 4.983,162.876 4.800,162.200 4.800 C 161.524 4.800,161.194 4.983,161.300 5.300 M238.100 5.300 C 238.192 5.575,238.597 5.800,239.000 5.800 C 239.403 5.800,239.808 5.575,239.900 5.300 C 240.006 4.983,239.676 4.800,239.000 4.800 C 238.324 4.800,237.994 4.983,238.100 5.300 M154.972 6.045 C 154.635 6.590,155.601 7.265,156.333 6.996 C 156.626 6.888,157.121 6.800,157.433 6.800 C 157.745 6.800,158.000 6.530,158.000 6.200 C 158.000 5.481,155.403 5.347,154.972 6.045 M242.800 6.153 C 242.800 6.742,244.595 7.254,245.475 6.916 C 246.682 6.453,245.985 5.600,244.400 5.600 C 243.304 5.600,242.800 5.774,242.800 6.153 M152.100 7.300 C 152.192 7.575,152.507 7.800,152.800 7.800 C 153.093 7.800,153.408 7.575,153.500 7.300 C 153.599 7.003,153.316 6.800,152.800 6.800 C 152.284 6.800,152.001 7.003,152.100 7.300 M247.600 7.133 C 247.600 7.697,248.051 7.955,248.639 7.730 C 249.474 7.409,249.317 6.800,248.400 6.800 C 247.960 6.800,247.600 6.950,247.600 7.133 M148.000 8.176 C 148.000 8.934,148.573 9.262,149.364 8.959 C 150.378 8.569,150.119 7.600,149.000 7.600 C 148.396 7.600,148.000 7.828,148.000 8.176 M251.200 8.157 C 251.200 8.790,251.955 9.167,252.700 8.908 C 253.617 8.588,253.239 7.600,252.200 7.600 C 251.612 7.600,251.200 7.830,251.200 8.157 M143.698 9.300 C 143.952 10.076,146.000 10.189,146.000 9.427 C 146.000 8.993,145.620 8.800,144.767 8.800 C 143.959 8.800,143.590 8.973,143.698 9.300 M255.200 9.400 C 255.200 9.773,255.578 10.000,256.200 10.000 C 256.822 10.000,257.200 9.773,257.200 9.400 C 257.200 9.027,256.822 8.800,256.200 8.800 C 255.578 8.800,255.200 9.027,255.200 9.400 M140.876 10.300 C 140.950 10.685,141.276 11.000,141.600 11.000 C 141.924 11.000,142.250 10.685,142.324 10.300 C 142.418 9.809,142.202 9.600,141.600 9.600 C 140.998 9.600,140.782 9.809,140.876 10.300 M258.400 10.157 C 258.400 10.790,259.155 11.167,259.900 10.908 C 260.817 10.588,260.439 9.600,259.400 9.600 C 258.812 9.600,258.400 9.830,258.400 10.157 M137.600 11.400 C 137.600 11.773,137.978 12.000,138.600 12.000 C 139.222 12.000,139.600 11.773,139.600 11.400 C 139.600 11.027,139.222 10.800,138.600 10.800 C 137.978 10.800,137.600 11.027,137.600 11.400 M261.600 11.428 C 261.600 11.845,261.892 12.013,262.469 11.928 C 263.749 11.739,263.886 10.800,262.633 10.800 C 261.961 10.800,261.600 11.019,261.600 11.428 M134.572 12.045 C 134.272 12.531,135.158 13.264,135.800 13.060 C 136.020 12.991,136.258 12.634,136.329 12.267 C 136.478 11.501,135.022 11.317,134.572 12.045 M264.876 12.300 C 264.950 12.685,265.276 13.000,265.600 13.000 C 265.924 13.000,266.250 12.685,266.324 12.300 C 266.418 11.809,266.202 11.600,265.600 11.600 C 264.998 11.600,264.782 11.809,264.876 12.300 M131.600 13.400 C 131.600 13.733,131.956 14.000,132.400 14.000 C 132.844 14.000,133.200 13.733,133.200 13.400 C 133.200 13.067,132.844 12.800,132.400 12.800 C 131.956 12.800,131.600 13.067,131.600 13.400 M267.600 13.357 C 267.600 13.990,268.355 14.367,269.100 14.108 C 270.017 13.788,269.639 12.800,268.600 12.800 C 268.012 12.800,267.600 13.030,267.600 13.357 M129.692 14.475 C 129.939 15.217,130.800 15.340,130.800 14.633 C 130.800 14.285,130.515 14.000,130.167 14.000 C 129.818 14.000,129.605 14.214,129.692 14.475 M270.100 14.500 C 270.192 14.775,270.507 15.000,270.800 15.000 C 271.093 15.000,271.408 14.775,271.500 14.500 C 271.599 14.203,271.316 14.000,270.800 14.000 C 270.284 14.000,270.001 14.203,270.100 14.500 M126.400 15.400 C 126.400 15.733,126.756 16.000,127.200 16.000 C 127.644 16.000,128.000 15.733,128.000 15.400 C 128.000 15.067,127.644 14.800,127.200 14.800 C 126.756 14.800,126.400 15.067,126.400 15.400 M272.800 15.400 C 272.800 15.773,273.178 16.000,273.800 16.000 C 274.422 16.000,274.800 15.773,274.800 15.400 C 274.800 15.027,274.422 14.800,273.800 14.800 C 273.178 14.800,272.800 15.027,272.800 15.400 M124.492 16.475 C 124.739 17.217,125.600 17.340,125.600 16.633 C 125.600 16.285,125.315 16.000,124.967 16.000 C 124.618 16.000,124.405 16.214,124.492 16.475 M275.600 16.400 C 275.600 16.620,275.870 16.800,276.200 16.800 C 276.530 16.800,276.800 16.620,276.800 16.400 C 276.800 16.180,276.530 16.000,276.200 16.000 C 275.870 16.000,275.600 16.180,275.600 16.400 M122.400 17.400 C 122.400 17.730,122.580 18.000,122.800 18.000 C 123.020 18.000,123.200 17.730,123.200 17.400 C 123.200 17.070,123.020 16.800,122.800 16.800 C 122.580 16.800,122.400 17.070,122.400 17.400 M277.600 17.400 C 277.600 17.730,277.870 18.000,278.200 18.000 C 278.530 18.000,278.800 17.730,278.800 17.400 C 278.800 17.070,278.530 16.800,278.200 16.800 C 277.870 16.800,277.600 17.070,277.600 17.400 M119.200 18.600 C 119.200 18.933,119.556 19.200,120.000 19.200 C 120.444 19.200,120.800 18.933,120.800 18.600 C 120.800 18.267,120.444 18.000,120.000 18.000 C 119.556 18.000,119.200 18.267,119.200 18.600 M280.100 18.500 C 280.192 18.775,280.597 19.000,281.000 19.000 C 281.403 19.000,281.808 18.775,281.900 18.500 C 282.006 18.183,281.676 18.000,281.000 18.000 C 280.324 18.000,279.994 18.183,280.100 18.500 M117.200 19.400 C 117.200 19.730,117.470 20.000,117.800 20.000 C 118.130 20.000,118.400 19.730,118.400 19.400 C 118.400 19.070,118.130 18.800,117.800 18.800 C 117.470 18.800,117.200 19.070,117.200 19.400 M282.400 19.333 C 282.400 20.086,282.785 20.381,283.439 20.130 C 284.290 19.803,284.110 18.800,283.200 18.800 C 282.760 18.800,282.400 19.040,282.400 19.333 M115.200 20.600 C 115.200 20.930,115.470 21.200,115.800 21.200 C 116.130 21.200,116.400 20.930,116.400 20.600 C 116.400 20.270,116.130 20.000,115.800 20.000 C 115.470 20.000,115.200 20.270,115.200 20.600 M284.400 20.600 C 284.400 20.933,284.756 21.200,285.200 21.200 C 285.644 21.200,286.000 20.933,286.000 20.600 C 286.000 20.267,285.644 20.000,285.200 20.000 C 284.756 20.000,284.400 20.267,284.400 20.600 M113.200 21.400 C 113.200 21.730,113.470 22.000,113.800 22.000 C 114.130 22.000,114.400 21.730,114.400 21.400 C 114.400 21.070,114.130 20.800,113.800 20.800 C 113.470 20.800,113.200 21.070,113.200 21.400 M286.655 21.400 C 286.782 21.730,287.136 22.000,287.443 22.000 C 287.749 22.000,288.000 21.730,288.000 21.400 C 288.000 21.070,287.646 20.800,287.213 20.800 C 286.677 20.800,286.499 20.992,286.655 21.400 M111.055 22.600 C 110.899 23.008,111.077 23.200,111.613 23.200 C 112.046 23.200,112.400 22.930,112.400 22.600 C 112.400 22.270,112.149 22.000,111.843 22.000 C 111.536 22.000,111.182 22.270,111.055 22.600 M288.800 22.600 C 288.800 22.930,289.070 23.200,289.400 23.200 C 289.730 23.200,290.000 22.930,290.000 22.600 C 290.000 22.270,289.730 22.000,289.400 22.000 C 289.070 22.000,288.800 22.270,288.800 22.600 M108.900 23.700 C 109.152 24.457,110.400 24.564,110.400 23.829 C 110.400 23.458,110.058 23.200,109.567 23.200 C 109.078 23.200,108.802 23.407,108.900 23.700 M290.800 23.833 C 290.800 24.182,291.014 24.395,291.275 24.308 C 292.017 24.061,292.140 23.200,291.433 23.200 C 291.085 23.200,290.800 23.485,290.800 23.833 M106.800 24.600 C 106.800 24.933,107.156 25.200,107.600 25.200 C 108.044 25.200,108.400 24.933,108.400 24.600 C 108.400 24.267,108.044 24.000,107.600 24.000 C 107.156 24.000,106.800 24.267,106.800 24.600 M292.800 24.600 C 292.800 24.930,293.070 25.200,293.400 25.200 C 293.730 25.200,294.000 24.930,294.000 24.600 C 294.000 24.270,293.730 24.000,293.400 24.000 C 293.070 24.000,292.800 24.270,292.800 24.600 M104.800 25.600 C 104.800 25.820,104.350 26.000,103.800 26.000 C 103.067 26.000,102.800 26.213,102.800 26.800 C 102.800 27.760,104.302 27.922,104.655 27.000 C 104.782 26.670,105.226 26.400,105.643 26.400 C 106.059 26.400,106.400 26.130,106.400 25.800 C 106.400 25.467,106.044 25.200,105.600 25.200 C 105.160 25.200,104.800 25.380,104.800 25.600 M294.800 25.800 C 294.800 26.130,295.070 26.400,295.400 26.400 C 295.730 26.400,296.000 26.130,296.000 25.800 C 296.000 25.470,295.730 25.200,295.400 25.200 C 295.070 25.200,294.800 25.470,294.800 25.800 M99.600 28.571 C 99.600 28.942,99.942 29.200,100.433 29.200 C 101.408 29.200,101.270 28.265,100.267 28.071 C 99.872 27.994,99.600 28.198,99.600 28.571 M300.000 28.600 C 300.000 28.930,300.270 29.200,300.600 29.200 C 300.930 29.200,301.200 28.930,301.200 28.600 C 301.200 28.270,300.930 28.000,300.600 28.000 C 300.270 28.000,300.000 28.270,300.000 28.600 M97.322 29.774 C 96.941 30.209,97.015 30.363,97.692 30.540 C 98.708 30.806,99.200 30.556,99.200 29.776 C 99.200 29.052,97.958 29.050,97.322 29.774 M301.600 29.767 C 301.600 30.432,302.320 30.742,303.286 30.492 C 303.872 30.340,303.890 30.233,303.414 29.757 C 302.692 29.034,301.600 29.040,301.600 29.767 M94.800 31.800 C 94.800 32.130,95.070 32.400,95.400 32.400 C 95.730 32.400,96.000 32.130,96.000 31.800 C 96.000 31.470,95.730 31.200,95.400 31.200 C 95.070 31.200,94.800 31.470,94.800 31.800 M305.200 31.800 C 305.200 32.130,305.470 32.400,305.800 32.400 C 306.130 32.400,306.400 32.130,306.400 31.800 C 306.400 31.470,306.130 31.200,305.800 31.200 C 305.470 31.200,305.200 31.470,305.200 31.800 M91.600 33.800 C 91.600 34.130,91.870 34.400,92.200 34.400 C 92.530 34.400,92.800 34.130,92.800 33.800 C 92.800 33.470,92.530 33.200,92.200 33.200 C 91.870 33.200,91.600 33.470,91.600 33.800 M308.000 33.800 C 308.000 34.133,308.356 34.400,308.800 34.400 C 309.244 34.400,309.600 34.133,309.600 33.800 C 309.600 33.467,309.244 33.200,308.800 33.200 C 308.356 33.200,308.000 33.467,308.000 33.800 M88.476 35.900 C 88.550 36.285,88.876 36.600,89.200 36.600 C 89.524 36.600,89.850 36.285,89.924 35.900 C 90.018 35.409,89.802 35.200,89.200 35.200 C 88.598 35.200,88.382 35.409,88.476 35.900 M311.271 35.821 C 311.452 36.690,312.161 36.743,312.324 35.900 C 312.408 35.462,312.212 35.200,311.800 35.200 C 311.416 35.200,311.195 35.459,311.271 35.821 M85.600 37.800 C 85.600 38.130,85.330 38.400,85.000 38.400 C 84.670 38.400,84.400 38.670,84.400 39.000 C 84.400 39.330,84.670 39.600,85.000 39.600 C 85.330 39.600,85.600 39.420,85.600 39.200 C 85.600 38.980,85.870 38.800,86.200 38.800 C 86.533 38.800,86.800 38.444,86.800 38.000 C 86.800 37.556,86.533 37.200,86.200 37.200 C 85.870 37.200,85.600 37.470,85.600 37.800 M314.200 37.600 C 313.872 38.131,314.312 38.800,314.990 38.800 C 315.289 38.800,315.604 39.012,315.690 39.271 C 315.777 39.530,316.062 39.609,316.324 39.447 C 316.992 39.034,316.917 38.400,316.200 38.400 C 315.870 38.400,315.600 38.130,315.600 37.800 C 315.600 37.127,314.582 36.982,314.200 37.600 M82.400 39.800 C 82.400 40.130,82.130 40.400,81.800 40.400 C 81.470 40.400,81.200 40.670,81.200 41.000 C 81.200 41.330,81.020 41.600,80.800 41.600 C 80.580 41.600,80.400 41.780,80.400 42.000 C 80.400 42.220,80.670 42.400,81.000 42.400 C 81.330 42.400,81.600 42.220,81.600 42.000 C 81.600 41.780,81.870 41.600,82.200 41.600 C 82.530 41.600,82.800 41.420,82.800 41.200 C 82.800 40.980,83.070 40.800,83.400 40.800 C 83.733 40.800,84.000 40.444,84.000 40.000 C 84.000 39.467,83.733 39.200,83.200 39.200 C 82.756 39.200,82.400 39.467,82.400 39.800 M316.966 39.655 C 316.667 40.138,318.252 41.576,319.100 41.591 C 319.375 41.596,319.600 41.780,319.600 42.000 C 319.600 42.220,319.870 42.400,320.200 42.400 C 320.530 42.400,320.800 42.220,320.800 42.000 C 320.800 41.780,320.530 41.600,320.200 41.600 C 319.870 41.600,319.600 41.422,319.600 41.205 C 319.600 39.950,317.535 38.735,316.966 39.655 M321.200 42.980 C 321.200 43.608,323.585 45.600,324.338 45.600 C 324.592 45.600,324.800 45.330,324.800 45.000 C 324.800 44.670,324.607 44.400,324.371 44.400 C 323.818 44.400,322.800 43.382,322.800 42.829 C 322.800 42.593,322.440 42.400,322.000 42.400 C 321.560 42.400,321.200 42.661,321.200 42.980 M76.865 44.236 C 76.571 44.569,76.434 45.112,76.561 45.442 C 76.835 46.156,78.765 44.992,78.787 44.100 C 78.805 43.409,77.516 43.500,76.865 44.236 M327.200 48.177 C 327.200 48.495,327.740 49.074,328.400 49.464 C 329.060 49.854,329.600 50.314,329.600 50.486 C 329.600 50.659,329.870 50.800,330.200 50.800 C 330.530 50.800,330.800 51.085,330.800 51.433 C 330.800 52.140,331.661 52.017,331.908 51.275 C 331.995 51.014,331.782 50.800,331.433 50.800 C 331.085 50.800,330.800 50.606,330.800 50.369 C 330.800 49.707,328.541 47.600,327.831 47.600 C 327.484 47.600,327.200 47.860,327.200 48.177 M71.200 49.000 C 71.200 49.330,70.930 49.600,70.600 49.600 C 70.270 49.600,70.000 49.870,70.000 50.200 C 70.000 50.530,69.820 50.800,69.600 50.800 C 69.380 50.800,69.200 51.070,69.200 51.400 C 69.200 51.730,69.386 52.000,69.613 52.000 C 69.839 52.000,70.129 51.730,70.255 51.400 C 70.382 51.070,70.644 50.800,70.838 50.800 C 71.526 50.800,72.727 49.474,72.522 48.941 C 72.240 48.206,71.200 48.253,71.200 49.000 M52.800 67.600 C 52.800 67.820,52.530 68.000,52.200 68.000 C 51.870 68.000,51.600 68.193,51.600 68.429 C 51.600 68.982,50.582 70.000,50.029 70.000 C 49.793 70.000,49.600 70.360,49.600 70.800 C 49.600 72.062,50.657 71.737,51.877 70.100 C 52.492 69.275,53.221 68.456,53.498 68.280 C 54.188 67.841,54.130 67.200,53.400 67.200 C 53.070 67.200,52.800 67.380,52.800 67.600 M347.200 67.504 C 347.200 67.672,347.827 68.527,348.592 69.404 C 349.358 70.282,349.988 71.114,349.992 71.253 C 350.012 71.896,351.600 71.894,351.600 71.251 C 351.600 70.549,350.281 69.200,349.595 69.200 C 349.378 69.200,349.200 69.007,349.200 68.771 C 349.200 68.536,348.943 68.086,348.629 67.771 C 348.015 67.158,347.200 67.006,347.200 67.504 M353.200 74.167 C 353.200 75.291,354.283 76.800,355.089 76.800 C 355.370 76.800,355.600 76.440,355.600 76.000 C 355.600 75.556,355.333 75.200,355.000 75.200 C 354.670 75.200,354.400 75.007,354.400 74.771 C 354.400 74.536,354.130 74.073,353.800 73.743 C 353.267 73.210,353.200 73.257,353.200 74.167 M46.289 74.805 C 45.484 75.745,45.383 76.805,46.100 76.787 C 46.773 76.771,48.105 74.894,47.798 74.396 C 47.434 73.807,47.055 73.910,46.289 74.805 M43.600 78.800 C 43.600 79.020,43.330 79.200,43.000 79.200 C 42.670 79.200,42.400 79.470,42.400 79.800 C 42.400 80.130,42.220 80.400,42.000 80.400 C 41.780 80.400,41.600 80.760,41.600 81.200 C 41.600 81.644,41.867 82.000,42.200 82.000 C 42.530 82.000,42.800 81.730,42.800 81.400 C 42.800 81.070,42.980 80.800,43.200 80.800 C 43.420 80.800,43.600 80.549,43.600 80.243 C 43.600 79.936,43.881 79.578,44.225 79.446 C 44.569 79.314,44.739 79.024,44.602 78.803 C 44.280 78.283,43.600 78.281,43.600 78.800 M356.400 79.000 C 356.400 79.330,356.541 79.600,356.714 79.600 C 356.886 79.600,357.346 80.140,357.736 80.800 C 358.543 82.166,359.600 82.393,359.600 81.200 C 359.600 80.756,359.333 80.400,359.000 80.400 C 358.670 80.400,358.400 80.207,358.400 79.971 C 358.400 79.418,357.382 78.400,356.829 78.400 C 356.593 78.400,356.400 78.670,356.400 79.000 M39.900 83.157 C 38.971 84.099,39.013 84.800,40.000 84.800 C 40.444 84.800,40.800 84.533,40.800 84.200 C 40.800 83.870,40.980 83.600,41.200 83.600 C 41.420 83.600,41.600 83.330,41.600 83.000 C 41.600 82.201,40.767 82.278,39.900 83.157 M359.613 82.900 C 359.631 83.600,360.597 84.800,361.144 84.800 C 361.848 84.800,361.683 83.551,360.900 82.957 C 360.012 82.283,359.597 82.265,359.613 82.900 M37.200 86.957 C 37.200 87.635,38.282 88.115,38.611 87.583 C 38.741 87.372,38.736 87.020,38.600 86.800 C 38.230 86.202,37.200 86.318,37.200 86.957 M362.400 87.000 C 362.400 87.330,362.670 87.600,363.000 87.600 C 363.330 87.600,363.600 87.330,363.600 87.000 C 363.600 86.670,363.330 86.400,363.000 86.400 C 362.670 86.400,362.400 86.670,362.400 87.000 M35.200 90.200 C 35.200 90.530,35.470 90.800,35.800 90.800 C 36.130 90.800,36.400 90.530,36.400 90.200 C 36.400 89.870,36.130 89.600,35.800 89.600 C 35.470 89.600,35.200 89.870,35.200 90.200 M364.400 90.200 C 364.400 90.530,364.670 90.800,365.000 90.800 C 365.330 90.800,365.600 90.530,365.600 90.200 C 365.600 89.870,365.330 89.600,365.000 89.600 C 364.670 89.600,364.400 89.870,364.400 90.200 M33.200 93.200 C 33.200 93.644,33.467 94.000,33.800 94.000 C 34.133 94.000,34.400 93.644,34.400 93.200 C 34.400 92.756,34.133 92.400,33.800 92.400 C 33.467 92.400,33.200 92.756,33.200 93.200 M366.667 92.667 C 366.179 93.154,366.391 94.000,367.000 94.000 C 367.333 94.000,367.600 93.644,367.600 93.200 C 367.600 92.403,367.174 92.160,366.667 92.667 M31.200 96.400 C 31.200 97.002,31.409 97.218,31.900 97.124 C 32.285 97.050,32.600 96.724,32.600 96.400 C 32.600 96.076,32.285 95.750,31.900 95.676 C 31.409 95.582,31.200 95.798,31.200 96.400 M368.400 96.400 C 368.400 96.933,368.667 97.200,369.200 97.200 C 369.733 97.200,370.000 96.933,370.000 96.400 C 370.000 95.867,369.733 95.600,369.200 95.600 C 368.667 95.600,368.400 95.867,368.400 96.400 M30.267 97.867 C 29.806 98.327,29.975 98.800,30.600 98.800 C 30.930 98.800,31.200 98.530,31.200 98.200 C 31.200 97.575,30.727 97.406,30.267 97.867 M369.600 98.200 C 369.600 98.530,369.870 98.800,370.200 98.800 C 370.530 98.800,370.800 98.530,370.800 98.200 C 370.800 97.870,370.530 97.600,370.200 97.600 C 369.870 97.600,369.600 97.870,369.600 98.200 M371.108 99.935 C 371.387 100.112,371.567 100.687,371.508 101.212 C 371.435 101.855,371.628 102.215,372.100 102.313 C 372.588 102.415,372.800 102.208,372.800 101.629 C 372.800 101.173,372.620 100.800,372.400 100.800 C 372.180 100.800,372.000 100.530,372.000 100.200 C 372.000 99.870,371.685 99.603,371.300 99.606 C 370.791 99.611,370.739 99.700,371.108 99.935 M28.000 101.600 C 28.000 102.133,28.267 102.400,28.800 102.400 C 29.333 102.400,29.600 102.133,29.600 101.600 C 29.600 101.067,29.333 100.800,28.800 100.800 C 28.267 100.800,28.000 101.067,28.000 101.600 M27.200 103.600 C 27.200 104.044,27.467 104.400,27.800 104.400 C 28.133 104.400,28.400 104.044,28.400 103.600 C 28.400 103.156,28.133 102.800,27.800 102.800 C 27.467 102.800,27.200 103.156,27.200 103.600 M372.600 103.200 C 372.265 103.742,372.717 104.400,373.424 104.400 C 373.741 104.400,374.000 104.040,374.000 103.600 C 374.000 102.772,373.035 102.496,372.600 103.200 M26.000 105.600 C 26.000 106.044,26.267 106.400,26.600 106.400 C 26.933 106.400,27.200 106.044,27.200 105.600 C 27.200 105.156,26.933 104.800,26.600 104.800 C 26.267 104.800,26.000 105.156,26.000 105.600 M373.800 105.200 C 373.508 105.672,373.887 106.400,374.424 106.400 C 374.631 106.400,374.800 106.040,374.800 105.600 C 374.800 104.756,374.218 104.524,373.800 105.200 M25.200 107.567 C 25.200 108.058,25.458 108.400,25.829 108.400 C 26.202 108.400,26.406 108.128,26.329 107.733 C 26.135 106.730,25.200 106.592,25.200 107.567 M374.800 107.600 C 374.800 108.044,375.067 108.400,375.400 108.400 C 375.733 108.400,376.000 108.044,376.000 107.600 C 376.000 107.156,375.733 106.800,375.400 106.800 C 375.067 106.800,374.800 107.156,374.800 107.600 M24.000 109.600 C 24.000 110.044,24.267 110.400,24.600 110.400 C 24.933 110.400,25.200 110.044,25.200 109.600 C 25.200 109.156,24.933 108.800,24.600 108.800 C 24.267 108.800,24.000 109.156,24.000 109.600 M376.000 109.400 C 376.000 109.730,376.180 110.000,376.400 110.000 C 376.620 110.000,376.800 109.730,376.800 109.400 C 376.800 109.070,376.620 108.800,376.400 108.800 C 376.180 108.800,376.000 109.070,376.000 109.400 M23.200 111.600 C 23.200 112.040,23.380 112.400,23.600 112.400 C 23.820 112.400,24.000 112.040,24.000 111.600 C 24.000 111.160,23.820 110.800,23.600 110.800 C 23.380 110.800,23.200 111.160,23.200 111.600 M376.800 111.567 C 376.800 112.058,377.058 112.400,377.429 112.400 C 377.802 112.400,378.006 112.128,377.929 111.733 C 377.735 110.730,376.800 110.592,376.800 111.567 M22.000 113.800 C 22.000 114.130,22.270 114.400,22.600 114.400 C 22.930 114.400,23.200 114.130,23.200 113.800 C 23.200 113.470,22.930 113.200,22.600 113.200 C 22.270 113.200,22.000 113.470,22.000 113.800 M377.878 113.456 C 377.504 113.829,377.955 114.400,378.624 114.400 C 378.941 114.400,379.200 114.130,379.200 113.800 C 379.200 113.198,378.356 112.978,377.878 113.456 M20.800 115.800 C 20.800 116.212,21.062 116.408,21.500 116.324 C 22.343 116.161,22.290 115.452,21.421 115.271 C 21.059 115.195,20.800 115.416,20.800 115.800 M378.800 115.800 C 378.800 116.130,379.070 116.400,379.400 116.400 C 379.730 116.400,380.000 116.130,380.000 115.800 C 380.000 115.470,379.730 115.200,379.400 115.200 C 379.070 115.200,378.800 115.470,378.800 115.800 M20.000 118.000 C 20.000 118.444,20.267 118.800,20.600 118.800 C 20.933 118.800,21.200 118.444,21.200 118.000 C 21.200 117.556,20.933 117.200,20.600 117.200 C 20.267 117.200,20.000 117.556,20.000 118.000 M379.800 117.600 C 379.465 118.142,379.917 118.800,380.624 118.800 C 380.941 118.800,381.200 118.440,381.200 118.000 C 381.200 117.172,380.235 116.896,379.800 117.600 M19.300 120.265 C 18.604 120.546,18.673 121.200,19.400 121.200 C 19.730 121.200,20.000 120.930,20.000 120.600 C 20.000 120.270,19.955 120.014,19.900 120.032 C 19.845 120.049,19.575 120.154,19.300 120.265 M18.000 123.000 C 18.000 123.367,18.194 123.602,18.430 123.523 C 18.666 123.445,18.860 123.209,18.860 123.000 C 18.860 122.791,18.666 122.556,18.430 122.477 C 18.194 122.398,18.000 122.633,18.000 123.000 M382.000 123.000 C 382.000 123.330,382.270 123.600,382.600 123.600 C 382.930 123.600,383.200 123.330,383.200 123.000 C 383.200 122.670,382.930 122.400,382.600 122.400 C 382.270 122.400,382.000 122.670,382.000 123.000 M16.800 125.200 C 16.800 125.644,17.067 126.000,17.400 126.000 C 17.733 126.000,18.000 125.644,18.000 125.200 C 18.000 124.756,17.733 124.400,17.400 124.400 C 17.067 124.400,16.800 124.756,16.800 125.200 M382.800 125.200 C 382.800 125.644,383.067 126.000,383.400 126.000 C 383.733 126.000,384.000 125.644,384.000 125.200 C 384.000 124.756,383.733 124.400,383.400 124.400 C 383.067 124.400,382.800 124.756,382.800 125.200 M126.986 125.297 C 126.881 125.574,126.841 158.650,126.897 198.800 L 127.000 271.800 151.501 271.903 L 176.002 272.006 175.901 198.503 L 175.800 125.000 151.489 124.897 C 132.252 124.815,127.137 124.899,126.986 125.297 M225.200 198.400 L 225.200 272.000 249.600 272.000 L 274.000 272.000 274.000 198.400 L 274.000 124.800 249.600 124.800 L 225.200 124.800 225.200 198.400 M16.000 127.967 C 16.000 128.458,16.258 128.800,16.629 128.800 C 17.002 128.800,17.206 128.528,17.129 128.133 C 16.935 127.130,16.000 126.992,16.000 127.967 M384.000 128.000 C 384.000 128.444,384.267 128.800,384.600 128.800 C 384.933 128.800,385.200 128.444,385.200 128.000 C 385.200 127.556,384.933 127.200,384.600 127.200 C 384.267 127.200,384.000 127.556,384.000 128.000 M15.300 129.492 C 14.605 129.735,14.670 131.200,15.376 131.200 C 15.693 131.200,16.063 131.021,16.198 130.803 C 16.548 130.237,15.895 129.284,15.300 129.492 M14.000 133.400 C 14.000 134.076,14.183 134.406,14.500 134.300 C 14.775 134.208,15.000 133.803,15.000 133.400 C 15.000 132.997,14.775 132.592,14.500 132.500 C 14.183 132.394,14.000 132.724,14.000 133.400 M386.000 133.400 C 386.000 134.022,386.227 134.400,386.600 134.400 C 386.973 134.400,387.200 134.022,387.200 133.400 C 387.200 132.778,386.973 132.400,386.600 132.400 C 386.227 132.400,386.000 132.778,386.000 133.400 M12.800 136.600 C 12.800 137.222,13.027 137.600,13.400 137.600 C 13.773 137.600,14.000 137.222,14.000 136.600 C 14.000 135.978,13.773 135.600,13.400 135.600 C 13.027 135.600,12.800 135.978,12.800 136.600 M386.952 136.181 C 386.667 136.923,387.083 137.600,387.824 137.600 C 388.172 137.600,388.400 137.204,388.400 136.600 C 388.400 135.501,387.332 135.192,386.952 136.181 M11.600 139.600 C 11.600 140.202,11.809 140.418,12.300 140.324 C 12.685 140.250,13.000 139.924,13.000 139.600 C 13.000 139.276,12.685 138.950,12.300 138.876 C 11.809 138.782,11.600 138.998,11.600 139.600 M388.000 139.600 C 388.000 140.044,388.267 140.400,388.600 140.400 C 388.933 140.400,389.200 140.044,389.200 139.600 C 389.200 139.156,388.933 138.800,388.600 138.800 C 388.267 138.800,388.000 139.156,388.000 139.600 M10.800 142.800 C 10.800 143.600,11.000 144.000,11.400 144.000 C 11.800 144.000,12.000 143.600,12.000 142.800 C 12.000 142.000,11.800 141.600,11.400 141.600 C 11.000 141.600,10.800 142.000,10.800 142.800 M388.998 142.004 C 388.614 142.625,389.185 144.000,389.827 144.000 C 390.197 144.000,390.400 143.575,390.400 142.800 C 390.400 141.611,389.542 141.123,388.998 142.004 M9.600 146.800 C 9.600 148.074,10.527 148.488,10.945 147.400 C 11.260 146.577,10.833 145.600,10.157 145.600 C 9.805 145.600,9.600 146.041,9.600 146.800 M390.145 146.200 C 389.859 146.946,390.235 148.000,390.787 148.000 C 391.014 148.000,391.200 147.460,391.200 146.800 C 391.200 145.544,390.540 145.169,390.145 146.200 M8.800 150.833 C 8.800 151.808,9.735 151.670,9.929 150.667 C 10.006 150.272,9.802 150.000,9.429 150.000 C 9.058 150.000,8.800 150.342,8.800 150.833 M391.200 150.800 C 391.200 151.244,391.467 151.600,391.800 151.600 C 392.133 151.600,392.400 151.244,392.400 150.800 C 392.400 150.356,392.133 150.000,391.800 150.000 C 391.467 150.000,391.200 150.356,391.200 150.800 M7.600 154.400 C 7.600 156.216,8.548 156.658,8.956 155.032 C 9.259 153.826,8.892 152.800,8.157 152.800 C 7.774 152.800,7.600 153.299,7.600 154.400 M392.156 153.371 C 391.822 154.242,392.139 155.717,392.700 155.902 C 393.045 156.016,393.200 155.561,393.200 154.433 C 393.200 152.841,392.595 152.226,392.156 153.371 M6.800 160.233 C 6.800 161.486,7.739 161.349,7.928 160.069 C 8.013 159.492,7.845 159.200,7.428 159.200 C 7.019 159.200,6.800 159.561,6.800 160.233 M393.200 160.200 C 393.200 160.822,393.427 161.200,393.800 161.200 C 394.173 161.200,394.400 160.822,394.400 160.200 C 394.400 159.578,394.173 159.200,393.800 159.200 C 393.427 159.200,393.200 159.578,393.200 160.200 M5.600 165.200 C 5.600 166.000,5.800 166.400,6.200 166.400 C 6.600 166.400,6.800 166.000,6.800 165.200 C 6.800 164.400,6.600 164.000,6.200 164.000 C 5.800 164.000,5.600 164.400,5.600 165.200 M394.201 164.796 C 393.929 165.655,394.218 166.400,394.824 166.400 C 395.031 166.400,395.200 165.860,395.200 165.200 C 395.200 163.842,394.583 163.593,394.201 164.796 M4.800 171.367 C 4.800 173.638,5.390 174.377,5.824 172.648 C 6.166 171.285,5.885 169.490,5.300 169.298 C 4.940 169.179,4.800 169.759,4.800 171.367 M395.114 169.700 C 394.774 170.692,395.276 174.041,395.742 173.888 C 396.465 173.649,396.580 169.200,395.863 169.200 C 395.545 169.200,395.208 169.425,395.114 169.700 M3.600 182.600 C 3.600 184.289,3.739 184.800,4.200 184.800 C 4.661 184.800,4.800 184.289,4.800 182.600 C 4.800 180.911,4.661 180.400,4.200 180.400 C 3.739 180.400,3.600 180.911,3.600 182.600 M396.235 181.053 C 395.846 182.066,396.412 185.263,396.948 185.084 C 397.545 184.885,397.546 180.715,396.949 180.516 C 396.701 180.434,396.380 180.675,396.235 181.053 M396.205 213.562 C 395.908 215.721,396.109 216.400,397.044 216.400 C 397.516 216.400,397.615 215.929,397.520 214.132 C 397.366 211.222,396.574 210.879,396.205 213.562 M3.600 214.200 C 3.600 215.889,3.739 216.400,4.200 216.400 C 4.661 216.400,4.800 215.889,4.800 214.200 C 4.800 212.511,4.661 212.000,4.200 212.000 C 3.739 212.000,3.600 212.511,3.600 214.200 M4.800 225.433 C 4.800 227.042,4.940 227.620,5.300 227.500 C 5.953 227.283,6.135 226.248,5.819 224.560 C 5.420 222.433,4.800 222.964,4.800 225.433 M395.108 224.900 C 394.900 226.915,395.087 227.600,395.843 227.600 C 396.252 227.600,396.400 227.014,396.400 225.400 C 396.400 222.630,395.384 222.237,395.108 224.900 M5.600 231.600 C 5.600 232.400,5.800 232.800,6.200 232.800 C 6.600 232.800,6.800 232.400,6.800 231.600 C 6.800 230.800,6.600 230.400,6.200 230.400 C 5.800 230.400,5.600 230.800,5.600 231.600 M394.145 231.000 C 393.859 231.746,394.235 232.800,394.787 232.800 C 395.014 232.800,395.200 232.260,395.200 231.600 C 395.200 230.344,394.540 229.969,394.145 231.000 M6.800 236.800 C 6.800 237.636,6.970 238.010,7.300 237.900 C 7.575 237.808,7.800 237.313,7.800 236.800 C 7.800 236.287,7.575 235.792,7.300 235.700 C 6.970 235.590,6.800 235.964,6.800 236.800 M393.200 236.800 C 393.200 237.600,393.400 238.000,393.800 238.000 C 394.200 238.000,394.400 237.600,394.400 236.800 C 394.400 236.000,394.200 235.600,393.800 235.600 C 393.400 235.600,393.200 236.000,393.200 236.800 M7.600 242.400 C 7.600 243.526,7.771 244.000,8.176 244.000 C 9.022 244.000,9.293 243.336,8.998 241.990 C 8.598 240.170,7.600 240.463,7.600 242.400 M392.267 241.067 C 391.714 241.620,391.984 244.000,392.600 244.000 C 393.033 244.000,393.200 243.556,393.200 242.400 C 393.200 240.899,392.885 240.448,392.267 241.067 M8.800 246.246 C 8.800 246.885,8.987 247.204,9.300 247.100 C 10.047 246.851,10.129 245.735,9.420 245.463 C 8.960 245.286,8.800 245.488,8.800 246.246 M391.200 246.200 C 391.200 246.822,391.427 247.200,391.800 247.200 C 392.173 247.200,392.400 246.822,392.400 246.200 C 392.400 245.578,392.173 245.200,391.800 245.200 C 391.427 245.200,391.200 245.578,391.200 246.200 M9.600 250.015 C 9.600 250.981,9.755 251.229,10.295 251.125 C 11.304 250.930,11.385 249.727,10.424 249.213 C 9.674 248.812,9.600 248.884,9.600 250.015 M390.267 249.067 C 389.743 249.590,389.995 251.200,390.600 251.200 C 391.000 251.200,391.200 250.800,391.200 250.000 C 391.200 248.853,390.840 248.493,390.267 249.067 M10.800 254.000 C 10.800 254.800,11.000 255.200,11.400 255.200 C 11.800 255.200,12.000 254.800,12.000 254.000 C 12.000 253.200,11.800 252.800,11.400 252.800 C 11.000 252.800,10.800 253.200,10.800 254.000 M389.001 253.596 C 388.699 254.549,389.033 255.200,389.824 255.200 C 390.197 255.200,390.400 254.778,390.400 254.000 C 390.400 252.617,389.403 252.330,389.001 253.596 M11.600 257.400 C 11.600 258.193,11.776 258.425,12.300 258.324 C 12.685 258.250,13.000 257.834,13.000 257.400 C 13.000 256.966,12.685 256.550,12.300 256.476 C 11.776 256.375,11.600 256.607,11.600 257.400 M388.000 257.400 C 388.000 258.022,388.227 258.400,388.600 258.400 C 388.973 258.400,389.200 258.022,389.200 257.400 C 389.200 256.778,388.973 256.400,388.600 256.400 C 388.227 256.400,388.000 256.778,388.000 257.400 M12.800 260.200 C 12.800 260.822,13.027 261.200,13.400 261.200 C 13.773 261.200,14.000 260.822,14.000 260.200 C 14.000 259.578,13.773 259.200,13.400 259.200 C 13.027 259.200,12.800 259.578,12.800 260.200 M387.067 259.467 C 386.470 260.063,386.820 261.200,387.600 261.200 C 388.187 261.200,388.400 260.933,388.400 260.200 C 388.400 259.259,387.674 258.859,387.067 259.467 M14.000 263.400 C 14.000 264.076,14.183 264.406,14.500 264.300 C 14.775 264.208,15.000 263.803,15.000 263.400 C 15.000 262.997,14.775 262.592,14.500 262.500 C 14.183 262.394,14.000 262.724,14.000 263.400 M386.000 263.400 C 386.000 264.022,386.227 264.400,386.600 264.400 C 386.973 264.400,387.200 264.022,387.200 263.400 C 387.200 262.778,386.973 262.400,386.600 262.400 C 386.227 262.400,386.000 262.778,386.000 263.400 M14.800 266.600 C 14.800 267.638,15.764 268.010,16.098 267.100 C 16.374 266.351,16.007 265.600,15.367 265.600 C 15.029 265.600,14.800 266.004,14.800 266.600 M16.000 268.833 C 16.000 269.808,16.935 269.670,17.129 268.667 C 17.206 268.272,17.002 268.000,16.629 268.000 C 16.258 268.000,16.000 268.342,16.000 268.833 M384.000 268.800 C 384.000 269.244,384.267 269.600,384.600 269.600 C 384.933 269.600,385.200 269.244,385.200 268.800 C 385.200 268.356,384.933 268.000,384.600 268.000 C 384.267 268.000,384.000 268.356,384.000 268.800 M16.800 271.557 C 16.800 271.974,17.070 272.418,17.400 272.545 C 17.833 272.711,18.000 272.501,18.000 271.787 C 18.000 271.176,17.771 270.800,17.400 270.800 C 17.070 270.800,16.800 271.141,16.800 271.557 M382.952 271.381 C 382.676 272.099,383.123 272.895,383.628 272.583 C 384.135 272.270,384.101 270.800,383.587 270.800 C 383.361 270.800,383.075 271.061,382.952 271.381 M382.000 274.000 C 382.000 274.444,382.267 274.800,382.600 274.800 C 382.933 274.800,383.200 274.444,383.200 274.000 C 383.200 273.556,382.933 273.200,382.600 273.200 C 382.267 273.200,382.000 273.556,382.000 274.000 M18.000 274.233 C 18.000 274.940,18.861 274.817,19.108 274.075 C 19.195 273.814,18.982 273.600,18.633 273.600 C 18.285 273.600,18.000 273.885,18.000 274.233 M18.800 276.200 C 18.800 276.530,19.070 276.800,19.400 276.800 C 19.730 276.800,20.000 276.530,20.000 276.200 C 20.000 275.870,19.730 275.600,19.400 275.600 C 19.070 275.600,18.800 275.870,18.800 276.200 M381.200 276.200 C 381.200 276.530,381.380 276.800,381.600 276.800 C 381.820 276.800,382.000 276.530,382.000 276.200 C 382.000 275.870,381.820 275.600,381.600 275.600 C 381.380 275.600,381.200 275.870,381.200 276.200 M20.000 278.800 C 20.000 279.244,20.267 279.600,20.600 279.600 C 20.933 279.600,21.200 279.244,21.200 278.800 C 21.200 278.356,20.933 278.000,20.600 278.000 C 20.267 278.000,20.000 278.356,20.000 278.800 M379.800 278.400 C 379.465 278.942,379.917 279.600,380.624 279.600 C 380.941 279.600,381.200 279.240,381.200 278.800 C 381.200 277.972,380.235 277.696,379.800 278.400 M20.800 280.976 C 20.800 281.811,21.630 282.197,22.039 281.551 C 22.581 280.695,22.468 280.400,21.600 280.400 C 21.160 280.400,20.800 280.659,20.800 280.976 M378.871 281.021 C 379.052 281.890,379.761 281.943,379.924 281.100 C 380.008 280.662,379.812 280.400,379.400 280.400 C 379.016 280.400,378.795 280.659,378.871 281.021 M22.000 283.200 C 22.000 283.644,22.267 284.000,22.600 284.000 C 22.933 284.000,23.200 283.644,23.200 283.200 C 23.200 282.756,22.933 282.400,22.600 282.400 C 22.267 282.400,22.000 282.756,22.000 283.200 M377.850 282.719 C 377.534 283.231,378.267 284.129,378.755 283.828 C 379.397 283.431,379.302 282.400,378.624 282.400 C 378.307 282.400,377.958 282.544,377.850 282.719 M23.412 284.917 C 23.241 285.312,23.213 285.747,23.351 285.884 C 23.757 286.290,24.084 285.720,23.897 284.931 C 23.732 284.233,23.710 284.232,23.412 284.917 M376.800 285.400 C 376.800 285.730,377.070 286.000,377.400 286.000 C 377.730 286.000,378.000 285.730,378.000 285.400 C 378.000 285.070,377.730 284.800,377.400 284.800 C 377.070 284.800,376.800 285.070,376.800 285.400 M24.000 287.400 C 24.000 287.730,24.270 288.000,24.600 288.000 C 24.930 288.000,25.200 287.730,25.200 287.400 C 25.200 287.070,24.930 286.800,24.600 286.800 C 24.270 286.800,24.000 287.070,24.000 287.400 M376.000 287.400 C 376.000 287.730,376.180 288.000,376.400 288.000 C 376.620 288.000,376.800 287.730,376.800 287.400 C 376.800 287.070,376.620 286.800,376.400 286.800 C 376.180 286.800,376.000 287.070,376.000 287.400 M25.200 289.167 C 25.200 289.658,25.458 290.000,25.829 290.000 C 26.202 290.000,26.406 289.728,26.329 289.333 C 26.135 288.330,25.200 288.192,25.200 289.167 M374.800 289.400 C 374.800 289.730,375.070 290.000,375.400 290.000 C 375.730 290.000,376.000 289.730,376.000 289.400 C 376.000 289.070,375.730 288.800,375.400 288.800 C 375.070 288.800,374.800 289.070,374.800 289.400 M26.267 290.667 C 25.779 291.154,25.991 292.000,26.600 292.000 C 26.933 292.000,27.200 291.644,27.200 291.200 C 27.200 290.403,26.774 290.160,26.267 290.667 M373.692 291.275 C 373.939 292.017,374.800 292.140,374.800 291.433 C 374.800 291.085,374.515 290.800,374.167 290.800 C 373.818 290.800,373.605 291.014,373.692 291.275 M27.200 293.200 C 27.200 293.644,27.467 294.000,27.800 294.000 C 28.133 294.000,28.400 293.644,28.400 293.200 C 28.400 292.756,28.133 292.400,27.800 292.400 C 27.467 292.400,27.200 292.756,27.200 293.200 M372.667 292.667 C 372.116 293.217,372.429 294.000,373.200 294.000 C 373.733 294.000,374.000 293.733,374.000 293.200 C 374.000 292.429,373.217 292.116,372.667 292.667 M29.200 296.633 C 29.200 296.982,29.414 297.195,29.675 297.108 C 30.417 296.861,30.540 296.000,29.833 296.000 C 29.485 296.000,29.200 296.285,29.200 296.633 M370.800 296.600 C 370.800 296.967,370.994 297.202,371.230 297.123 C 371.466 297.045,371.660 296.809,371.660 296.600 C 371.660 296.391,371.466 296.156,371.230 296.077 C 370.994 295.998,370.800 296.233,370.800 296.600 M30.000 298.600 C 30.000 298.930,30.251 299.200,30.557 299.200 C 30.864 299.200,31.218 298.930,31.345 298.600 C 31.501 298.192,31.323 298.000,30.787 298.000 C 30.354 298.000,30.000 298.270,30.000 298.600 M369.600 298.600 C 369.600 298.930,369.870 299.200,370.200 299.200 C 370.530 299.200,370.800 298.930,370.800 298.600 C 370.800 298.270,370.530 298.000,370.200 298.000 C 369.870 298.000,369.600 298.270,369.600 298.600 M31.200 300.371 C 31.200 300.943,31.457 301.200,32.029 301.200 C 33.054 301.200,32.938 299.876,31.895 299.675 C 31.415 299.583,31.200 299.798,31.200 300.371 M368.400 300.400 C 368.400 300.933,368.667 301.200,369.200 301.200 C 369.733 301.200,370.000 300.933,370.000 300.400 C 370.000 299.867,369.733 299.600,369.200 299.600 C 368.667 299.600,368.400 299.867,368.400 300.400 M33.200 303.600 C 33.200 304.044,33.467 304.400,33.800 304.400 C 34.133 304.400,34.400 304.044,34.400 303.600 C 34.400 303.156,34.133 302.800,33.800 302.800 C 33.467 302.800,33.200 303.156,33.200 303.600 M366.667 303.067 C 366.179 303.554,366.391 304.400,367.000 304.400 C 367.333 304.400,367.600 304.044,367.600 303.600 C 367.600 302.803,367.174 302.560,366.667 303.067 M35.200 306.600 C 35.200 306.930,35.470 307.200,35.800 307.200 C 36.130 307.200,36.400 306.930,36.400 306.600 C 36.400 306.270,36.130 306.000,35.800 306.000 C 35.470 306.000,35.200 306.270,35.200 306.600 M364.400 306.600 C 364.400 306.930,364.670 307.200,365.000 307.200 C 365.330 307.200,365.600 306.930,365.600 306.600 C 365.600 306.270,365.330 306.000,365.000 306.000 C 364.670 306.000,364.400 306.270,364.400 306.600 M37.200 309.800 C 37.200 310.133,37.556 310.400,38.000 310.400 C 38.444 310.400,38.800 310.133,38.800 309.800 C 38.800 309.467,38.444 309.200,38.000 309.200 C 37.556 309.200,37.200 309.467,37.200 309.800 M362.400 309.800 C 362.400 310.130,362.670 310.400,363.000 310.400 C 363.330 310.400,363.600 310.130,363.600 309.800 C 363.600 309.470,363.330 309.200,363.000 309.200 C 362.670 309.200,362.400 309.470,362.400 309.800 M39.200 312.511 C 39.200 312.792,39.562 313.332,40.005 313.711 C 41.510 315.000,42.200 314.310,40.911 312.805 C 40.135 311.899,39.200 311.738,39.200 312.511 M360.400 312.600 C 360.400 312.930,360.220 313.200,360.000 313.200 C 359.780 313.200,359.600 313.470,359.600 313.800 C 359.600 314.558,360.285 314.572,361.029 313.829 C 361.778 313.080,361.761 312.000,361.000 312.000 C 360.670 312.000,360.400 312.270,360.400 312.600 M41.600 315.600 C 41.600 316.040,41.780 316.400,42.000 316.400 C 42.220 316.400,42.400 316.670,42.400 317.000 C 42.400 317.330,42.651 317.600,42.957 317.600 C 43.264 317.600,43.630 317.900,43.770 318.267 C 43.978 318.809,44.118 318.837,44.513 318.417 C 44.894 318.013,44.894 317.861,44.515 317.722 C 44.248 317.624,43.649 316.926,43.183 316.172 C 42.231 314.631,41.600 314.404,41.600 315.600 M357.846 315.786 C 357.491 316.328,357.200 316.958,357.200 317.186 C 357.200 317.414,357.020 317.600,356.800 317.600 C 356.580 317.600,356.400 317.870,356.400 318.200 C 356.400 318.530,356.670 318.800,357.000 318.800 C 357.330 318.800,357.600 318.530,357.600 318.200 C 357.600 317.870,357.780 317.600,358.000 317.600 C 358.220 317.600,358.400 317.330,358.400 317.000 C 358.400 316.670,358.670 316.400,359.000 316.400 C 359.333 316.400,359.600 316.044,359.600 315.600 C 359.600 314.494,358.625 314.597,357.846 315.786 M45.600 320.800 C 45.600 321.240,45.780 321.600,46.000 321.600 C 46.220 321.600,46.400 321.870,46.400 322.200 C 46.400 322.871,47.418 323.019,47.798 322.404 C 48.105 321.906,46.773 320.029,46.100 320.013 C 45.825 320.006,45.600 320.360,45.600 320.800 M353.846 320.986 C 353.040 322.217,353.025 322.800,353.800 322.800 C 354.130 322.800,354.400 322.530,354.400 322.200 C 354.400 321.870,354.670 321.600,355.000 321.600 C 355.333 321.600,355.600 321.244,355.600 320.800 C 355.600 319.694,354.625 319.797,353.846 320.986 M50.800 327.029 C 50.800 327.747,51.734 328.800,52.371 328.800 C 52.607 328.800,52.800 329.070,52.800 329.400 C 52.800 329.730,53.070 330.000,53.400 330.000 C 53.730 330.000,54.000 329.730,54.000 329.400 C 54.000 329.070,53.830 328.800,53.623 328.800 C 53.415 328.800,52.926 328.260,52.536 327.600 C 51.778 326.316,50.800 325.994,50.800 327.029 M348.689 327.205 C 348.310 327.647,348.000 328.187,348.000 328.405 C 348.000 328.622,347.820 328.800,347.600 328.800 C 347.380 328.800,347.200 329.070,347.200 329.400 C 347.200 329.730,347.470 330.000,347.800 330.000 C 348.130 330.000,348.400 329.807,348.400 329.571 C 348.400 329.336,348.657 328.886,348.971 328.571 C 349.286 328.257,349.736 328.000,349.971 328.000 C 350.207 328.000,350.400 327.640,350.400 327.200 C 350.400 326.172,349.571 326.175,348.689 327.205 M69.200 345.629 C 69.200 346.182,70.218 347.200,70.771 347.200 C 71.007 347.200,71.200 347.470,71.200 347.800 C 71.200 348.133,71.556 348.400,72.000 348.400 C 73.193 348.400,72.966 347.343,71.600 346.536 C 70.940 346.146,70.400 345.686,70.400 345.514 C 70.400 345.341,70.130 345.200,69.800 345.200 C 69.470 345.200,69.200 345.393,69.200 345.629 M330.800 345.600 C 330.800 345.820,330.615 346.000,330.389 346.000 C 329.879 346.000,327.200 348.406,327.200 348.864 C 327.200 349.049,327.560 349.200,328.000 349.200 C 328.440 349.200,328.800 349.020,328.800 348.800 C 328.800 348.580,329.070 348.400,329.400 348.400 C 329.730 348.400,330.000 348.207,330.000 347.971 C 330.000 347.736,330.257 347.286,330.571 346.971 C 330.886 346.657,331.336 346.400,331.571 346.400 C 331.807 346.400,332.000 346.130,332.000 345.800 C 332.000 345.470,331.730 345.200,331.400 345.200 C 331.070 345.200,330.800 345.380,330.800 345.600 M76.400 351.595 C 76.400 352.204,77.715 353.600,78.289 353.600 C 78.570 353.600,78.800 353.240,78.800 352.800 C 78.800 352.356,78.533 352.000,78.200 352.000 C 77.870 352.000,77.600 351.820,77.600 351.600 C 77.600 351.380,77.330 351.200,77.000 351.200 C 76.670 351.200,76.400 351.378,76.400 351.595 M323.100 351.757 C 322.243 352.407,322.178 353.600,323.000 353.600 C 323.330 353.600,323.600 353.330,323.600 353.000 C 323.600 352.670,323.870 352.400,324.200 352.400 C 324.530 352.400,324.800 352.130,324.800 351.800 C 324.800 351.064,324.038 351.045,323.100 351.757 M80.400 354.829 C 80.400 355.382,81.418 356.400,81.971 356.400 C 82.207 356.400,82.400 356.670,82.400 357.000 C 82.400 357.333,82.756 357.600,83.200 357.600 C 83.640 357.600,84.000 357.370,84.000 357.089 C 84.000 356.515,82.604 355.200,81.995 355.200 C 81.778 355.200,81.600 355.020,81.600 354.800 C 81.600 354.580,81.330 354.400,81.000 354.400 C 80.670 354.400,80.400 354.593,80.400 354.829 M319.600 354.800 C 319.600 355.020,319.330 355.200,319.000 355.200 C 318.670 355.200,318.400 355.359,318.400 355.553 C 318.400 355.748,318.040 356.001,317.600 356.116 C 317.160 356.231,316.800 356.586,316.800 356.905 C 316.800 357.223,316.216 357.652,315.503 357.856 C 314.007 358.285,313.455 359.600,314.771 359.600 C 315.241 359.600,315.600 359.340,315.600 359.000 C 315.600 358.670,315.870 358.400,316.200 358.400 C 316.530 358.400,316.800 358.220,316.800 358.000 C 316.800 357.780,317.250 357.600,317.800 357.600 C 318.350 357.600,318.800 357.407,318.800 357.171 C 318.800 356.936,319.057 356.486,319.371 356.171 C 319.686 355.857,320.136 355.600,320.371 355.600 C 320.607 355.600,320.800 355.330,320.800 355.000 C 320.800 354.670,320.530 354.400,320.200 354.400 C 319.870 354.400,319.600 354.580,319.600 354.800 M84.667 357.467 C 84.206 357.927,84.375 358.400,85.000 358.400 C 85.330 358.400,85.600 358.670,85.600 359.000 C 85.600 359.330,85.870 359.600,86.200 359.600 C 87.051 359.600,86.943 358.700,85.995 357.889 C 85.089 357.113,85.037 357.096,84.667 357.467 M88.400 361.000 C 88.400 361.333,88.756 361.600,89.200 361.600 C 89.644 361.600,90.000 361.333,90.000 361.000 C 90.000 360.667,89.644 360.400,89.200 360.400 C 88.756 360.400,88.400 360.667,88.400 361.000 M311.200 361.000 C 311.200 361.330,311.470 361.600,311.800 361.600 C 312.130 361.600,312.400 361.330,312.400 361.000 C 312.400 360.670,312.130 360.400,311.800 360.400 C 311.470 360.400,311.200 360.670,311.200 361.000 M91.600 363.000 C 91.600 363.330,91.870 363.600,92.200 363.600 C 92.530 363.600,92.800 363.330,92.800 363.000 C 92.800 362.670,92.530 362.400,92.200 362.400 C 91.870 362.400,91.600 362.670,91.600 363.000 M308.000 363.000 C 308.000 363.333,308.356 363.600,308.800 363.600 C 309.244 363.600,309.600 363.333,309.600 363.000 C 309.600 362.667,309.244 362.400,308.800 362.400 C 308.356 362.400,308.000 362.667,308.000 363.000 M94.800 365.000 C 94.800 365.330,95.070 365.600,95.400 365.600 C 95.730 365.600,96.000 365.330,96.000 365.000 C 96.000 364.670,95.730 364.400,95.400 364.400 C 95.070 364.400,94.800 364.670,94.800 365.000 M305.078 364.656 C 304.704 365.029,305.155 365.600,305.824 365.600 C 306.141 365.600,306.400 365.330,306.400 365.000 C 306.400 364.398,305.556 364.178,305.078 364.656 M97.340 366.876 C 97.589 367.274,98.199 367.600,98.696 367.600 C 99.233 367.600,99.600 367.844,99.600 368.200 C 99.600 368.533,99.956 368.800,100.400 368.800 C 100.844 368.800,101.200 368.533,101.200 368.200 C 101.200 367.870,100.859 367.600,100.443 367.600 C 100.026 367.600,99.591 367.353,99.475 367.050 C 99.358 366.748,98.729 366.422,98.076 366.326 C 97.013 366.170,96.935 366.228,97.340 366.876 M301.600 367.000 C 301.600 367.333,301.956 367.600,302.400 367.600 C 302.844 367.600,303.200 367.333,303.200 367.000 C 303.200 366.667,302.844 366.400,302.400 366.400 C 301.956 366.400,301.600 366.667,301.600 367.000 M300.000 368.200 C 300.000 368.530,300.270 368.800,300.600 368.800 C 300.930 368.800,301.200 368.530,301.200 368.200 C 301.200 367.870,300.930 367.600,300.600 367.600 C 300.270 367.600,300.000 367.870,300.000 368.200 M298.000 369.200 C 298.000 369.420,298.270 369.600,298.600 369.600 C 298.930 369.600,299.200 369.420,299.200 369.200 C 299.200 368.980,298.930 368.800,298.600 368.800 C 298.270 368.800,298.000 368.980,298.000 369.200 M104.800 371.200 C 104.800 371.733,105.067 372.000,105.600 372.000 C 106.133 372.000,106.400 371.733,106.400 371.200 C 106.400 370.667,106.133 370.400,105.600 370.400 C 105.067 370.400,104.800 370.667,104.800 371.200 M294.684 371.200 C 294.529 371.793,294.672 372.000,295.237 372.000 C 295.733 372.000,296.000 371.720,296.000 371.200 C 296.000 370.760,295.751 370.400,295.447 370.400 C 295.142 370.400,294.799 370.760,294.684 371.200 M106.800 372.200 C 106.800 372.533,107.156 372.800,107.600 372.800 C 108.044 372.800,108.400 372.533,108.400 372.200 C 108.400 371.867,108.044 371.600,107.600 371.600 C 107.156 371.600,106.800 371.867,106.800 372.200 M292.800 372.200 C 292.800 372.530,293.070 372.800,293.400 372.800 C 293.730 372.800,294.000 372.530,294.000 372.200 C 294.000 371.870,293.730 371.600,293.400 371.600 C 293.070 371.600,292.800 371.870,292.800 372.200 M109.300 372.687 C 108.493 372.977,108.727 374.000,109.600 374.000 C 110.040 374.000,110.400 373.741,110.400 373.424 C 110.400 372.728,109.977 372.445,109.300 372.687 M290.800 373.213 C 290.800 373.646,291.070 374.000,291.400 374.000 C 291.730 374.000,292.000 373.749,292.000 373.443 C 292.000 373.136,291.730 372.782,291.400 372.655 C 290.992 372.499,290.800 372.677,290.800 373.213 M111.200 374.200 C 111.200 374.530,111.470 374.800,111.800 374.800 C 112.130 374.800,112.400 374.530,112.400 374.200 C 112.400 373.870,112.130 373.600,111.800 373.600 C 111.470 373.600,111.200 373.870,111.200 374.200 M288.800 374.167 C 288.800 374.515,289.085 374.800,289.433 374.800 C 290.140 374.800,290.017 373.939,289.275 373.692 C 289.014 373.605,288.800 373.818,288.800 374.167 M113.200 375.400 C 113.200 375.730,113.470 376.000,113.800 376.000 C 114.130 376.000,114.400 375.730,114.400 375.400 C 114.400 375.070,114.130 374.800,113.800 374.800 C 113.470 374.800,113.200 375.070,113.200 375.400 M286.800 375.400 C 286.800 375.730,287.070 376.000,287.400 376.000 C 287.730 376.000,288.000 375.730,288.000 375.400 C 288.000 375.070,287.730 374.800,287.400 374.800 C 287.070 374.800,286.800 375.070,286.800 375.400 M115.200 376.200 C 115.200 376.530,115.470 376.800,115.800 376.800 C 116.130 376.800,116.400 376.530,116.400 376.200 C 116.400 375.870,116.130 375.600,115.800 375.600 C 115.470 375.600,115.200 375.870,115.200 376.200 M284.675 375.858 C 284.153 376.380,284.402 376.800,285.233 376.800 C 285.699 376.800,285.997 376.590,285.908 376.325 C 285.713 375.740,285.046 375.488,284.675 375.858 M117.200 377.400 C 117.200 377.733,117.556 378.000,118.000 378.000 C 118.444 378.000,118.800 377.733,118.800 377.400 C 118.800 377.067,118.444 376.800,118.000 376.800 C 117.556 376.800,117.200 377.067,117.200 377.400 M282.400 377.400 C 282.400 377.733,282.756 378.000,283.200 378.000 C 283.644 378.000,284.000 377.733,284.000 377.400 C 284.000 377.067,283.644 376.800,283.200 376.800 C 282.756 376.800,282.400 377.067,282.400 377.400 M119.475 377.858 C 118.953 378.380,119.202 378.800,120.033 378.800 C 120.499 378.800,120.797 378.590,120.708 378.325 C 120.513 377.740,119.846 377.488,119.475 377.858 M280.280 377.853 C 279.718 378.415,280.024 378.800,281.033 378.800 C 281.682 378.800,282.005 378.614,281.900 378.300 C 281.708 377.722,280.692 377.441,280.280 377.853 M277.600 379.400 C 277.600 379.730,277.870 380.000,278.200 380.000 C 278.530 380.000,278.800 379.730,278.800 379.400 C 278.800 379.070,278.530 378.800,278.200 378.800 C 277.870 378.800,277.600 379.070,277.600 379.400 M124.400 380.600 C 124.400 380.930,124.670 381.200,125.000 381.200 C 125.330 381.200,125.600 380.930,125.600 380.600 C 125.600 380.270,125.330 380.000,125.000 380.000 C 124.670 380.000,124.400 380.270,124.400 380.600 M275.600 380.600 C 275.600 380.930,275.870 381.200,276.200 381.200 C 276.530 381.200,276.800 380.930,276.800 380.600 C 276.800 380.270,276.530 380.000,276.200 380.000 C 275.870 380.000,275.600 380.270,275.600 380.600 M126.400 381.400 C 126.400 381.733,126.756 382.000,127.200 382.000 C 127.644 382.000,128.000 381.733,128.000 381.400 C 128.000 381.067,127.644 380.800,127.200 380.800 C 126.756 380.800,126.400 381.067,126.400 381.400 M272.800 381.400 C 272.800 381.773,273.178 382.000,273.800 382.000 C 274.422 382.000,274.800 381.773,274.800 381.400 C 274.800 381.027,274.422 380.800,273.800 380.800 C 273.178 380.800,272.800 381.027,272.800 381.400 M129.839 381.894 C 129.390 382.343,129.599 383.200,130.157 383.200 C 130.913 383.200,131.282 382.117,130.614 381.861 C 130.319 381.748,129.971 381.763,129.839 381.894 M270.239 381.894 C 269.712 382.421,270.047 383.200,270.800 383.200 C 271.240 383.200,271.600 382.949,271.600 382.643 C 271.600 382.039,270.628 381.505,270.239 381.894 M134.900 383.892 C 133.983 384.212,134.361 385.200,135.400 385.200 C 135.988 385.200,136.400 384.970,136.400 384.643 C 136.400 384.010,135.645 383.633,134.900 383.892 M264.800 384.600 C 264.800 384.933,265.156 385.200,265.600 385.200 C 266.044 385.200,266.400 384.933,266.400 384.600 C 266.400 384.267,266.044 384.000,265.600 384.000 C 265.156 384.000,264.800 384.267,264.800 384.600 M137.600 385.400 C 137.600 385.773,137.978 386.000,138.600 386.000 C 139.222 386.000,139.600 385.773,139.600 385.400 C 139.600 385.027,139.222 384.800,138.600 384.800 C 137.978 384.800,137.600 385.027,137.600 385.400 M261.600 385.372 C 261.600 385.781,261.961 386.000,262.633 386.000 C 263.886 386.000,263.749 385.061,262.469 384.872 C 261.892 384.787,261.600 384.955,261.600 385.372 M258.900 385.892 C 257.983 386.212,258.361 387.200,259.400 387.200 C 259.988 387.200,260.400 386.970,260.400 386.643 C 260.400 386.010,259.645 385.633,258.900 385.892 M140.800 386.600 C 140.800 386.933,141.156 387.200,141.600 387.200 C 142.044 387.200,142.400 386.933,142.400 386.600 C 142.400 386.267,142.044 386.000,141.600 386.000 C 141.156 386.000,140.800 386.267,140.800 386.600 M143.884 387.050 C 143.289 387.644,143.645 388.000,144.833 388.000 C 145.641 388.000,146.010 387.827,145.902 387.500 C 145.715 386.933,144.313 386.620,143.884 387.050 M255.300 387.065 C 254.372 387.439,254.792 388.000,256.000 388.000 C 256.800 388.000,257.200 387.800,257.200 387.400 C 257.200 386.815,256.308 386.658,255.300 387.065 M148.000 388.600 C 148.000 388.973,148.378 389.200,149.000 389.200 C 149.622 389.200,150.000 388.973,150.000 388.600 C 150.000 388.227,149.622 388.000,149.000 388.000 C 148.378 388.000,148.000 388.227,148.000 388.600 M251.200 388.600 C 251.200 388.973,251.578 389.200,252.200 389.200 C 252.822 389.200,253.200 388.973,253.200 388.600 C 253.200 388.227,252.822 388.000,252.200 388.000 C 251.578 388.000,251.200 388.227,251.200 388.600 M152.275 389.058 C 151.709 389.625,152.029 390.400,152.829 390.400 C 153.389 390.400,153.617 390.183,153.529 389.733 C 153.387 388.997,152.704 388.630,152.275 389.058 M247.600 389.800 C 247.600 390.133,247.956 390.400,248.400 390.400 C 248.844 390.400,249.200 390.133,249.200 389.800 C 249.200 389.467,248.844 389.200,248.400 389.200 C 247.956 389.200,247.600 389.467,247.600 389.800 M243.900 389.914 C 242.106 390.141,242.518 391.200,244.400 391.200 C 245.501 391.200,246.000 391.026,246.000 390.643 C 246.000 389.959,245.346 389.732,243.900 389.914 M155.067 390.267 C 154.448 390.885,154.899 391.200,156.400 391.200 C 157.556 391.200,158.000 391.033,158.000 390.600 C 158.000 389.984,155.620 389.714,155.067 390.267 M161.467 391.067 C 160.803 391.730,161.272 392.400,162.400 392.400 C 163.159 392.400,163.600 392.195,163.600 391.843 C 163.600 391.051,162.048 390.486,161.467 391.067 M238.300 391.103 C 237.087 391.373,237.484 392.400,238.800 392.400 C 239.559 392.400,240.000 392.195,240.000 391.843 C 240.000 391.192,239.291 390.883,238.300 391.103 M166.400 392.573 C 166.400 393.007,166.780 393.200,167.633 393.200 C 169.164 393.200,169.026 392.258,167.469 392.073 C 166.711 391.984,166.400 392.129,166.400 392.573 M232.684 392.250 C 232.089 392.844,232.445 393.200,233.633 393.200 C 234.441 393.200,234.810 393.027,234.702 392.700 C 234.515 392.133,233.113 391.820,232.684 392.250 M171.700 393.050 C 170.260 393.674,171.282 394.400,173.600 394.400 C 175.467 394.400,176.000 394.267,176.000 393.800 C 176.000 393.470,175.663 393.200,175.250 393.200 C 174.838 393.200,173.983 393.118,173.350 393.017 C 172.718 392.916,171.975 392.931,171.700 393.050 M226.300 393.078 C 224.169 393.417,225.009 394.400,227.429 394.400 C 229.336 394.400,229.639 394.299,229.526 393.700 C 229.388 392.971,228.298 392.761,226.300 393.078 M182.800 394.600 C 182.800 395.061,183.311 395.200,185.000 395.200 C 187.236 395.200,187.935 394.690,186.300 394.252 C 184.573 393.789,182.800 393.966,182.800 394.600 M214.500 394.255 C 213.331 394.749,214.158 395.200,216.233 395.200 C 217.841 395.200,218.421 395.060,218.302 394.700 C 218.135 394.191,215.408 393.872,214.500 394.255 " stroke="none" fill="#f9f9f9" fill-rule="evenodd" />
        <path id="path1" d="M186.900 2.100 C 186.977 2.487,185.710 2.566,181.300 2.450 C 176.405 2.321,175.600 2.385,175.600 2.906 C 175.600 3.757,173.940 4.078,171.166 3.764 C 169.137 3.535,168.800 3.589,168.800 4.148 C 168.800 4.688,168.324 4.800,166.043 4.800 C 164.038 4.800,163.226 4.954,163.069 5.364 C 162.902 5.800,162.297 5.879,160.426 5.709 C 158.355 5.521,158.000 5.585,158.000 6.144 C 158.000 6.820,157.259 6.987,154.953 6.833 C 154.161 6.780,153.622 6.965,153.478 7.340 C 153.309 7.781,152.838 7.875,151.626 7.713 C 150.300 7.535,150.000 7.615,150.000 8.147 C 150.000 8.870,149.692 8.953,147.500 8.822 C 146.320 8.750,146.000 8.876,146.000 9.411 C 146.000 9.987,145.733 10.051,144.251 9.829 C 142.711 9.598,142.477 9.664,142.289 10.381 C 142.113 11.054,141.861 11.152,140.838 10.948 C 139.831 10.746,139.600 10.831,139.600 11.401 C 139.600 11.992,139.355 12.063,138.046 11.854 C 136.726 11.643,136.461 11.722,136.288 12.384 C 136.118 13.034,135.846 13.125,134.642 12.929 C 133.480 12.741,133.200 12.822,133.200 13.348 C 133.200 13.806,132.843 14.000,132.000 14.000 C 131.223 14.000,130.800 14.203,130.800 14.575 C 130.800 15.008,130.456 15.094,129.400 14.923 C 128.279 14.741,128.000 14.826,128.000 15.348 C 128.000 15.806,127.643 16.000,126.800 16.000 C 126.009 16.000,125.600 16.201,125.600 16.590 C 125.600 17.032,125.299 17.120,124.400 16.940 C 123.461 16.752,123.200 16.841,123.200 17.350 C 123.200 17.806,122.841 18.000,122.000 18.000 C 121.159 18.000,120.800 18.194,120.800 18.650 C 120.800 19.159,120.539 19.248,119.600 19.060 C 118.701 18.880,118.400 18.968,118.400 19.410 C 118.400 19.773,118.015 20.000,117.400 20.000 C 116.748 20.000,116.400 20.224,116.400 20.643 C 116.400 21.130,116.156 21.226,115.400 21.036 C 114.662 20.851,114.400 20.944,114.400 21.392 C 114.400 21.774,114.028 22.000,113.400 22.000 C 112.778 22.000,112.400 22.227,112.400 22.600 C 112.400 22.973,112.022 23.200,111.400 23.200 C 110.748 23.200,110.400 23.424,110.400 23.843 C 110.400 24.330,110.156 24.426,109.400 24.236 C 108.662 24.051,108.400 24.144,108.400 24.592 C 108.400 24.974,108.028 25.200,107.400 25.200 C 106.778 25.200,106.400 25.427,106.400 25.800 C 106.400 26.130,106.059 26.400,105.643 26.400 C 105.226 26.400,104.774 26.690,104.639 27.044 C 104.446 27.546,104.075 27.628,102.956 27.418 C 101.985 27.236,101.606 27.286,101.784 27.574 C 101.929 27.809,101.772 28.000,101.436 28.000 C 101.057 28.000,100.913 28.228,101.055 28.600 C 101.222 29.034,101.011 29.200,100.289 29.200 C 99.615 29.200,99.223 29.470,99.075 30.036 C 98.909 30.669,98.655 30.808,98.027 30.609 C 97.183 30.341,96.000 31.136,96.000 31.971 C 96.000 32.207,95.537 32.400,94.971 32.400 C 93.917 32.400,92.800 33.208,92.800 33.971 C 92.800 34.207,92.278 34.400,91.639 34.400 C 90.703 34.400,90.395 34.638,90.049 35.630 C 89.706 36.616,89.459 36.809,88.809 36.603 C 87.900 36.314,86.800 37.173,86.800 38.171 C 86.800 38.517,86.530 38.800,86.200 38.800 C 85.870 38.800,85.600 39.001,85.600 39.247 C 85.600 39.496,85.247 39.601,84.800 39.484 C 84.207 39.329,84.000 39.472,84.000 40.037 C 84.000 40.457,83.730 40.800,83.400 40.800 C 83.070 40.800,82.800 40.980,82.800 41.200 C 82.800 41.420,82.530 41.600,82.200 41.600 C 81.870 41.600,81.600 41.780,81.600 42.000 C 81.600 42.220,81.146 42.400,80.591 42.400 C 79.875 42.400,79.442 42.719,79.098 43.500 C 78.518 44.813,77.245 45.828,76.365 45.679 C 75.624 45.554,72.232 48.604,72.546 49.113 C 72.772 49.478,71.434 50.800,70.838 50.800 C 70.644 50.800,70.375 51.089,70.239 51.442 C 70.094 51.820,69.740 51.986,69.374 51.845 C 69.003 51.703,68.385 52.007,67.831 52.604 C 67.324 53.152,66.704 53.600,66.454 53.600 C 66.204 53.600,66.000 53.870,66.000 54.200 C 66.000 54.530,65.807 54.800,65.571 54.800 C 65.018 54.800,64.000 55.818,64.000 56.371 C 64.000 56.607,63.807 56.800,63.571 56.800 C 63.018 56.800,62.000 57.818,62.000 58.371 C 62.000 58.607,61.730 58.800,61.400 58.800 C 61.070 58.800,60.800 58.993,60.800 59.229 C 60.800 59.782,59.782 60.800,59.229 60.800 C 58.993 60.800,58.800 60.993,58.800 61.229 C 58.800 61.782,57.782 62.800,57.229 62.800 C 56.993 62.800,56.800 63.070,56.800 63.400 C 56.800 63.730,56.607 64.000,56.371 64.000 C 55.818 64.000,54.800 65.018,54.800 65.571 C 54.800 65.807,54.542 66.000,54.226 66.000 C 53.836 66.000,53.710 66.313,53.830 66.978 C 53.930 67.528,53.778 68.097,53.484 68.278 C 53.196 68.455,52.549 69.189,52.047 69.909 C 51.544 70.628,50.505 71.479,49.738 71.800 C 48.970 72.121,48.456 72.567,48.595 72.792 C 48.734 73.016,48.547 73.200,48.180 73.200 C 47.690 73.200,47.571 73.439,47.732 74.100 C 47.993 75.173,47.076 76.388,45.456 77.111 C 44.594 77.497,44.365 77.822,44.525 78.436 C 44.654 78.929,44.514 79.335,44.169 79.467 C 43.856 79.587,43.600 79.936,43.600 80.243 C 43.600 80.549,43.420 80.800,43.200 80.800 C 42.980 80.800,42.800 81.070,42.800 81.400 C 42.800 81.730,42.530 82.000,42.200 82.000 C 41.867 82.000,41.600 82.356,41.600 82.800 C 41.600 83.240,41.420 83.600,41.200 83.600 C 40.980 83.600,40.800 83.870,40.800 84.200 C 40.800 84.530,40.517 84.800,40.171 84.800 C 39.219 84.800,38.387 85.831,38.500 86.872 C 38.563 87.460,38.409 87.761,38.079 87.693 C 37.282 87.529,36.400 88.622,36.400 89.771 C 36.400 90.337,36.207 90.800,35.971 90.800 C 35.208 90.800,34.400 91.917,34.400 92.971 C 34.400 93.537,34.207 94.000,33.971 94.000 C 33.136 94.000,32.341 95.183,32.609 96.027 C 32.808 96.655,32.669 96.909,32.036 97.075 C 31.561 97.199,31.200 97.619,31.200 98.047 C 31.200 98.461,30.995 98.800,30.744 98.800 C 29.942 98.800,29.254 100.161,29.481 101.300 C 29.661 102.204,29.559 102.400,28.905 102.400 C 28.274 102.400,28.150 102.605,28.302 103.400 C 28.442 104.133,28.321 104.400,27.847 104.400 C 27.424 104.400,27.200 104.746,27.200 105.400 C 27.200 106.028,26.974 106.400,26.592 106.400 C 26.144 106.400,26.051 106.662,26.236 107.400 C 26.426 108.156,26.330 108.400,25.843 108.400 C 25.424 108.400,25.200 108.748,25.200 109.400 C 25.200 110.022,24.973 110.400,24.600 110.400 C 24.227 110.400,24.000 110.778,24.000 111.400 C 24.000 111.950,23.820 112.400,23.600 112.400 C 23.380 112.400,23.200 112.850,23.200 113.400 C 23.200 114.054,22.976 114.400,22.553 114.400 C 22.092 114.400,21.970 114.642,22.127 115.244 C 22.286 115.849,22.134 116.144,21.592 116.286 C 20.996 116.442,20.886 116.728,21.068 117.642 C 21.248 118.539,21.154 118.800,20.650 118.800 C 20.194 118.800,20.000 119.159,20.000 120.000 C 20.000 120.838,19.805 121.200,19.353 121.200 C 18.874 121.200,18.758 121.467,18.904 122.232 C 19.029 122.887,18.900 123.340,18.551 123.474 C 18.248 123.591,18.000 124.206,18.000 124.843 C 18.000 125.640,17.800 126.000,17.355 126.000 C 16.836 126.000,16.762 126.271,16.974 127.400 C 17.188 128.541,17.114 128.800,16.575 128.800 C 16.063 128.800,15.972 129.034,16.173 129.833 C 16.382 130.667,16.268 130.909,15.582 131.089 C 14.857 131.278,14.769 131.510,14.985 132.661 C 15.175 133.676,15.085 134.069,14.619 134.248 C 14.207 134.406,14.000 135.006,14.000 136.043 C 14.000 137.214,13.839 137.600,13.350 137.600 C 12.837 137.600,12.752 137.860,12.948 138.838 C 13.150 139.849,13.051 140.114,12.411 140.281 C 11.733 140.459,11.660 140.723,11.868 142.243 C 12.072 143.732,12.004 144.000,11.420 144.000 C 10.875 144.000,10.750 144.312,10.822 145.500 C 10.953 147.691,10.870 148.000,10.149 148.000 C 9.615 148.000,9.543 148.284,9.750 149.579 C 9.947 150.812,9.858 151.240,9.341 151.529 C 8.859 151.799,8.744 152.222,8.918 153.090 C 9.233 154.663,8.855 156.000,8.096 156.000 C 7.589 156.000,7.529 156.407,7.738 158.414 C 7.940 160.348,7.872 160.874,7.395 161.057 C 6.954 161.226,6.800 161.948,6.800 163.843 C 6.800 165.923,6.680 166.400,6.158 166.400 C 5.600 166.400,5.553 166.809,5.794 169.536 C 6.024 172.125,5.961 172.782,5.436 173.307 C 4.917 173.826,4.800 174.943,4.800 179.371 C 4.800 183.930,4.704 184.800,4.200 184.800 C 3.678 184.800,3.600 186.578,3.600 198.400 C 3.600 210.222,3.678 212.000,4.200 212.000 C 4.705 212.000,4.800 212.885,4.800 217.567 C 4.800 221.663,4.932 223.178,5.300 223.302 C 5.658 223.423,5.774 224.452,5.707 226.936 C 5.631 229.772,5.722 230.400,6.207 230.400 C 6.669 230.400,6.800 230.964,6.800 232.957 C 6.800 234.852,6.954 235.574,7.395 235.743 C 7.872 235.926,7.940 236.452,7.738 238.386 C 7.528 240.399,7.588 240.800,8.100 240.800 C 8.864 240.800,9.275 242.326,8.949 243.955 C 8.764 244.878,8.865 245.250,9.349 245.436 C 9.853 245.629,9.942 246.021,9.753 247.204 C 9.548 248.483,9.644 248.795,10.357 249.177 C 11.079 249.563,11.167 249.865,10.951 251.215 C 10.736 252.558,10.805 252.800,11.403 252.800 C 12.007 252.800,12.074 253.054,11.868 254.557 C 11.656 256.101,11.727 256.340,12.451 256.529 C 13.140 256.709,13.231 256.947,13.006 257.972 C 12.794 258.938,12.871 259.200,13.368 259.200 C 13.836 259.200,14.000 259.605,14.000 260.757 C 14.000 261.794,14.207 262.394,14.619 262.552 C 15.091 262.733,15.175 263.124,14.975 264.195 C 14.762 265.329,14.835 265.600,15.355 265.600 C 16.001 265.600,16.154 265.991,16.021 267.300 C 15.980 267.706,16.220 268.000,16.593 268.000 C 17.112 268.000,17.185 268.271,16.974 269.400 C 16.762 270.529,16.836 270.800,17.355 270.800 C 17.825 270.800,18.000 271.179,18.000 272.200 C 18.000 273.186,18.180 273.600,18.608 273.600 C 19.056 273.600,19.149 273.862,18.964 274.600 C 18.774 275.356,18.870 275.600,19.357 275.600 C 19.805 275.600,20.000 275.964,20.000 276.800 C 20.000 277.641,20.194 278.000,20.650 278.000 C 21.159 278.000,21.248 278.261,21.060 279.200 C 20.858 280.212,20.945 280.400,21.618 280.400 C 22.269 280.400,22.369 280.584,22.164 281.400 C 21.974 282.156,22.070 282.400,22.557 282.400 C 23.008 282.400,23.200 282.766,23.200 283.624 C 23.200 284.337,23.367 284.744,23.600 284.600 C 23.833 284.456,24.000 284.863,24.000 285.576 C 24.000 286.397,24.197 286.800,24.600 286.800 C 24.930 286.800,25.200 287.141,25.200 287.557 C 25.200 287.974,25.489 288.425,25.842 288.561 C 26.297 288.736,26.413 289.095,26.237 289.793 C 26.044 290.565,26.121 290.728,26.595 290.547 C 27.040 290.376,27.200 290.591,27.200 291.357 C 27.200 292.053,27.416 292.400,27.850 292.400 C 28.350 292.400,28.448 292.661,28.274 293.531 C 28.050 294.648,29.003 296.000,30.012 296.000 C 30.242 296.000,30.308 296.429,30.164 297.000 C 29.959 297.819,30.059 298.000,30.719 298.000 C 31.308 298.000,31.473 298.200,31.330 298.745 C 31.195 299.262,31.396 299.558,31.988 299.713 C 32.646 299.885,32.813 300.194,32.720 301.065 C 32.629 301.918,32.820 302.291,33.500 302.592 C 34.063 302.841,34.400 303.340,34.400 303.923 C 34.400 304.898,35.234 306.000,35.971 306.000 C 36.207 306.000,36.400 306.463,36.400 307.029 C 36.400 308.193,37.229 309.200,38.187 309.200 C 38.647 309.200,38.798 309.506,38.715 310.278 C 38.634 311.040,38.843 311.480,39.431 311.780 C 40.489 312.321,41.600 313.426,41.600 313.937 C 41.600 314.307,42.523 315.532,44.070 317.212 C 44.439 317.613,44.649 318.291,44.537 318.719 C 44.382 319.311,44.593 319.562,45.420 319.769 C 46.881 320.136,48.008 321.565,47.732 322.700 C 47.571 323.361,47.690 323.600,48.180 323.600 C 48.547 323.600,48.756 323.748,48.644 323.929 C 48.417 324.296,49.790 325.600,50.405 325.600 C 50.622 325.600,50.800 325.780,50.800 326.000 C 50.800 326.220,51.031 326.400,51.314 326.400 C 51.596 326.400,52.146 326.940,52.536 327.600 C 52.926 328.260,53.435 328.800,53.666 328.800 C 53.915 328.800,53.984 329.208,53.836 329.800 C 53.651 330.538,53.744 330.800,54.192 330.800 C 54.527 330.800,54.800 331.040,54.800 331.332 C 54.800 331.625,55.250 332.106,55.800 332.400 C 56.350 332.694,56.800 333.175,56.800 333.468 C 56.800 333.760,56.993 334.000,57.229 334.000 C 57.782 334.000,58.800 335.018,58.800 335.571 C 58.800 335.807,59.070 336.000,59.400 336.000 C 59.730 336.000,60.000 336.193,60.000 336.429 C 60.000 336.982,61.018 338.000,61.571 338.000 C 61.807 338.000,62.000 338.193,62.000 338.429 C 62.000 338.982,63.018 340.000,63.571 340.000 C 63.807 340.000,64.000 340.193,64.000 340.429 C 64.000 340.982,65.018 342.000,65.571 342.000 C 65.807 342.000,66.000 342.270,66.000 342.600 C 66.000 342.930,66.270 343.200,66.600 343.200 C 66.930 343.200,67.200 343.481,67.200 343.824 C 67.200 344.167,67.361 344.348,67.558 344.226 C 67.755 344.104,68.019 344.274,68.146 344.602 C 68.272 344.931,68.831 345.200,69.387 345.200 C 69.944 345.200,70.400 345.341,70.400 345.514 C 70.400 345.686,70.920 346.135,71.556 346.510 C 72.191 346.886,72.825 347.645,72.963 348.196 C 73.102 348.748,73.392 349.200,73.608 349.200 C 73.823 349.200,74.000 349.470,74.000 349.800 C 74.000 350.130,74.270 350.400,74.600 350.400 C 74.930 350.400,75.200 350.580,75.200 350.800 C 75.200 351.020,75.740 351.200,76.400 351.200 C 77.060 351.200,77.600 351.380,77.600 351.600 C 77.600 351.820,77.848 352.000,78.150 352.000 C 78.453 352.000,78.808 352.540,78.940 353.200 C 79.143 354.216,79.366 354.400,80.390 354.400 C 81.056 354.400,81.600 354.580,81.600 354.800 C 81.600 355.020,81.778 355.200,81.995 355.200 C 82.626 355.200,84.000 356.524,84.000 357.132 C 84.000 357.463,84.244 357.592,84.607 357.453 C 85.215 357.219,86.800 358.278,86.800 358.917 C 86.800 359.601,87.970 360.400,88.971 360.400 C 89.596 360.400,90.000 360.624,90.000 360.971 C 90.000 361.883,91.114 362.748,91.993 362.518 C 92.557 362.370,92.800 362.502,92.800 362.953 C 92.800 363.309,92.980 363.600,93.200 363.600 C 93.420 363.600,93.600 363.884,93.600 364.232 C 93.600 364.726,93.862 364.806,94.800 364.600 C 95.709 364.400,96.000 364.479,96.000 364.925 C 96.000 365.249,96.281 365.622,96.625 365.754 C 96.969 365.886,97.159 366.143,97.046 366.325 C 96.934 366.507,97.371 366.578,98.017 366.483 C 98.841 366.362,99.265 366.503,99.438 366.955 C 99.574 367.310,100.026 367.600,100.443 367.600 C 100.859 367.600,101.200 367.870,101.200 368.200 C 101.200 368.530,101.391 368.800,101.624 368.800 C 101.857 368.800,101.936 368.980,101.800 369.200 C 101.656 369.433,102.063 369.600,102.776 369.600 C 103.588 369.600,104.000 369.799,104.000 370.190 C 104.000 370.632,104.301 370.720,105.200 370.540 C 106.211 370.338,106.400 370.425,106.400 371.095 C 106.400 371.726,106.605 371.850,107.400 371.698 C 108.156 371.553,108.400 371.676,108.400 372.200 C 108.400 372.703,108.626 372.834,109.222 372.678 C 109.843 372.516,110.148 372.725,110.470 373.532 C 110.712 374.139,110.976 374.384,111.081 374.100 C 111.343 373.396,112.400 373.476,112.400 374.200 C 112.400 374.573,112.778 374.800,113.400 374.800 C 114.028 374.800,114.400 375.026,114.400 375.408 C 114.400 375.856,114.662 375.949,115.400 375.764 C 116.156 375.574,116.400 375.670,116.400 376.157 C 116.400 376.605,116.764 376.800,117.600 376.800 C 118.423 376.800,118.800 376.997,118.800 377.427 C 118.800 377.872,119.032 377.980,119.602 377.799 C 120.135 377.630,120.485 377.755,120.645 378.172 C 120.787 378.542,121.361 378.800,122.043 378.800 C 122.805 378.800,123.200 379.005,123.200 379.400 C 123.200 379.800,123.600 380.000,124.400 380.000 C 125.191 380.000,125.600 380.201,125.600 380.590 C 125.600 381.032,125.901 381.120,126.800 380.940 C 127.757 380.749,128.000 380.838,128.000 381.380 C 128.000 381.873,128.303 382.040,129.100 381.988 C 130.891 381.870,131.187 381.968,130.945 382.600 C 130.785 383.016,130.972 383.200,131.557 383.200 C 132.021 383.200,132.400 383.394,132.400 383.631 C 132.400 383.874,133.053 384.031,133.900 383.992 C 136.156 383.888,136.400 383.947,136.400 384.605 C 136.400 385.086,136.726 385.157,138.000 384.954 C 139.316 384.743,139.600 384.813,139.600 385.349 C 139.600 385.826,139.973 386.000,141.000 386.000 C 142.012 386.000,142.400 386.176,142.400 386.635 C 142.400 387.155,142.692 387.221,143.999 387.000 C 145.261 386.787,145.650 386.864,145.842 387.365 C 146.019 387.825,146.624 388.000,148.043 388.000 C 149.586 388.000,150.000 388.138,150.000 388.653 C 150.000 389.186,150.300 389.265,151.646 389.085 C 153.036 388.898,153.323 388.983,153.492 389.630 C 153.669 390.307,153.943 390.367,155.846 390.143 C 157.738 389.921,158.000 389.976,158.000 390.600 C 158.000 391.222,158.288 391.286,160.300 391.112 C 162.965 390.881,163.600 391.030,163.600 391.885 C 163.600 392.404,163.985 392.460,166.005 392.231 C 168.024 392.003,168.450 392.064,168.660 392.613 C 168.859 393.131,169.381 393.245,171.156 393.161 C 174.903 392.982,176.000 393.134,176.000 393.830 C 176.000 394.379,176.703 394.443,181.465 394.330 C 185.575 394.232,186.972 394.324,187.098 394.700 C 187.367 395.499,213.441 395.417,214.243 394.614 C 214.725 394.132,215.754 394.072,220.015 394.276 C 224.501 394.490,225.200 394.441,225.200 393.914 C 225.200 393.134,227.372 392.763,230.072 393.083 C 231.701 393.276,232.171 393.195,232.465 392.669 C 232.766 392.131,233.252 392.059,235.216 392.265 C 237.261 392.479,237.600 392.421,237.600 391.857 C 237.600 391.157,237.922 391.092,240.900 391.194 C 242.390 391.245,242.800 391.123,242.800 390.630 C 242.800 390.051,244.230 389.709,245.400 390.007 C 247.265 390.483,247.600 390.459,247.600 389.847 C 247.600 389.347,248.009 389.200,249.400 389.200 C 250.733 389.200,251.200 389.044,251.200 388.600 C 251.200 388.165,251.648 388.000,252.829 388.000 C 253.781 388.000,254.720 387.737,255.090 387.367 C 255.539 386.918,256.112 386.807,257.062 386.985 C 258.110 387.182,258.400 387.103,258.400 386.618 C 258.400 385.966,258.719 385.870,260.500 385.988 C 261.288 386.040,261.600 385.872,261.600 385.395 C 261.600 384.840,261.866 384.775,263.200 385.000 C 264.508 385.221,264.800 385.155,264.800 384.635 C 264.800 384.149,265.222 384.000,266.600 384.000 C 267.590 384.000,268.400 383.820,268.400 383.600 C 268.400 383.380,268.739 383.200,269.153 383.200 C 269.568 383.200,269.994 382.868,270.100 382.461 C 270.250 381.887,270.571 381.764,271.546 381.907 C 272.542 382.053,272.800 381.947,272.800 381.393 C 272.800 380.819,273.048 380.736,274.200 380.923 C 275.256 381.094,275.600 381.008,275.600 380.575 C 275.600 380.228,275.997 380.000,276.600 380.000 C 277.222 380.000,277.600 379.773,277.600 379.400 C 277.600 379.005,277.995 378.800,278.757 378.800 C 279.451 378.800,280.013 378.543,280.161 378.158 C 280.336 377.700,280.694 377.587,281.404 377.765 C 282.138 377.949,282.400 377.855,282.400 377.408 C 282.400 377.033,282.768 376.800,283.357 376.800 C 283.884 376.800,284.420 376.526,284.548 376.190 C 284.712 375.763,285.084 375.656,285.791 375.834 C 286.556 376.026,286.800 375.931,286.800 375.443 C 286.800 375.024,287.148 374.800,287.800 374.800 C 288.428 374.800,288.800 374.574,288.800 374.192 C 288.800 373.744,289.062 373.651,289.800 373.836 C 290.613 374.040,290.800 373.940,290.800 373.299 C 290.800 372.674,291.007 372.551,291.800 372.702 C 292.556 372.847,292.800 372.724,292.800 372.200 C 292.800 371.692,293.025 371.566,293.644 371.727 C 294.259 371.888,294.545 371.732,294.696 371.154 C 294.864 370.511,295.124 370.408,296.052 370.611 C 296.797 370.775,297.200 370.702,297.200 370.403 C 297.200 369.669,298.269 368.800,299.171 368.800 C 299.641 368.800,300.000 368.540,300.000 368.200 C 300.000 367.867,300.356 367.600,300.800 367.600 C 301.272 367.600,301.600 367.333,301.600 366.950 C 301.600 366.450,301.861 366.352,302.731 366.526 C 303.762 366.732,305.561 365.517,305.287 364.800 C 305.245 364.690,305.547 364.594,305.959 364.587 C 306.918 364.571,308.000 363.677,308.000 362.901 C 308.000 362.447,308.293 362.359,309.200 362.540 C 310.099 362.720,310.400 362.632,310.400 362.190 C 310.400 361.865,310.580 361.600,310.800 361.600 C 311.020 361.600,311.200 361.330,311.200 361.000 C 311.200 360.604,311.596 360.400,312.361 360.400 C 313.282 360.400,313.605 360.161,313.926 359.239 C 314.215 358.410,314.684 358.001,315.565 357.808 C 316.282 357.650,316.800 357.282,316.800 356.931 C 316.800 356.598,317.160 356.231,317.600 356.116 C 318.040 356.001,318.400 355.748,318.400 355.553 C 318.400 355.359,318.670 355.200,319.000 355.200 C 319.330 355.200,319.600 355.020,319.600 354.800 C 319.600 354.580,319.973 354.400,320.429 354.400 C 321.343 354.400,322.400 353.528,322.400 352.773 C 322.400 352.020,323.683 351.227,324.924 351.213 C 325.568 351.205,325.942 351.030,325.800 350.800 C 325.664 350.580,325.833 350.400,326.176 350.400 C 326.519 350.400,326.800 350.116,326.800 349.769 C 326.800 349.037,329.651 346.000,330.338 346.000 C 330.592 346.000,330.800 345.820,330.800 345.600 C 330.800 345.380,331.250 345.200,331.800 345.200 C 332.422 345.200,332.800 344.973,332.800 344.600 C 332.800 344.270,332.957 344.045,333.149 344.100 C 333.341 344.155,334.139 343.525,334.922 342.700 C 335.705 341.875,336.538 341.200,336.773 341.200 C 337.008 341.200,337.200 341.007,337.200 340.771 C 337.200 340.218,338.218 339.200,338.771 339.200 C 339.007 339.200,339.200 339.008,339.200 338.773 C 339.200 338.538,339.830 337.752,340.600 337.026 C 341.370 336.300,342.000 335.502,342.000 335.253 C 342.000 335.004,342.204 334.800,342.453 334.800 C 342.702 334.800,343.500 334.170,344.226 333.400 C 344.952 332.630,345.738 332.000,345.973 332.000 C 346.208 332.000,346.400 331.730,346.400 331.400 C 346.400 331.070,346.580 330.800,346.800 330.800 C 347.020 330.800,347.200 330.350,347.200 329.800 C 347.200 329.250,347.380 328.800,347.600 328.800 C 347.820 328.800,348.000 328.622,348.000 328.405 C 348.000 327.796,349.315 326.400,349.889 326.400 C 350.170 326.400,350.400 326.220,350.400 326.000 C 350.400 325.780,350.593 325.600,350.829 325.600 C 351.362 325.600,352.400 324.590,352.400 324.071 C 352.400 323.859,352.667 323.583,352.993 323.458 C 353.320 323.333,353.486 322.968,353.363 322.647 C 353.041 321.808,354.275 320.118,355.421 319.830 C 356.131 319.652,356.400 319.312,356.400 318.592 C 356.400 318.047,356.536 317.600,356.702 317.600 C 356.869 317.600,357.254 317.036,357.559 316.348 C 357.864 315.659,358.448 315.008,358.857 314.901 C 359.265 314.794,359.600 314.368,359.600 313.953 C 359.600 313.539,359.780 313.200,360.000 313.200 C 360.220 313.200,360.400 312.951,360.400 312.647 C 360.400 312.134,361.767 311.443,362.534 311.568 C 362.718 311.598,362.749 311.078,362.603 310.411 C 362.394 309.462,362.473 309.200,362.968 309.200 C 363.316 309.200,363.600 309.020,363.600 308.800 C 363.600 308.580,363.884 308.400,364.232 308.400 C 364.726 308.400,364.806 308.138,364.600 307.200 C 364.394 306.262,364.474 306.000,364.968 306.000 C 365.316 306.000,365.600 305.820,365.600 305.600 C 365.600 305.380,365.873 305.200,366.208 305.200 C 366.649 305.200,366.749 304.938,366.575 304.242 C 366.382 303.472,366.571 303.144,367.543 302.570 C 368.557 301.971,368.715 301.675,368.526 300.728 C 368.337 299.787,368.435 299.600,369.113 299.600 C 369.728 299.600,369.874 299.406,369.716 298.800 C 369.570 298.244,369.704 298.000,370.153 298.000 C 370.584 298.000,370.800 297.651,370.800 296.957 C 370.800 296.195,370.961 295.976,371.400 296.145 C 371.765 296.285,372.000 296.145,372.000 295.787 C 372.000 295.464,372.194 295.200,372.432 295.200 C 372.706 295.200,372.765 294.751,372.594 293.972 C 372.367 292.938,372.458 292.710,373.173 292.523 C 373.786 292.363,373.956 292.092,373.784 291.550 C 373.620 291.034,373.742 290.800,374.173 290.800 C 374.575 290.800,374.800 290.441,374.800 289.800 C 374.800 289.178,375.027 288.800,375.400 288.800 C 375.773 288.800,376.000 288.422,376.000 287.800 C 376.000 287.250,376.180 286.800,376.400 286.800 C 376.620 286.800,376.800 286.350,376.800 285.800 C 376.800 285.146,377.024 284.800,377.447 284.800 C 377.929 284.800,378.042 284.533,377.893 283.751 C 377.741 282.959,377.876 282.653,378.442 282.505 C 379.007 282.357,379.133 282.073,378.953 281.354 C 378.770 280.626,378.876 280.400,379.400 280.400 C 379.939 280.400,380.031 280.177,379.827 279.367 C 379.620 278.542,379.733 278.290,380.384 278.120 C 380.967 277.968,381.200 277.578,381.200 276.753 C 381.200 276.119,381.380 275.600,381.600 275.600 C 381.820 275.600,382.000 275.060,382.000 274.400 C 382.000 273.593,382.199 273.200,382.608 273.200 C 383.055 273.200,383.149 272.938,382.965 272.204 C 382.787 271.494,382.900 271.136,383.358 270.961 C 383.773 270.802,384.000 270.234,384.000 269.357 C 384.000 268.417,384.185 268.000,384.600 268.000 C 384.933 268.000,385.200 267.644,385.200 267.200 C 385.200 266.760,385.380 266.400,385.600 266.400 C 385.820 266.400,386.000 265.500,386.000 264.400 C 386.000 262.863,386.143 262.400,386.618 262.400 C 387.110 262.400,387.182 262.109,386.969 260.975 C 386.740 259.756,386.820 259.520,387.519 259.337 C 388.202 259.159,388.301 258.897,388.116 257.762 C 387.935 256.646,388.022 256.400,388.598 256.400 C 389.164 256.400,389.254 256.169,389.061 255.204 C 388.770 253.748,389.088 252.800,389.867 252.800 C 390.330 252.800,390.394 252.432,390.180 251.005 C 389.963 249.557,390.035 249.161,390.555 248.962 C 391.013 248.786,391.200 248.204,391.200 246.957 C 391.200 245.687,391.361 245.200,391.781 245.200 C 392.243 245.200,392.314 244.792,392.126 243.208 C 391.935 241.590,392.013 241.170,392.545 240.966 C 393.057 240.769,393.200 240.156,393.200 238.157 C 393.200 236.052,393.316 235.600,393.857 235.600 C 394.422 235.600,394.478 235.261,394.262 233.186 C 394.054 231.203,394.122 230.728,394.638 230.530 C 395.113 230.348,395.246 229.788,395.184 228.244 C 395.021 224.224,395.157 223.200,395.856 223.200 C 396.437 223.200,396.489 222.683,396.312 218.686 C 396.074 213.295,396.269 211.464,397.049 211.763 C 397.510 211.940,397.600 209.767,397.600 198.400 C 397.600 186.498,397.526 184.853,397.000 185.055 C 396.280 185.332,396.236 184.852,396.386 178.295 C 396.481 174.100,396.423 173.616,395.847 173.837 C 395.151 174.104,395.006 172.943,395.184 168.556 C 395.245 167.055,395.108 166.450,394.669 166.282 C 394.194 166.100,394.116 165.553,394.291 163.626 C 394.479 161.555,394.415 161.200,393.856 161.200 C 393.317 161.200,393.200 160.746,393.200 158.643 C 393.200 156.650,393.056 156.030,392.549 155.836 C 392.017 155.631,391.947 155.225,392.163 153.593 C 392.381 151.953,392.319 151.600,391.814 151.600 C 391.355 151.600,391.200 151.156,391.200 149.843 C 391.200 148.619,391.010 148.013,390.575 147.846 C 390.077 147.655,390.005 147.240,390.220 145.803 C 390.439 144.344,390.376 144.000,389.888 144.000 C 389.089 144.000,388.767 143.065,389.061 141.596 C 389.253 140.635,389.163 140.400,388.605 140.400 C 388.033 140.400,387.956 140.162,388.164 139.049 C 388.379 137.903,388.291 137.665,387.585 137.480 C 386.868 137.293,386.789 137.064,387.021 135.831 C 387.238 134.671,387.167 134.400,386.645 134.400 C 386.138 134.400,386.000 133.973,386.000 132.400 C 386.000 131.300,385.820 130.400,385.600 130.400 C 385.380 130.400,385.200 130.040,385.200 129.600 C 385.200 129.156,384.933 128.800,384.600 128.800 C 384.181 128.800,384.000 128.378,384.000 127.400 C 384.000 126.374,383.826 126.000,383.350 126.000 C 382.841 126.000,382.752 125.739,382.940 124.800 C 383.120 123.901,383.032 123.600,382.590 123.600 C 382.201 123.600,382.000 123.191,382.000 122.400 C 382.000 121.740,381.820 121.200,381.600 121.200 C 381.380 121.200,381.200 120.681,381.200 120.047 C 381.200 119.222,380.967 118.832,380.384 118.680 C 379.733 118.510,379.620 118.258,379.827 117.433 C 380.031 116.623,379.939 116.400,379.400 116.400 C 378.876 116.400,378.770 116.174,378.953 115.446 C 379.135 114.721,379.007 114.443,378.422 114.290 C 377.867 114.145,377.713 113.853,377.873 113.244 C 378.030 112.642,377.908 112.400,377.447 112.400 C 376.995 112.400,376.800 112.038,376.800 111.200 C 376.800 110.540,376.620 110.000,376.400 110.000 C 376.180 110.000,376.000 109.640,376.000 109.200 C 376.000 108.756,375.733 108.400,375.400 108.400 C 375.034 108.400,374.800 108.027,374.800 107.443 C 374.800 106.916,374.518 106.377,374.172 106.245 C 373.772 106.091,373.631 105.731,373.784 105.252 C 373.956 104.708,373.787 104.438,373.175 104.278 C 372.552 104.115,372.394 103.851,372.575 103.278 C 372.756 102.708,372.600 102.441,371.995 102.283 C 371.332 102.110,371.220 101.861,371.427 101.033 C 371.589 100.388,371.520 100.000,371.243 100.000 C 371.000 100.000,370.800 99.730,370.800 99.400 C 370.800 99.070,370.509 98.800,370.153 98.800 C 369.704 98.800,369.570 98.556,369.716 98.000 C 369.874 97.394,369.728 97.200,369.113 97.200 C 368.423 97.200,368.336 97.018,368.540 96.000 C 368.720 95.101,368.632 94.800,368.190 94.800 C 367.865 94.800,367.600 94.620,367.600 94.400 C 367.600 94.180,367.316 94.000,366.968 94.000 C 366.474 94.000,366.394 93.738,366.600 92.800 C 366.806 91.862,366.726 91.600,366.232 91.600 C 365.884 91.600,365.600 91.420,365.600 91.200 C 365.600 90.980,365.316 90.800,364.968 90.800 C 364.474 90.800,364.394 90.538,364.600 89.600 C 364.806 88.662,364.726 88.400,364.232 88.400 C 363.884 88.400,363.600 88.220,363.600 88.000 C 363.600 87.780,363.310 87.600,362.957 87.600 C 362.470 87.600,362.374 87.356,362.564 86.600 C 362.749 85.862,362.656 85.600,362.208 85.600 C 361.873 85.600,361.600 85.420,361.600 85.200 C 361.600 84.980,361.395 84.800,361.144 84.800 C 360.529 84.800,359.628 83.565,359.613 82.700 C 359.606 82.315,359.340 82.000,359.023 82.000 C 358.705 82.000,358.126 81.460,357.736 80.800 C 357.346 80.140,356.886 79.600,356.714 79.600 C 356.541 79.600,356.400 79.072,356.400 78.427 C 356.400 77.559,356.166 77.182,355.500 76.977 C 354.193 76.576,353.200 75.384,353.200 74.217 C 353.200 73.658,353.020 73.200,352.800 73.200 C 352.580 73.200,352.400 72.944,352.400 72.632 C 352.400 72.319,351.860 71.945,351.200 71.800 C 350.540 71.655,349.997 71.416,349.992 71.268 C 349.988 71.121,349.358 70.282,348.592 69.404 C 347.827 68.527,347.200 67.402,347.200 66.904 C 347.200 66.407,347.020 66.000,346.800 66.000 C 346.580 66.000,346.400 65.730,346.400 65.400 C 346.400 65.070,346.207 64.800,345.971 64.800 C 345.418 64.800,344.400 63.782,344.400 63.229 C 344.400 62.993,344.130 62.800,343.800 62.800 C 343.470 62.800,343.200 62.620,343.200 62.400 C 343.200 62.180,342.930 62.000,342.600 62.000 C 342.270 62.000,342.000 61.807,342.000 61.571 C 342.000 61.018,340.982 60.000,340.429 60.000 C 340.193 60.000,340.000 59.822,340.000 59.605 C 340.000 58.990,338.696 57.617,338.329 57.844 C 338.148 57.956,338.000 57.767,338.000 57.424 C 338.000 57.081,337.820 56.800,337.600 56.800 C 337.380 56.800,337.200 56.530,337.200 56.200 C 337.200 55.870,337.007 55.600,336.771 55.600 C 336.218 55.600,335.200 54.582,335.200 54.029 C 335.200 53.793,334.930 53.600,334.600 53.600 C 334.270 53.600,334.000 53.420,334.000 53.200 C 334.000 52.980,333.749 52.800,333.443 52.800 C 333.136 52.800,332.777 52.518,332.645 52.172 C 332.485 51.755,332.135 51.630,331.602 51.799 C 331.032 51.980,330.800 51.872,330.800 51.427 C 330.800 51.082,330.530 50.800,330.200 50.800 C 329.870 50.800,329.600 50.659,329.600 50.486 C 329.600 50.314,329.080 49.865,328.444 49.490 C 327.809 49.114,327.167 48.322,327.018 47.728 C 326.707 46.489,325.741 45.631,324.638 45.613 C 323.643 45.596,321.200 43.725,321.200 42.980 C 321.200 42.661,320.855 42.400,320.433 42.400 C 320.012 42.400,319.607 42.265,319.533 42.100 C 319.460 41.935,318.860 41.492,318.200 41.115 C 317.540 40.738,317.026 40.147,317.058 39.801 C 317.099 39.358,316.893 39.244,316.358 39.413 C 315.941 39.546,315.600 39.483,315.600 39.274 C 315.600 39.064,315.221 38.794,314.758 38.673 C 314.295 38.552,313.994 38.218,314.090 37.930 C 314.350 37.149,313.285 36.284,312.361 36.526 C 311.833 36.664,311.463 36.505,311.298 36.069 C 310.889 34.988,310.122 34.400,309.123 34.400 C 308.539 34.400,308.042 34.064,307.795 33.500 C 307.551 32.944,306.980 32.552,306.300 32.473 C 305.670 32.401,305.200 32.102,305.200 31.773 C 305.200 31.458,305.020 31.200,304.800 31.200 C 304.580 31.200,304.400 30.934,304.400 30.610 C 304.400 30.166,304.177 30.102,303.500 30.352 C 302.391 30.762,301.600 30.519,301.600 29.767 C 301.600 29.455,301.240 29.200,300.800 29.200 C 300.356 29.200,300.000 28.933,300.000 28.600 C 300.000 28.260,299.641 28.000,299.171 28.000 C 298.269 28.000,297.200 27.131,297.200 26.397 C 297.200 26.093,296.791 26.026,296.000 26.200 C 295.062 26.406,294.800 26.326,294.800 25.832 C 294.800 25.425,294.445 25.200,293.800 25.200 C 293.148 25.200,292.800 24.976,292.800 24.557 C 292.800 24.070,292.556 23.974,291.800 24.164 C 291.062 24.349,290.800 24.256,290.800 23.808 C 290.800 23.426,290.428 23.200,289.800 23.200 C 289.178 23.200,288.800 22.973,288.800 22.600 C 288.800 22.234,288.427 22.000,287.843 22.000 C 287.316 22.000,286.791 21.752,286.674 21.449 C 286.540 21.100,286.087 20.971,285.432 21.096 C 284.644 21.247,284.400 21.129,284.400 20.600 C 284.400 20.092,284.175 19.966,283.556 20.127 C 282.947 20.287,282.655 20.133,282.510 19.578 C 282.357 18.994,282.079 18.865,281.358 19.046 C 280.697 19.212,280.332 19.089,280.161 18.642 C 280.013 18.257,279.451 18.000,278.757 18.000 C 277.995 18.000,277.600 17.795,277.600 17.400 C 277.600 17.027,277.222 16.800,276.600 16.800 C 276.050 16.800,275.600 16.620,275.600 16.400 C 275.600 16.180,274.970 16.000,274.200 16.000 C 273.174 16.000,272.800 15.826,272.800 15.350 C 272.800 14.839,272.540 14.752,271.585 14.943 C 270.702 15.120,270.306 15.019,270.136 14.576 C 270.007 14.241,269.609 13.995,269.251 14.029 C 267.986 14.151,267.600 13.993,267.600 13.350 C 267.600 12.837,267.340 12.752,266.362 12.948 C 265.336 13.153,265.087 13.054,264.908 12.371 C 264.722 11.657,264.488 11.582,263.147 11.809 C 261.866 12.025,261.600 11.956,261.600 11.405 C 261.600 10.928,261.288 10.760,260.500 10.812 C 258.724 10.929,258.400 10.834,258.400 10.195 C 258.400 9.714,258.074 9.643,256.800 9.846 C 255.459 10.061,255.200 9.992,255.200 9.421 C 255.200 8.887,254.874 8.754,253.700 8.808 C 251.434 8.913,251.200 8.853,251.200 8.169 C 251.200 7.680,250.838 7.565,249.577 7.656 C 248.560 7.729,247.833 7.578,247.630 7.249 C 247.444 6.948,246.731 6.766,245.953 6.821 C 243.549 6.990,242.800 6.830,242.800 6.144 C 242.800 5.587,242.464 5.523,240.577 5.717 C 238.860 5.895,238.304 5.816,238.134 5.373 C 237.975 4.958,237.209 4.800,235.357 4.800 C 233.251 4.800,232.800 4.684,232.800 4.142 C 232.800 3.574,232.444 3.518,230.183 3.729 C 227.029 4.023,225.200 3.719,225.200 2.901 C 225.200 2.391,224.384 2.324,219.700 2.451 C 215.451 2.566,214.223 2.486,214.300 2.100 C 214.378 1.708,211.427 1.600,200.600 1.600 C 189.773 1.600,186.822 1.708,186.900 2.100 M175.901 198.503 L 176.002 272.006 151.501 271.903 L 127.000 271.800 126.897 198.800 C 126.841 158.650,126.881 125.574,126.986 125.297 C 127.137 124.899,132.252 124.815,151.489 124.897 L 175.800 125.000 175.901 198.503 M274.000 198.400 L 274.000 272.000 249.600 272.000 L 225.200 272.000 225.200 198.400 L 225.200 124.800 249.600 124.800 L 274.000 124.800 274.000 198.400 " stroke="none" fill="#040404" fill-rule="evenodd" />
    </g>
</svg>