<?xml version="1.0" encoding="UTF-8"?>
<svg xmlns="http://www.w3.org/2000/svg" xmlns:xlink="http://www.w3.org/1999/xlink" id="svg" version="1.1" width="400" height="396.9387755102041" viewBox="0, 0, 400,396.9387755102041">
    <g id="svgPlayMetrics">
        <path id="path0" d="M183.193 3.074 C 183.357 3.928,184.285 4.126,186.541 3.787 C 189.443 3.352,188.842 2.383,185.671 2.383 C 183.405 2.383,183.077 2.474,183.193 3.074 M213.704 2.955 C 213.704 4.176,218.559 4.290,218.793 3.074 C 218.909 2.474,218.581 2.383,216.315 2.383 C 214.308 2.383,213.704 2.516,213.704 2.955 M171.996 4.128 C 171.996 4.915,172.769 5.113,174.902 4.873 C 177.788 4.548,177.396 3.575,174.379 3.575 C 172.607 3.575,171.996 3.717,171.996 4.128 M225.223 4.115 C 225.223 4.667,228.962 5.355,229.650 4.930 C 230.817 4.209,229.861 3.575,227.607 3.575 C 225.861 3.575,225.223 3.720,225.223 4.115 M166.931 5.263 C 167.023 5.536,167.514 5.760,168.024 5.760 C 168.534 5.760,169.025 5.536,169.116 5.263 C 169.225 4.936,168.854 4.767,168.024 4.767 C 167.194 4.767,166.822 4.936,166.931 5.263 M232.870 5.263 C 232.961 5.536,233.452 5.760,233.962 5.760 C 234.472 5.760,234.964 5.536,235.055 5.263 C 235.164 4.936,234.792 4.767,233.962 4.767 C 233.133 4.767,232.761 4.936,232.870 5.263 M161.668 6.124 C 161.668 6.788,162.385 7.092,163.357 6.840 C 164.544 6.532,164.167 5.561,162.860 5.561 C 162.097 5.561,161.668 5.763,161.668 6.124 M237.934 6.111 C 237.934 6.702,239.012 7.126,239.821 6.854 C 240.839 6.511,240.328 5.561,239.126 5.561 C 238.376 5.561,237.934 5.765,237.934 6.111 M156.604 7.249 C 156.695 7.522,157.186 7.746,157.696 7.746 C 158.206 7.746,158.697 7.522,158.788 7.249 C 158.898 6.922,158.526 6.753,157.696 6.753 C 156.866 6.753,156.495 6.922,156.604 7.249 M243.198 7.249 C 243.289 7.522,243.780 7.746,244.290 7.746 C 244.800 7.746,245.291 7.522,245.382 7.249 C 245.492 6.922,245.120 6.753,244.290 6.753 C 243.460 6.753,243.088 6.922,243.198 7.249 M152.532 8.101 C 152.532 9.017,153.673 9.179,154.129 8.327 C 154.493 7.647,154.417 7.547,153.539 7.547 C 152.943 7.547,152.532 7.773,152.532 8.101 M247.865 8.077 C 247.865 8.824,248.247 9.117,248.897 8.868 C 249.742 8.543,249.563 7.547,248.659 7.547 C 248.222 7.547,247.865 7.786,247.865 8.077 M148.560 9.335 C 148.560 9.705,148.935 9.930,149.553 9.930 C 150.171 9.930,150.546 9.705,150.546 9.335 C 150.546 8.964,150.171 8.739,149.553 8.739 C 148.935 8.739,148.560 8.964,148.560 9.335 M251.440 9.335 C 251.440 9.705,251.815 9.930,252.433 9.930 C 253.051 9.930,253.426 9.705,253.426 9.335 C 253.426 8.964,253.051 8.739,252.433 8.739 C 251.815 8.739,251.440 8.964,251.440 9.335 M144.588 10.328 C 144.588 11.301,145.842 11.400,146.744 10.498 C 147.620 9.622,147.549 9.533,145.978 9.533 C 144.853 9.533,144.588 9.685,144.588 10.328 M255.015 10.122 C 255.015 10.847,256.906 11.376,257.472 10.810 C 258.114 10.168,257.472 9.533,256.183 9.533 C 255.416 9.533,255.015 9.735,255.015 10.122 M141.410 11.321 C 141.410 11.652,141.763 11.917,142.205 11.917 C 142.646 11.917,142.999 11.652,142.999 11.321 C 142.999 10.990,142.646 10.725,142.205 10.725 C 141.763 10.725,141.410 10.990,141.410 11.321 M258.987 11.321 C 258.987 11.652,259.340 11.917,259.782 11.917 C 260.223 11.917,260.576 11.652,260.576 11.321 C 260.576 10.990,260.223 10.725,259.782 10.725 C 259.340 10.725,258.987 10.990,258.987 11.321 M138.232 12.512 C 138.232 12.883,138.608 13.108,139.225 13.108 C 139.843 13.108,140.218 12.883,140.218 12.512 C 140.218 12.142,139.843 11.917,139.225 11.917 C 138.608 11.917,138.232 12.142,138.232 12.512 M261.768 12.512 C 261.768 12.883,262.143 13.108,262.761 13.108 C 263.379 13.108,263.754 12.883,263.754 12.512 C 263.754 12.142,263.379 11.917,262.761 11.917 C 262.143 11.917,261.768 12.142,261.768 12.512 M135.055 13.274 C 135.055 13.583,135.278 13.917,135.551 14.015 C 136.234 14.259,137.514 13.552,137.227 13.088 C 136.855 12.487,135.055 12.641,135.055 13.274 M264.945 13.264 C 264.945 13.892,265.696 14.268,266.435 14.010 C 267.345 13.692,266.970 12.711,265.938 12.711 C 265.354 12.711,264.945 12.939,264.945 13.264 M130.288 15.227 C 130.288 15.974,130.670 16.267,131.320 16.018 C 132.165 15.693,131.986 14.697,131.082 14.697 C 130.645 14.697,130.288 14.935,130.288 15.227 M270.506 15.227 C 270.506 15.974,270.889 16.267,271.538 16.018 C 272.383 15.693,272.204 14.697,271.301 14.697 C 270.864 14.697,270.506 14.935,270.506 15.227 M127.110 16.485 C 127.110 16.855,127.485 17.080,128.103 17.080 C 128.721 17.080,129.096 16.855,129.096 16.485 C 129.096 16.114,128.721 15.889,128.103 15.889 C 127.485 15.889,127.110 16.114,127.110 16.485 M272.987 16.385 C 273.239 17.149,274.876 17.259,274.876 16.512 C 274.876 16.107,274.517 15.889,273.850 15.889 C 273.206 15.889,272.885 16.074,272.987 16.385 M125.124 17.279 C 125.124 17.607,125.392 17.875,125.720 17.875 C 126.048 17.875,126.316 17.607,126.316 17.279 C 126.316 16.951,126.048 16.683,125.720 16.683 C 125.392 16.683,125.124 16.951,125.124 17.279 M275.670 17.279 C 275.670 17.607,275.938 17.875,276.266 17.875 C 276.594 17.875,276.862 17.607,276.862 17.279 C 276.862 16.951,276.594 16.683,276.266 16.683 C 275.938 16.683,275.670 16.951,275.670 17.279 M123.138 18.471 C 123.138 18.798,123.317 19.067,123.535 19.067 C 123.754 19.067,123.932 18.798,123.932 18.471 C 123.932 18.143,123.754 17.875,123.535 17.875 C 123.317 17.875,123.138 18.143,123.138 18.471 M278.054 18.471 C 278.054 18.798,278.322 19.067,278.649 19.067 C 278.977 19.067,279.245 18.798,279.245 18.471 C 279.245 18.143,278.977 17.875,278.649 17.875 C 278.322 17.875,278.054 18.143,278.054 18.471 M119.960 19.662 C 119.960 19.993,120.313 20.258,120.755 20.258 C 121.196 20.258,121.549 19.993,121.549 19.662 C 121.549 19.331,121.196 19.067,120.755 19.067 C 120.313 19.067,119.960 19.331,119.960 19.662 M280.437 19.662 C 280.437 19.993,280.790 20.258,281.231 20.258 C 281.673 20.258,282.026 19.993,282.026 19.662 C 282.026 19.331,281.673 19.067,281.231 19.067 C 280.790 19.067,280.437 19.331,280.437 19.662 M117.974 20.428 C 117.974 20.796,118.314 21.053,118.802 21.053 C 119.770 21.053,119.633 20.124,118.636 19.931 C 118.244 19.855,117.974 20.058,117.974 20.428 M282.820 20.457 C 282.820 20.785,283.088 21.053,283.416 21.053 C 283.744 21.053,284.012 20.785,284.012 20.457 C 284.012 20.129,283.744 19.861,283.416 19.861 C 283.088 19.861,282.820 20.129,282.820 20.457 M115.988 21.648 C 115.988 21.976,116.256 22.244,116.584 22.244 C 116.912 22.244,117.180 21.976,117.180 21.648 C 117.180 21.321,116.912 21.053,116.584 21.053 C 116.256 21.053,115.988 21.321,115.988 21.648 M284.806 21.678 C 284.806 22.047,285.077 22.250,285.469 22.174 C 286.465 21.981,286.602 21.053,285.634 21.053 C 285.146 21.053,284.806 21.309,284.806 21.678 M113.870 22.112 C 113.366 22.615,113.608 23.039,114.399 23.039 C 114.841 23.039,115.194 22.774,115.194 22.443 C 115.194 21.838,114.353 21.628,113.870 22.112 M287.046 22.443 C 286.891 22.848,287.067 23.039,287.599 23.039 C 288.030 23.039,288.381 22.771,288.381 22.443 C 288.381 22.115,288.132 21.847,287.828 21.847 C 287.524 21.847,287.172 22.115,287.046 22.443 M111.718 23.535 C 111.809 23.808,112.122 24.032,112.413 24.032 C 112.704 24.032,113.017 23.808,113.108 23.535 C 113.207 23.240,112.925 23.039,112.413 23.039 C 111.901 23.039,111.620 23.240,111.718 23.535 M289.176 23.635 C 289.176 23.962,289.444 24.230,289.772 24.230 C 290.099 24.230,290.367 23.962,290.367 23.635 C 290.367 23.307,290.099 23.039,289.772 23.039 C 289.444 23.039,289.176 23.307,289.176 23.635 M109.708 24.528 C 109.782 24.911,110.105 25.223,110.427 25.223 C 110.749 25.223,111.072 24.911,111.146 24.528 C 111.240 24.041,111.025 23.833,110.427 23.833 C 109.829 23.833,109.614 24.041,109.708 24.528 M290.840 24.528 C 290.914 24.911,291.237 25.223,291.559 25.223 C 291.881 25.223,292.204 24.911,292.278 24.528 C 292.372 24.041,292.157 23.833,291.559 23.833 C 290.961 23.833,290.746 24.041,290.840 24.528 M107.646 25.621 C 107.646 25.952,108.000 26.216,108.441 26.216 C 108.882 26.216,109.235 25.952,109.235 25.621 C 109.235 25.290,108.882 25.025,108.441 25.025 C 108.000 25.025,107.646 25.290,107.646 25.621 M293.004 25.621 C 293.130 25.948,293.482 26.216,293.786 26.216 C 294.091 26.216,294.340 25.948,294.340 25.621 C 294.340 25.293,293.988 25.025,293.558 25.025 C 293.026 25.025,292.849 25.215,293.004 25.621 M105.660 26.841 C 105.660 27.211,105.931 27.414,106.323 27.338 C 107.319 27.145,107.456 26.216,106.488 26.216 C 106.000 26.216,105.660 26.473,105.660 26.841 M294.836 26.713 C 295.086 27.465,296.326 27.571,296.326 26.841 C 296.326 26.473,295.986 26.216,295.498 26.216 C 295.013 26.216,294.739 26.422,294.836 26.713 M102.483 28.600 C 102.483 28.818,102.751 28.997,103.078 28.997 C 103.406 28.997,103.674 28.818,103.674 28.600 C 103.674 28.381,103.406 28.203,103.078 28.203 C 102.751 28.203,102.483 28.381,102.483 28.600 M298.312 28.600 C 298.312 28.818,298.580 28.997,298.908 28.997 C 299.235 28.997,299.503 28.818,299.503 28.600 C 299.503 28.381,299.235 28.203,298.908 28.203 C 298.580 28.203,298.312 28.381,298.312 28.600 M100.497 29.593 C 100.497 29.921,100.765 30.189,101.092 30.189 C 101.420 30.189,101.688 29.921,101.688 29.593 C 101.688 29.265,101.420 28.997,101.092 28.997 C 100.765 28.997,100.497 29.265,100.497 29.593 M300.298 29.593 C 300.298 29.921,300.566 30.189,300.894 30.189 C 301.221 30.189,301.490 29.921,301.490 29.593 C 301.490 29.265,301.221 28.997,300.894 28.997 C 300.566 28.997,300.298 29.265,300.298 29.593 M98.235 30.759 C 97.856 31.191,97.929 31.343,98.602 31.519 C 99.610 31.783,100.099 31.535,100.099 30.761 C 100.099 30.041,98.866 30.040,98.235 30.759 M301.887 30.742 C 301.887 31.354,302.954 31.902,303.494 31.568 C 303.683 31.451,303.738 31.092,303.614 30.772 C 303.330 30.030,301.887 30.005,301.887 30.742 M95.333 32.771 C 95.333 33.102,95.686 33.366,96.127 33.366 C 96.568 33.366,96.922 33.102,96.922 32.771 C 96.922 32.440,96.568 32.175,96.127 32.175 C 95.686 32.175,95.333 32.440,95.333 32.771 M305.065 32.771 C 305.065 33.102,305.418 33.366,305.859 33.366 C 306.300 33.366,306.653 33.102,306.653 32.771 C 306.653 32.440,306.300 32.175,305.859 32.175 C 305.418 32.175,305.065 32.440,305.065 32.771 M92.420 34.426 C 91.916 34.929,92.158 35.353,92.949 35.353 C 93.391 35.353,93.744 35.088,93.744 34.757 C 93.744 34.152,92.904 33.942,92.420 34.426 M308.242 34.757 C 308.242 35.088,308.595 35.353,309.037 35.353 C 309.478 35.353,309.831 35.088,309.831 34.757 C 309.831 34.426,309.478 34.161,309.037 34.161 C 308.595 34.161,308.242 34.426,308.242 34.757 M89.445 36.809 C 89.638 37.806,90.566 37.943,90.566 36.975 C 90.566 36.487,90.310 36.147,89.941 36.147 C 89.571 36.147,89.369 36.417,89.445 36.809 M311.490 36.809 C 311.684 37.806,312.612 37.943,312.612 36.975 C 312.612 36.487,312.355 36.147,311.987 36.147 C 311.617 36.147,311.414 36.417,311.490 36.809 M86.197 38.729 C 86.197 39.057,86.018 39.325,85.799 39.325 C 85.581 39.325,85.402 39.593,85.402 39.921 C 85.402 40.674,85.596 40.668,86.806 39.875 C 87.987 39.102,88.089 38.133,86.991 38.133 C 86.550 38.133,86.197 38.398,86.197 38.729 M314.201 38.683 C 314.201 39.249,315.838 40.516,316.570 40.516 C 316.796 40.516,316.981 40.248,316.981 39.921 C 316.981 39.593,316.713 39.325,316.385 39.325 C 316.058 39.325,315.789 39.057,315.789 38.729 C 315.789 38.398,315.436 38.133,314.995 38.133 C 314.558 38.133,314.201 38.381,314.201 38.683 M82.721 41.111 C 82.448 41.421,82.224 41.861,82.224 42.088 C 82.224 42.316,81.956 42.502,81.629 42.502 C 81.301 42.502,81.033 42.671,81.033 42.876 C 81.033 43.460,81.961 43.888,82.130 43.382 C 82.213 43.133,82.894 42.551,83.643 42.088 C 84.392 41.625,85.005 41.082,85.005 40.881 C 85.005 40.310,83.273 40.484,82.721 41.111 M317.201 40.880 C 317.077 41.079,317.590 41.623,318.341 42.086 C 319.091 42.550,319.773 43.133,319.856 43.382 C 320.025 43.888,320.953 43.460,320.953 42.876 C 320.953 42.671,320.685 42.502,320.357 42.502 C 320.030 42.502,319.762 42.311,319.762 42.077 C 319.762 40.975,317.729 40.025,317.201 40.880 M78.252 44.886 C 78.252 45.104,77.984 45.283,77.656 45.283 C 77.325 45.283,77.061 45.636,77.061 46.077 C 77.061 47.053,77.592 47.090,78.645 46.188 C 79.586 45.382,79.693 44.489,78.848 44.489 C 78.520 44.489,78.252 44.667,78.252 44.886 M322.542 44.996 C 322.542 45.566,323.928 46.872,324.533 46.872 C 325.119 46.872,325.007 45.705,324.358 45.056 C 323.653 44.351,322.542 44.315,322.542 44.996 M73.088 49.057 C 73.088 49.384,72.897 49.652,72.663 49.652 C 72.113 49.652,71.102 50.663,71.102 51.213 C 71.102 51.447,70.834 51.639,70.506 51.639 C 70.179 51.639,69.911 51.907,69.911 52.234 C 69.911 52.959,70.583 53.009,71.259 52.334 C 71.532 52.061,72.413 51.313,73.217 50.673 C 74.828 49.389,75.108 48.461,73.883 48.461 C 73.441 48.461,73.088 48.726,73.088 49.057 M327.706 49.255 C 327.706 49.692,327.857 50.050,328.042 50.050 C 328.227 50.050,328.994 50.647,329.746 51.378 C 330.498 52.108,331.619 52.802,332.237 52.920 L 333.362 53.135 332.321 52.241 C 331.749 51.750,331.281 51.145,331.281 50.897 C 331.281 50.650,331.013 50.447,330.685 50.447 C 330.357 50.447,330.089 50.268,330.089 50.050 C 330.089 49.831,329.821 49.652,329.494 49.652 C 329.166 49.652,328.898 49.384,328.898 49.057 C 328.898 48.729,328.630 48.461,328.302 48.461 C 327.971 48.461,327.706 48.814,327.706 49.255 M53.625 68.520 C 53.625 68.848,53.433 69.116,53.199 69.116 C 52.965 69.116,52.518 69.372,52.206 69.684 C 51.894 69.996,51.639 70.443,51.639 70.677 C 51.639 70.911,51.370 71.102,51.043 71.102 C 50.712 71.102,50.447 71.455,50.447 71.897 C 50.447 73.122,51.376 72.842,52.659 71.231 C 53.300 70.427,54.047 69.546,54.320 69.273 C 54.995 68.597,54.945 67.925,54.220 67.925 C 53.893 67.925,53.625 68.193,53.625 68.520 M347.170 68.341 C 347.170 68.570,347.617 69.171,348.163 69.677 C 348.709 70.183,349.156 70.709,349.156 70.845 C 349.156 71.335,350.535 72.691,351.032 72.691 C 351.311 72.691,351.539 72.334,351.539 71.897 C 351.539 71.455,351.274 71.102,350.943 71.102 C 350.616 71.102,350.348 70.911,350.348 70.677 C 350.348 70.127,349.337 69.116,348.787 69.116 C 348.553 69.116,348.361 68.848,348.361 68.520 C 348.361 68.193,348.093 67.925,347.766 67.925 C 347.438 67.925,347.170 68.112,347.170 68.341 M47.269 75.670 C 47.269 75.998,47.090 76.266,46.872 76.266 C 46.653 76.266,46.475 76.534,46.475 76.862 C 46.475 77.707,47.368 77.600,48.174 76.659 C 49.076 75.606,49.039 75.074,48.064 75.074 C 47.622 75.074,47.269 75.339,47.269 75.670 M353.128 75.472 C 353.128 75.987,354.599 77.458,355.114 77.458 C 355.333 77.458,355.511 77.190,355.511 76.862 C 355.511 76.534,355.333 76.266,355.114 76.266 C 354.896 76.266,354.717 75.998,354.717 75.670 C 354.717 75.339,354.364 75.074,353.923 75.074 C 353.486 75.074,353.128 75.253,353.128 75.472 M44.489 79.643 C 44.489 79.970,44.297 80.238,44.063 80.238 C 43.362 80.238,42.502 81.317,42.502 82.196 C 42.502 83.411,43.121 83.199,44.074 81.657 C 44.537 80.907,45.120 80.227,45.368 80.144 C 45.874 79.975,45.446 79.047,44.862 79.047 C 44.657 79.047,44.489 79.315,44.489 79.643 M356.559 79.643 C 356.434 79.970,356.489 80.238,356.683 80.238 C 356.877 80.238,357.422 80.864,357.895 81.629 C 358.811 83.111,359.881 83.480,359.881 82.313 C 359.881 81.586,358.588 80.238,357.890 80.238 C 357.674 80.238,357.498 79.970,357.498 79.643 C 357.498 79.315,357.338 79.047,357.143 79.047 C 356.948 79.047,356.685 79.315,356.559 79.643 M40.814 84.168 C 39.980 85.014,39.910 85.799,40.669 85.799 C 41.153 85.799,42.502 84.201,42.502 83.629 C 42.502 83.171,41.474 83.500,40.814 84.168 M359.484 83.629 C 359.484 83.746,359.772 84.282,360.125 84.820 C 360.898 86.001,361.867 86.103,361.867 85.005 C 361.867 84.564,361.602 84.211,361.271 84.211 C 360.943 84.211,360.675 84.032,360.675 83.813 C 360.675 83.595,360.407 83.416,360.079 83.416 C 359.752 83.416,359.484 83.512,359.484 83.629 M38.133 87.984 C 38.133 88.315,38.486 88.580,38.928 88.580 C 39.369 88.580,39.722 88.315,39.722 87.984 C 39.722 87.653,39.369 87.388,38.928 87.388 C 38.486 87.388,38.133 87.653,38.133 87.984 M362.529 87.653 C 362.025 88.157,362.267 88.580,363.059 88.580 C 363.500 88.580,363.853 88.315,363.853 87.984 C 363.853 87.379,363.013 87.169,362.529 87.653 M36.147 91.162 C 36.147 91.490,36.415 91.758,36.743 91.758 C 37.071 91.758,37.339 91.490,37.339 91.162 C 37.339 90.834,37.071 90.566,36.743 90.566 C 36.415 90.566,36.147 90.834,36.147 91.162 M364.647 91.162 C 364.647 91.490,364.916 91.758,365.243 91.758 C 365.571 91.758,365.839 91.490,365.839 91.162 C 365.839 90.834,365.571 90.566,365.243 90.566 C 364.916 90.566,364.647 90.834,364.647 91.162 M34.161 94.141 C 34.161 94.582,34.426 94.935,34.757 94.935 C 35.088 94.935,35.353 94.582,35.353 94.141 C 35.353 93.700,35.088 93.347,34.757 93.347 C 34.426 93.347,34.161 93.700,34.161 94.141 M366.634 94.141 C 366.634 94.582,366.898 94.935,367.229 94.935 C 367.560 94.935,367.825 94.582,367.825 94.141 C 367.825 93.700,367.560 93.347,367.229 93.347 C 366.898 93.347,366.634 93.700,366.634 94.141 M368.620 97.133 C 368.620 97.739,368.847 98.113,369.215 98.113 C 369.543 98.113,369.811 97.775,369.811 97.361 C 369.811 96.948,369.543 96.506,369.215 96.381 C 368.785 96.216,368.620 96.424,368.620 97.133 M32.175 97.348 C 32.175 97.916,32.389 98.130,32.865 98.038 C 33.901 97.839,34.016 96.524,32.998 96.524 C 32.430 96.524,32.175 96.779,32.175 97.348 M30.983 99.106 C 30.983 99.434,31.251 99.702,31.579 99.702 C 31.907 99.702,32.175 99.434,32.175 99.106 C 32.175 98.779,31.907 98.510,31.579 98.510 C 31.251 98.510,30.983 98.779,30.983 99.106 M369.811 99.106 C 369.811 99.434,370.079 99.702,370.407 99.702 C 370.735 99.702,371.003 99.434,371.003 99.106 C 371.003 98.779,370.735 98.510,370.407 98.510 C 370.079 98.510,369.811 98.779,369.811 99.106 M30.189 101.092 C 30.189 101.420,30.367 101.688,30.586 101.688 C 30.804 101.688,30.983 101.420,30.983 101.092 C 30.983 100.765,30.804 100.497,30.586 100.497 C 30.367 100.497,30.189 100.765,30.189 101.092 M371.003 101.092 C 371.003 101.420,371.182 101.688,371.400 101.688 C 371.619 101.688,371.797 101.420,371.797 101.092 C 371.797 100.765,371.619 100.497,371.400 100.497 C 371.182 100.497,371.003 100.765,371.003 101.092 M28.203 104.469 C 28.203 104.910,28.467 105.263,28.798 105.263 C 29.129 105.263,29.394 104.910,29.394 104.469 C 29.394 104.027,29.129 103.674,28.798 103.674 C 28.467 103.674,28.203 104.027,28.203 104.469 M372.662 104.336 C 372.855 105.333,373.784 105.470,373.784 104.502 C 373.784 104.014,373.527 103.674,373.159 103.674 C 372.789 103.674,372.586 103.945,372.662 104.336 M27.011 106.455 C 27.011 106.896,27.276 107.249,27.607 107.249 C 27.938 107.249,28.203 106.896,28.203 106.455 C 28.203 106.013,27.938 105.660,27.607 105.660 C 27.276 105.660,27.011 106.013,27.011 106.455 M373.784 106.455 C 373.784 106.896,374.048 107.249,374.379 107.249 C 374.710 107.249,374.975 106.896,374.975 106.455 C 374.975 106.013,374.710 105.660,374.379 105.660 C 374.048 105.660,373.784 106.013,373.784 106.455 M26.216 108.441 C 26.216 108.953,26.418 109.235,26.713 109.136 C 26.986 109.045,27.210 108.732,27.210 108.441 C 27.210 108.150,26.986 107.837,26.713 107.746 C 26.418 107.647,26.216 107.929,26.216 108.441 M374.777 108.044 C 374.444 108.582,374.893 109.235,375.594 109.235 C 375.909 109.235,376.167 108.878,376.167 108.441 C 376.167 107.619,375.209 107.345,374.777 108.044 M25.025 110.427 C 25.025 110.868,25.290 111.221,25.621 111.221 C 25.952 111.221,26.216 110.868,26.216 110.427 C 26.216 109.986,25.952 109.633,25.621 109.633 C 25.290 109.633,25.025 109.986,25.025 110.427 M376.034 109.897 C 375.551 110.381,375.761 111.221,376.365 111.221 C 376.696 111.221,376.961 110.868,376.961 110.427 C 376.961 109.636,376.538 109.394,376.034 109.897 M376.961 112.426 C 376.961 112.856,377.229 113.208,377.557 113.208 C 377.885 113.208,378.153 112.959,378.153 112.654 C 378.153 112.350,377.885 111.998,377.557 111.872 C 377.152 111.717,376.961 111.894,376.961 112.426 M23.833 112.612 C 23.833 112.939,24.101 113.208,24.429 113.208 C 24.757 113.208,25.025 112.939,25.025 112.612 C 25.025 112.284,24.757 112.016,24.429 112.016 C 24.101 112.016,23.833 112.284,23.833 112.612 M23.039 114.598 C 23.039 114.926,23.307 115.194,23.635 115.194 C 23.962 115.194,24.230 114.926,24.230 114.598 C 24.230 114.270,23.962 114.002,23.635 114.002 C 23.307 114.002,23.039 114.270,23.039 114.598 M377.756 114.598 C 377.756 114.926,378.024 115.194,378.352 115.194 C 378.679 115.194,378.947 114.926,378.947 114.598 C 378.947 114.270,378.679 114.002,378.352 114.002 C 378.024 114.002,377.756 114.270,377.756 114.598 M21.847 116.783 C 21.847 117.219,22.085 117.577,22.377 117.577 C 23.124 117.577,23.417 117.195,23.167 116.545 C 22.843 115.700,21.847 115.879,21.847 116.783 M378.947 116.783 C 378.947 117.224,379.212 117.577,379.543 117.577 C 379.874 117.577,380.139 117.224,380.139 116.783 C 380.139 116.341,379.874 115.988,379.543 115.988 C 379.212 115.988,378.947 116.341,378.947 116.783 M157.357 118.002 C 155.490 118.750,154.079 120.069,153.117 121.968 L 152.135 123.906 152.135 199.018 L 152.135 274.131 153.110 276.191 C 156.181 282.679,160.316 282.306,172.507 274.442 C 177.048 271.513,183.483 267.374,186.807 265.245 C 190.131 263.115,194.727 260.149,197.021 258.654 C 199.315 257.158,202.580 255.057,204.277 253.985 C 205.974 252.913,210.130 250.248,213.512 248.064 C 216.894 245.879,222.169 242.483,225.234 240.516 C 228.299 238.550,233.298 235.333,236.342 233.366 C 239.387 231.400,244.391 228.183,247.464 226.216 C 250.536 224.250,254.709 221.569,256.736 220.258 C 258.763 218.947,262.200 216.730,264.372 215.331 C 266.544 213.932,270.109 211.636,272.294 210.228 C 274.479 208.821,277.123 207.106,278.171 206.417 C 281.028 204.538,282.423 202.210,282.423 199.320 C 282.423 195.042,281.456 193.876,273.933 189.076 C 271.365 187.438,267.711 185.088,265.814 183.854 C 256.111 177.544,250.600 173.988,248.328 172.572 C 246.945 171.709,245.115 170.556,244.262 170.010 C 242.196 168.687,225.484 157.904,221.369 155.239 C 219.577 154.078,215.598 151.519,212.527 149.553 C 209.455 147.587,204.448 144.369,201.400 142.403 C 198.351 140.437,193.072 137.041,189.668 134.856 C 186.264 132.671,181.208 129.422,178.433 127.635 C 161.799 116.927,162.960 117.564,160.160 117.602 C 159.133 117.616,157.871 117.796,157.357 118.002 M21.053 118.769 C 21.053 119.210,21.317 119.563,21.648 119.563 C 21.979 119.563,22.244 119.210,22.244 118.769 C 22.244 118.327,21.979 117.974,21.648 117.974 C 21.317 117.974,21.053 118.327,21.053 118.769 M379.742 118.769 C 379.742 119.210,380.007 119.563,380.338 119.563 C 380.669 119.563,380.933 119.210,380.933 118.769 C 380.933 118.327,380.669 117.974,380.338 117.974 C 380.007 117.974,379.742 118.327,379.742 118.769 M19.861 121.549 C 19.861 121.768,20.129 121.946,20.457 121.946 C 20.785 121.946,21.053 121.768,21.053 121.549 C 21.053 121.331,20.785 121.152,20.457 121.152 C 20.129 121.152,19.861 121.331,19.861 121.549 M380.933 121.549 C 380.933 121.768,381.202 121.946,381.529 121.946 C 381.857 121.946,382.125 121.768,382.125 121.549 C 382.125 121.331,381.857 121.152,381.529 121.152 C 381.202 121.152,380.933 121.331,380.933 121.549 M19.067 123.734 C 19.067 124.062,19.245 124.330,19.464 124.330 C 19.682 124.330,19.861 124.062,19.861 123.734 C 19.861 123.406,19.682 123.138,19.464 123.138 C 19.245 123.138,19.067 123.406,19.067 123.734 M382.125 123.734 C 382.125 124.062,382.393 124.330,382.721 124.330 C 383.049 124.330,383.317 124.062,383.317 123.734 C 383.317 123.406,383.049 123.138,382.721 123.138 C 382.393 123.138,382.125 123.406,382.125 123.734 M17.875 126.117 C 17.875 126.735,18.100 127.110,18.471 127.110 C 18.841 127.110,19.067 126.735,19.067 126.117 C 19.067 125.499,18.841 125.124,18.471 125.124 C 18.100 125.124,17.875 125.499,17.875 126.117 M382.920 126.117 C 382.920 126.735,383.145 127.110,383.515 127.110 C 383.886 127.110,384.111 126.735,384.111 126.117 C 384.111 125.499,383.886 125.124,383.515 125.124 C 383.145 125.124,382.920 125.499,382.920 126.117 M16.683 129.096 C 16.683 129.695,16.891 129.909,17.378 129.815 C 17.761 129.742,18.073 129.418,18.073 129.096 C 18.073 128.775,17.761 128.451,17.378 128.378 C 16.891 128.284,16.683 128.498,16.683 129.096 M383.913 128.699 C 383.580 129.237,384.029 129.891,384.730 129.891 C 385.045 129.891,385.303 129.533,385.303 129.096 C 385.303 128.274,384.345 128.000,383.913 128.699 M14.841 133.664 C 14.566 134.379,14.924 135.452,15.437 135.452 C 15.639 135.452,15.907 135.184,16.032 134.856 C 16.307 134.141,15.949 133.069,15.437 133.069 C 15.235 133.069,14.967 133.337,14.841 133.664 M386.097 134.227 C 386.097 135.074,386.289 135.452,386.720 135.452 C 387.160 135.452,387.305 135.143,387.216 134.390 C 387.033 132.844,386.097 132.707,386.097 134.227 M13.903 137.471 C 13.903 138.991,14.838 138.854,15.021 137.308 C 15.110 136.556,14.966 136.246,14.525 136.246 C 14.095 136.246,13.903 136.624,13.903 137.471 M387.035 136.842 C 386.751 137.582,387.125 138.630,387.674 138.630 C 387.899 138.630,388.083 138.093,388.083 137.438 C 388.083 136.191,387.428 135.818,387.035 136.842 M12.711 140.417 C 12.711 141.448,13.668 141.817,14.000 140.914 C 14.274 140.170,13.910 139.424,13.274 139.424 C 12.938 139.424,12.711 139.825,12.711 140.417 M388.083 140.417 C 388.083 141.035,388.309 141.410,388.679 141.410 C 389.050 141.410,389.275 141.035,389.275 140.417 C 389.275 139.799,389.050 139.424,388.679 139.424 C 388.309 139.424,388.083 139.799,388.083 140.417 M11.917 143.827 C 11.917 145.346,12.852 145.210,13.035 143.664 C 13.124 142.911,12.980 142.602,12.539 142.602 C 12.109 142.602,11.917 142.980,11.917 143.827 M388.878 143.165 C 388.878 144.163,389.345 144.985,389.913 144.985 C 390.263 144.985,390.467 144.547,390.467 143.793 C 390.467 142.867,390.290 142.602,389.672 142.602 C 389.235 142.602,388.878 142.855,388.878 143.165 M10.725 147.567 C 10.725 148.598,11.682 148.967,12.014 148.064 C 12.288 147.320,11.924 146.574,11.288 146.574 C 10.952 146.574,10.725 146.975,10.725 147.567 M390.070 147.567 C 390.070 148.185,390.295 148.560,390.665 148.560 C 391.036 148.560,391.261 148.185,391.261 147.567 C 391.261 146.949,391.036 146.574,390.665 146.574 C 390.295 146.574,390.070 146.949,390.070 147.567 M9.533 151.539 C 9.533 152.570,10.490 152.939,10.823 152.036 C 11.096 151.292,10.732 150.546,10.096 150.546 C 9.761 150.546,9.533 150.947,9.533 151.539 M391.261 151.539 C 391.261 152.157,391.486 152.532,391.857 152.532 C 392.228 152.532,392.453 152.157,392.453 151.539 C 392.453 150.921,392.228 150.546,391.857 150.546 C 391.486 150.546,391.261 150.921,391.261 151.539 M8.739 155.677 C 8.739 156.524,8.931 156.902,9.361 156.902 C 9.802 156.902,9.947 156.592,9.858 155.840 C 9.674 154.294,8.739 154.157,8.739 155.677 M392.320 154.783 C 391.800 155.303,392.050 156.902,392.651 156.902 C 393.049 156.902,393.247 156.504,393.247 155.710 C 393.247 154.571,392.890 154.214,392.320 154.783 M7.621 160.943 C 7.768 162.425,8.541 162.864,8.860 161.646 C 9.148 160.543,8.804 159.682,8.075 159.682 C 7.664 159.682,7.533 160.047,7.621 160.943 M393.153 160.164 C 392.879 160.987,393.323 162.504,393.793 162.349 C 394.507 162.115,394.606 159.682,393.901 159.682 C 393.578 159.682,393.241 159.899,393.153 160.164 M6.824 166.094 C 6.894 166.828,7.130 167.383,7.349 167.329 C 7.939 167.181,7.830 165.139,7.221 164.936 C 6.840 164.809,6.731 165.127,6.824 166.094 M394.226 165.266 C 393.856 165.866,394.386 167.706,394.848 167.421 C 395.343 167.115,395.354 164.846,394.860 164.846 C 394.654 164.846,394.369 165.035,394.226 165.266 M5.561 172.341 C 5.561 174.396,6.019 175.643,6.570 175.092 C 7.166 174.496,6.898 170.226,6.256 170.094 C 5.655 169.971,5.561 170.276,5.561 172.341 M395.126 170.510 C 394.772 171.434,395.316 175.212,395.782 175.059 C 396.494 174.824,396.598 170.010,395.891 170.010 C 395.576 170.010,395.232 170.235,395.126 170.510 M4.767 183.681 C 4.767 186.260,5.323 187.185,5.780 185.364 C 6.137 183.942,5.821 181.412,5.263 181.229 C 4.900 181.110,4.767 181.767,4.767 183.681 M396.163 181.750 C 395.791 182.721,396.353 185.884,397.017 186.547 C 397.552 187.082,397.617 186.823,397.617 184.140 C 397.617 181.176,396.860 179.932,396.163 181.750 M396.871 211.679 C 395.988 212.239,396.031 216.619,396.922 216.799 C 397.531 216.923,397.617 216.595,397.617 214.130 C 397.617 212.585,397.572 211.323,397.517 211.327 C 397.463 211.330,397.172 211.489,396.871 211.679 M4.767 214.300 C 4.767 216.330,4.894 216.882,5.362 216.882 C 5.993 216.882,6.192 214.418,5.708 212.612 C 5.245 210.886,4.767 211.744,4.767 214.300 M5.561 225.819 C 5.561 227.761,5.698 228.401,6.114 228.401 C 6.936 228.401,7.195 227.344,6.907 225.173 C 6.504 222.134,5.561 222.586,5.561 225.819 M395.107 225.236 C 394.841 227.488,395.061 228.401,395.872 228.401 C 396.288 228.401,396.425 227.761,396.425 225.819 C 396.425 222.552,395.475 222.131,395.107 225.236 M6.753 231.943 C 6.753 232.790,6.945 233.168,7.375 233.168 C 7.816 233.168,7.961 232.859,7.871 232.106 C 7.688 230.560,6.753 230.423,6.753 231.943 M394.307 231.049 C 393.787 231.569,394.036 233.168,394.638 233.168 C 395.035 233.168,395.233 232.771,395.233 231.976 C 395.233 230.837,394.876 230.480,394.307 231.049 M7.547 237.140 C 7.547 237.913,7.748 238.332,8.120 238.332 C 8.905 238.332,9.237 237.685,8.936 236.739 C 8.537 235.482,7.547 235.767,7.547 237.140 M393.160 236.643 C 392.908 237.615,393.212 238.332,393.876 238.332 C 394.237 238.332,394.439 237.903,394.439 237.140 C 394.439 235.833,393.468 235.456,393.160 236.643 M8.739 242.271 C 8.739 243.118,8.931 243.496,9.361 243.496 C 9.802 243.496,9.947 243.186,9.858 242.434 C 9.674 240.887,8.739 240.751,8.739 242.271 M392.320 241.377 C 391.800 241.897,392.050 243.496,392.651 243.496 C 393.049 243.496,393.247 243.098,393.247 242.304 C 393.247 241.165,392.890 240.808,392.320 241.377 M9.533 246.673 C 9.533 247.272,9.741 247.486,10.228 247.392 C 10.611 247.318,10.924 246.995,10.924 246.673 C 10.924 246.352,10.611 246.028,10.228 245.954 C 9.741 245.861,9.533 246.075,9.533 246.673 M391.261 246.673 C 391.261 247.115,391.526 247.468,391.857 247.468 C 392.188 247.468,392.453 247.115,392.453 246.673 C 392.453 246.232,392.188 245.879,391.857 245.879 C 391.526 245.879,391.261 246.232,391.261 246.673 M10.725 250.645 C 10.725 251.409,10.927 251.837,11.288 251.837 C 11.952 251.837,12.256 251.121,12.004 250.149 C 11.696 248.961,10.725 249.338,10.725 250.645 M390.070 250.645 C 390.070 251.440,390.268 251.837,390.665 251.837 C 391.063 251.837,391.261 251.440,391.261 250.645 C 391.261 249.851,391.063 249.454,390.665 249.454 C 390.268 249.454,390.070 249.851,390.070 250.645 M389.506 253.552 C 388.645 254.181,388.814 255.549,389.776 255.735 C 390.328 255.841,390.467 255.583,390.467 254.448 C 390.467 252.837,390.474 252.844,389.506 253.552 M11.917 254.618 C 11.917 255.447,12.086 255.819,12.413 255.710 C 12.686 255.619,12.910 255.127,12.910 254.618 C 12.910 254.108,12.686 253.616,12.413 253.525 C 12.086 253.416,11.917 253.788,11.917 254.618 M12.711 257.994 C 12.711 259.025,13.668 259.394,14.000 258.491 C 14.274 257.747,13.910 257.001,13.274 257.001 C 12.938 257.001,12.711 257.402,12.711 257.994 M388.083 257.994 C 388.083 258.612,388.309 258.987,388.679 258.987 C 389.050 258.987,389.275 258.612,389.275 257.994 C 389.275 257.376,389.050 257.001,388.679 257.001 C 388.309 257.001,388.083 257.376,388.083 257.994 M13.903 260.775 C 13.903 261.392,14.128 261.768,14.499 261.768 C 14.869 261.768,15.094 261.392,15.094 260.775 C 15.094 260.157,14.869 259.782,14.499 259.782 C 14.128 259.782,13.903 260.157,13.903 260.775 M387.157 260.046 C 386.657 260.546,386.892 261.768,387.488 261.768 C 387.858 261.768,388.083 261.392,388.083 260.775 C 388.083 259.810,387.697 259.506,387.157 260.046 M14.697 263.952 C 14.697 264.984,15.654 265.352,15.986 264.449 C 16.260 263.705,15.896 262.959,15.260 262.959 C 14.924 262.959,14.697 263.360,14.697 263.952 M386.000 263.456 C 385.726 264.199,386.090 264.945,386.726 264.945 C 387.062 264.945,387.289 264.544,387.289 263.952 C 387.289 262.921,386.332 262.552,386.000 263.456 M16.683 269.315 C 16.683 269.913,16.891 270.128,17.378 270.034 C 17.761 269.960,18.073 269.637,18.073 269.315 C 18.073 268.993,17.761 268.670,17.378 268.596 C 16.891 268.502,16.683 268.717,16.683 269.315 M384.006 268.758 C 383.620 269.144,384.150 270.109,384.750 270.109 C 385.054 270.109,385.303 269.752,385.303 269.315 C 385.303 268.567,384.529 268.235,384.006 268.758 M17.875 272.294 C 17.875 272.912,18.100 273.287,18.471 273.287 C 18.841 273.287,19.067 272.912,19.067 272.294 C 19.067 271.676,18.841 271.301,18.471 271.301 C 18.100 271.301,17.875 271.676,17.875 272.294 M382.920 272.294 C 382.920 272.912,383.145 273.287,383.515 273.287 C 383.886 273.287,384.111 272.912,384.111 272.294 C 384.111 271.676,383.886 271.301,383.515 271.301 C 383.145 271.301,382.920 271.676,382.920 272.294 M19.067 274.677 C 19.067 275.005,19.226 275.273,19.421 275.273 C 19.616 275.273,19.879 275.005,20.005 274.677 C 20.144 274.314,20.005 274.081,19.650 274.081 C 19.329 274.081,19.067 274.350,19.067 274.677 M382.125 274.677 C 382.125 275.005,382.393 275.273,382.721 275.273 C 383.049 275.273,383.317 275.005,383.317 274.677 C 383.317 274.350,383.049 274.081,382.721 274.081 C 382.393 274.081,382.125 274.350,382.125 274.677 M19.861 276.663 C 19.861 276.991,20.129 277.259,20.457 277.259 C 20.785 277.259,21.053 276.991,21.053 276.663 C 21.053 276.336,20.785 276.068,20.457 276.068 C 20.129 276.068,19.861 276.336,19.861 276.663 M380.933 276.663 C 380.933 276.991,381.202 277.259,381.529 277.259 C 381.857 277.259,382.125 276.991,382.125 276.663 C 382.125 276.336,381.857 276.068,381.529 276.068 C 381.202 276.068,380.933 276.336,380.933 276.663 M21.053 279.444 C 21.053 280.115,21.235 280.442,21.549 280.338 C 21.822 280.247,22.046 279.844,22.046 279.444 C 22.046 279.043,21.822 278.641,21.549 278.550 C 21.235 278.445,21.053 278.773,21.053 279.444 M379.893 279.028 C 379.771 279.345,379.787 279.792,379.929 280.021 C 380.391 280.769,380.933 280.458,380.933 279.444 C 380.933 278.367,380.251 278.094,379.893 279.028 M21.847 281.629 C 21.847 282.532,22.843 282.711,23.167 281.866 C 23.417 281.216,23.124 280.834,22.377 280.834 C 22.085 280.834,21.847 281.192,21.847 281.629 M378.947 281.629 C 378.947 282.070,379.212 282.423,379.543 282.423 C 379.874 282.423,380.139 282.070,380.139 281.629 C 380.139 281.187,379.874 280.834,379.543 280.834 C 379.212 280.834,378.947 281.187,378.947 281.629 M23.039 283.615 C 23.039 284.056,23.304 284.409,23.635 284.409 C 23.966 284.409,24.230 284.056,24.230 283.615 C 24.230 283.173,23.966 282.820,23.635 282.820 C 23.304 282.820,23.039 283.173,23.039 283.615 M377.954 283.217 C 377.665 283.686,378.040 284.409,378.574 284.409 C 378.779 284.409,378.947 284.052,378.947 283.615 C 378.947 282.777,378.369 282.546,377.954 283.217 M23.833 285.799 C 23.833 286.127,24.101 286.395,24.429 286.395 C 24.757 286.395,25.025 286.127,25.025 285.799 C 25.025 285.472,24.757 285.204,24.429 285.204 C 24.101 285.204,23.833 285.472,23.833 285.799 M376.961 285.799 C 376.961 286.127,377.229 286.395,377.557 286.395 C 377.885 286.395,378.153 286.127,378.153 285.799 C 378.153 285.472,377.885 285.204,377.557 285.204 C 377.229 285.204,376.961 285.472,376.961 285.799 M25.025 287.786 C 25.025 288.113,25.293 288.381,25.621 288.381 C 25.948 288.381,26.216 288.113,26.216 287.786 C 26.216 287.458,25.948 287.190,25.621 287.190 C 25.293 287.190,25.025 287.458,25.025 287.786 M375.770 287.786 C 375.770 288.113,376.038 288.381,376.365 288.381 C 376.693 288.381,376.961 288.113,376.961 287.786 C 376.961 287.458,376.693 287.190,376.365 287.190 C 376.038 287.190,375.770 287.458,375.770 287.786 M26.216 289.772 C 26.216 290.099,26.485 290.367,26.812 290.367 C 27.140 290.367,27.408 290.099,27.408 289.772 C 27.408 289.444,27.140 289.176,26.812 289.176 C 26.485 289.176,26.216 289.444,26.216 289.772 M374.677 289.672 C 374.927 290.424,376.167 290.531,376.167 289.801 C 376.167 289.432,375.827 289.176,375.339 289.176 C 374.854 289.176,374.580 289.381,374.677 289.672 M27.011 291.758 C 27.011 292.085,27.279 292.354,27.607 292.354 C 27.934 292.354,28.203 292.085,28.203 291.758 C 28.203 291.430,27.934 291.162,27.607 291.162 C 27.279 291.162,27.011 291.430,27.011 291.758 M373.784 291.758 C 373.784 292.085,374.052 292.354,374.379 292.354 C 374.707 292.354,374.975 292.085,374.975 291.758 C 374.975 291.430,374.707 291.162,374.379 291.162 C 374.052 291.162,373.784 291.430,373.784 291.758 M28.203 293.942 C 28.203 294.384,28.467 294.737,28.798 294.737 C 29.129 294.737,29.394 294.384,29.394 293.942 C 29.394 293.501,29.129 293.148,28.798 293.148 C 28.467 293.148,28.203 293.501,28.203 293.942 M372.662 293.810 C 372.855 294.807,373.784 294.944,373.784 293.976 C 373.784 293.488,373.527 293.148,373.159 293.148 C 372.789 293.148,372.586 293.418,372.662 293.810 M30.983 298.908 C 30.983 299.235,31.251 299.503,31.579 299.503 C 31.907 299.503,32.175 299.235,32.175 298.908 C 32.175 298.580,31.907 298.312,31.579 298.312 C 31.251 298.312,30.983 298.580,30.983 298.908 M369.811 298.908 C 369.811 299.235,370.079 299.503,370.407 299.503 C 370.735 299.503,371.003 299.235,371.003 298.908 C 371.003 298.580,370.735 298.312,370.407 298.312 C 370.079 298.312,369.811 298.580,369.811 298.908 M32.175 300.894 C 32.175 301.494,32.401 301.887,32.747 301.887 C 33.499 301.887,33.825 301.318,33.524 300.532 C 33.137 299.525,32.175 299.783,32.175 300.894 M368.884 300.166 C 368.739 300.311,368.620 300.950,368.620 301.584 C 368.620 302.610,368.686 302.672,369.215 302.142 C 369.543 301.814,369.811 301.176,369.811 300.724 C 369.811 299.908,369.394 299.656,368.884 300.166 M34.161 304.071 C 34.161 304.399,34.429 304.667,34.757 304.667 C 35.084 304.667,35.353 304.399,35.353 304.071 C 35.353 303.744,35.084 303.476,34.757 303.476 C 34.429 303.476,34.161 303.744,34.161 304.071 M366.634 304.071 C 366.634 304.399,366.902 304.667,367.229 304.667 C 367.557 304.667,367.825 304.399,367.825 304.071 C 367.825 303.744,367.557 303.476,367.229 303.476 C 366.902 303.476,366.634 303.744,366.634 304.071 M36.147 307.249 C 36.147 307.577,36.415 307.845,36.743 307.845 C 37.071 307.845,37.339 307.577,37.339 307.249 C 37.339 306.922,37.071 306.653,36.743 306.653 C 36.415 306.653,36.147 306.922,36.147 307.249 M364.647 307.249 C 364.647 307.577,364.916 307.845,365.243 307.845 C 365.571 307.845,365.839 307.577,365.839 307.249 C 365.839 306.922,365.571 306.653,365.243 306.653 C 364.916 306.653,364.647 306.922,364.647 307.249 M38.133 310.228 C 38.133 310.827,38.340 311.041,38.828 310.947 C 39.211 310.874,39.523 310.550,39.523 310.228 C 39.523 309.907,39.211 309.583,38.828 309.510 C 38.340 309.416,38.133 309.630,38.133 310.228 M362.463 309.831 C 362.130 310.369,362.579 311.023,363.281 311.023 C 363.595 311.023,363.853 310.665,363.853 310.228 C 363.853 309.406,362.895 309.132,362.463 309.831 M40.119 313.208 C 40.119 313.535,40.387 313.803,40.715 313.803 C 41.043 313.803,41.311 314.071,41.311 314.399 C 41.311 314.727,41.579 314.995,41.907 314.995 C 42.234 314.995,42.502 314.727,42.502 314.399 C 42.502 314.071,42.324 313.803,42.105 313.803 C 41.887 313.803,41.708 313.535,41.708 313.208 C 41.708 312.877,41.355 312.612,40.914 312.612 C 40.472 312.612,40.119 312.877,40.119 313.208 M360.278 313.208 C 360.278 313.535,360.099 313.803,359.881 313.803 C 359.662 313.803,359.484 314.071,359.484 314.399 C 359.484 314.727,359.752 314.995,360.079 314.995 C 360.407 314.995,360.675 314.727,360.675 314.399 C 360.675 314.071,360.943 313.803,361.271 313.803 C 361.599 313.803,361.867 313.535,361.867 313.208 C 361.867 312.877,361.514 312.612,361.072 312.612 C 360.631 312.612,360.278 312.877,360.278 313.208 M42.502 316.187 C 42.502 316.624,42.681 316.981,42.900 316.981 C 43.118 316.981,43.297 317.249,43.297 317.577 C 43.297 317.905,43.565 318.173,43.893 318.173 C 44.220 318.173,44.489 318.352,44.489 318.570 C 44.489 318.788,44.772 318.967,45.118 318.967 C 45.845 318.967,45.817 318.872,44.489 316.887 C 43.401 315.260,42.502 314.944,42.502 316.187 M358.292 315.988 C 358.292 316.316,358.113 316.584,357.895 316.584 C 357.676 316.584,357.498 316.833,357.498 317.137 C 357.498 317.442,357.200 317.805,356.835 317.945 C 356.297 318.151,356.269 318.290,356.686 318.682 C 357.090 319.062,357.239 319.060,357.382 318.669 C 357.482 318.396,357.817 318.173,358.126 318.173 C 358.436 318.173,358.689 317.905,358.689 317.577 C 358.689 317.249,358.957 316.981,359.285 316.981 C 359.616 316.981,359.881 316.628,359.881 316.187 C 359.881 315.657,359.616 315.392,359.086 315.392 C 358.645 315.392,358.292 315.657,358.292 315.988 M46.475 321.169 C 46.475 322.156,47.989 323.570,48.500 323.059 C 48.811 322.748,48.742 322.338,48.253 321.592 C 47.507 320.452,46.475 320.206,46.475 321.169 M353.802 321.565 C 353.408 322.106,353.195 322.726,353.329 322.943 C 353.706 323.554,354.717 323.407,354.717 322.741 C 354.717 322.413,354.896 322.145,355.114 322.145 C 355.333 322.145,355.511 321.787,355.511 321.351 C 355.511 320.267,354.670 320.372,353.802 321.565 M50.447 326.514 C 50.447 326.951,50.638 327.309,50.872 327.309 C 51.422 327.309,52.433 328.319,52.433 328.869 C 52.433 329.103,52.701 329.295,53.029 329.295 C 53.357 329.295,53.625 329.486,53.625 329.721 C 53.625 329.955,53.893 330.414,54.220 330.742 C 54.750 331.272,54.816 331.224,54.816 330.316 C 54.816 329.755,54.638 329.295,54.419 329.295 C 54.201 329.295,54.022 329.133,54.022 328.936 C 54.022 328.343,51.532 325.720,50.970 325.720 C 50.682 325.720,50.447 326.077,50.447 326.514 M349.093 327.408 C 348.366 328.337,347.636 329.156,347.471 329.229 C 346.921 329.470,347.160 330.487,347.766 330.487 C 348.093 330.487,348.361 330.218,348.361 329.891 C 348.361 329.563,348.630 329.295,348.957 329.295 C 349.285 329.295,349.553 329.103,349.553 328.869 C 349.553 328.635,349.808 328.188,350.121 327.876 C 350.433 327.564,350.880 327.309,351.114 327.309 C 351.348 327.309,351.539 326.951,351.539 326.514 C 351.539 325.224,350.508 325.601,349.093 327.408 M69.911 346.177 C 69.911 346.504,70.102 346.773,70.336 346.773 C 70.886 346.773,71.897 347.783,71.897 348.333 C 71.897 348.567,72.165 348.759,72.493 348.759 C 72.820 348.759,73.088 348.937,73.088 349.156 C 73.088 349.374,73.446 349.553,73.883 349.553 C 74.320 349.553,74.677 349.403,74.677 349.220 C 74.677 348.764,72.017 346.375,71.510 346.375 C 71.286 346.375,71.102 346.197,71.102 345.978 C 71.102 345.760,70.834 345.581,70.506 345.581 C 70.179 345.581,69.911 345.849,69.911 346.177 M330.818 345.879 C 330.745 346.043,330.015 346.677,329.196 347.289 C 327.676 348.425,327.230 349.553,328.302 349.553 C 328.630 349.553,328.898 349.374,328.898 349.156 C 328.898 348.937,329.166 348.759,329.494 348.759 C 329.821 348.759,330.089 348.491,330.089 348.163 C 330.089 347.835,330.281 347.567,330.515 347.567 C 330.749 347.567,331.196 347.312,331.508 347.000 C 331.820 346.687,332.075 346.241,332.075 346.007 C 332.075 345.526,331.022 345.419,330.818 345.879 M76.805 352.135 C 77.133 352.463,77.593 352.731,77.827 352.731 C 78.061 352.731,78.252 352.999,78.252 353.327 C 78.252 353.654,78.520 353.923,78.848 353.923 C 79.664 353.923,79.600 352.738,78.749 352.092 C 77.705 351.300,76.008 351.337,76.805 352.135 M323.734 351.936 C 323.734 352.155,323.466 352.334,323.138 352.334 C 322.807 352.334,322.542 352.687,322.542 353.128 C 322.542 353.658,322.807 353.923,323.337 353.923 C 323.778 353.923,324.131 353.658,324.131 353.327 C 324.131 352.999,324.310 352.731,324.528 352.731 C 324.747 352.731,324.926 352.463,324.926 352.135 C 324.926 351.807,324.657 351.539,324.330 351.539 C 324.002 351.539,323.734 351.718,323.734 351.936 M81.033 355.313 C 81.033 355.641,81.224 355.909,81.458 355.909 C 82.008 355.909,83.019 356.919,83.019 357.469 C 83.019 357.703,83.466 357.895,84.012 357.895 C 85.212 357.895,85.359 356.869,84.211 356.504 C 83.774 356.366,83.416 356.086,83.416 355.882 C 83.416 355.678,83.148 355.511,82.820 355.511 C 82.493 355.511,82.224 355.333,82.224 355.114 C 82.224 354.896,81.956 354.717,81.629 354.717 C 81.301 354.717,81.033 354.985,81.033 355.313 M319.762 355.114 C 319.762 355.333,319.494 355.511,319.166 355.511 C 318.838 355.511,318.570 355.678,318.570 355.882 C 318.570 356.086,318.213 356.366,317.776 356.504 C 317.339 356.643,316.981 356.979,316.981 357.252 C 316.981 357.524,316.356 357.992,315.591 358.292 C 314.826 358.592,314.201 359.072,314.201 359.359 C 314.201 360.214,315.434 359.952,316.420 358.888 C 316.926 358.342,317.706 357.895,318.154 357.895 C 318.601 357.895,318.967 357.703,318.967 357.469 C 318.967 357.235,319.223 356.788,319.535 356.476 C 319.847 356.164,320.294 355.909,320.528 355.909 C 320.762 355.909,320.953 355.641,320.953 355.313 C 320.953 354.985,320.685 354.717,320.357 354.717 C 320.030 354.717,319.762 354.896,319.762 355.114 M85.402 358.287 C 85.402 358.948,86.432 359.881,87.161 359.881 C 88.010 359.881,87.955 358.842,87.090 358.537 C 86.708 358.402,86.172 358.187,85.899 358.060 C 85.626 357.933,85.402 358.035,85.402 358.287 M89.374 361.271 C 89.374 361.599,89.643 361.867,89.970 361.867 C 90.298 361.867,90.566 361.599,90.566 361.271 C 90.566 360.943,90.298 360.675,89.970 360.675 C 89.643 360.675,89.374 360.943,89.374 361.271 M311.420 361.271 C 311.420 361.599,311.688 361.867,312.016 361.867 C 312.344 361.867,312.612 361.599,312.612 361.271 C 312.612 360.943,312.344 360.675,312.016 360.675 C 311.688 360.675,311.420 360.943,311.420 361.271 M92.560 363.054 C 92.067 363.359,92.085 363.454,92.680 363.682 C 93.508 364.000,94.050 363.603,93.515 363.069 C 93.290 362.843,92.911 362.837,92.560 363.054 M308.515 362.918 C 307.997 363.436,308.245 363.853,309.070 363.853 C 309.532 363.853,309.828 363.645,309.740 363.381 C 309.547 362.801,308.883 362.550,308.515 362.918 M95.333 365.413 C 95.333 365.981,95.588 366.236,96.156 366.236 C 97.174 366.236,97.059 364.922,96.023 364.722 C 95.547 364.630,95.333 364.844,95.333 365.413 M305.329 364.912 C 304.783 365.459,305.093 366.236,305.859 366.236 C 306.389 366.236,306.653 365.972,306.653 365.442 C 306.653 364.676,305.876 364.365,305.329 364.912 M98.510 367.399 C 98.510 367.967,98.766 368.222,99.334 368.222 C 99.902 368.222,100.116 368.009,100.025 367.532 C 99.825 366.496,98.510 366.381,98.510 367.399 M302.152 366.898 C 301.605 367.445,301.916 368.222,302.681 368.222 C 303.211 368.222,303.476 367.958,303.476 367.428 C 303.476 366.662,302.698 366.352,302.152 366.898 M100.497 368.421 C 100.497 368.749,100.765 369.017,101.092 369.017 C 101.420 369.017,101.688 368.749,101.688 368.421 C 101.688 368.093,101.420 367.825,101.092 367.825 C 100.765 367.825,100.497 368.093,100.497 368.421 M300.298 368.421 C 300.298 368.749,300.566 369.017,300.894 369.017 C 301.221 369.017,301.490 368.749,301.490 368.421 C 301.490 368.093,301.221 367.825,300.894 367.825 C 300.566 367.825,300.298 368.093,300.298 368.421 M102.615 369.613 C 102.615 369.940,102.853 370.209,103.145 370.209 C 103.436 370.209,103.674 369.940,103.674 369.613 C 103.674 369.285,103.436 369.017,103.145 369.017 C 102.853 369.017,102.615 369.285,102.615 369.613 M298.312 369.613 C 298.312 369.940,298.580 370.209,298.908 370.209 C 299.235 370.209,299.503 369.940,299.503 369.613 C 299.503 369.285,299.235 369.017,298.908 369.017 C 298.580 369.017,298.312 369.285,298.312 369.613 M105.660 371.599 C 105.660 371.930,106.013 372.195,106.455 372.195 C 106.896 372.195,107.249 371.930,107.249 371.599 C 107.249 371.268,106.896 371.003,106.455 371.003 C 106.013 371.003,105.660 371.268,105.660 371.599 M294.737 371.599 C 294.737 371.930,295.090 372.195,295.531 372.195 C 295.973 372.195,296.326 371.930,296.326 371.599 C 296.326 371.268,295.973 371.003,295.531 371.003 C 295.090 371.003,294.737 371.268,294.737 371.599 M108.143 372.083 C 107.342 372.370,107.574 373.386,108.441 373.386 C 108.878 373.386,109.235 373.129,109.235 372.814 C 109.235 372.123,108.815 371.842,108.143 372.083 M293.010 372.379 C 292.769 373.006,293.072 373.386,293.810 373.386 C 294.101 373.386,294.340 373.137,294.340 372.833 C 294.340 372.082,293.264 371.716,293.010 372.379 M109.633 373.585 C 109.633 373.916,109.986 374.181,110.427 374.181 C 110.868 374.181,111.221 373.916,111.221 373.585 C 111.221 373.254,110.868 372.989,110.427 372.989 C 109.986 372.989,109.633 373.254,109.633 373.585 M290.765 373.585 C 290.765 373.916,291.118 374.181,291.559 374.181 C 292.000 374.181,292.354 373.916,292.354 373.585 C 292.354 373.254,292.000 372.989,291.559 372.989 C 291.118 372.989,290.765 373.254,290.765 373.585 M111.619 374.777 C 111.619 375.108,111.972 375.372,112.413 375.372 C 112.854 375.372,113.208 375.108,113.208 374.777 C 113.208 374.446,112.854 374.181,112.413 374.181 C 111.972 374.181,111.619 374.446,111.619 374.777 M289.176 374.777 C 289.176 375.104,289.444 375.372,289.772 375.372 C 290.099 375.372,290.367 375.104,290.367 374.777 C 290.367 374.449,290.099 374.181,289.772 374.181 C 289.444 374.181,289.176 374.449,289.176 374.777 M114.101 375.260 C 113.317 375.542,113.523 376.167,114.399 376.167 C 114.836 376.167,115.194 375.999,115.194 375.793 C 115.194 375.285,114.702 375.045,114.101 375.260 M287.066 375.232 C 286.548 375.750,286.795 376.167,287.620 376.167 C 288.082 376.167,288.378 375.959,288.290 375.695 C 288.097 375.115,287.434 374.864,287.066 375.232 M115.988 376.763 C 115.988 377.090,116.256 377.358,116.584 377.358 C 116.912 377.358,117.180 377.090,117.180 376.763 C 117.180 376.435,116.912 376.167,116.584 376.167 C 116.256 376.167,115.988 376.435,115.988 376.763 M284.806 376.763 C 284.806 377.094,285.159 377.358,285.601 377.358 C 286.042 377.358,286.395 377.094,286.395 376.763 C 286.395 376.432,286.042 376.167,285.601 376.167 C 285.159 376.167,284.806 376.432,284.806 376.763 M117.974 377.528 C 117.974 377.896,118.314 378.153,118.802 378.153 C 119.770 378.153,119.633 377.225,118.636 377.031 C 118.244 376.955,117.974 377.158,117.974 377.528 M282.820 377.557 C 282.820 377.885,283.088 378.153,283.416 378.153 C 283.744 378.153,284.012 377.885,284.012 377.557 C 284.012 377.229,283.744 376.961,283.416 376.961 C 283.088 376.961,282.820 377.229,282.820 377.557 M119.960 378.749 C 119.960 379.080,120.313 379.345,120.755 379.345 C 121.196 379.345,121.549 379.080,121.549 378.749 C 121.549 378.418,121.196 378.153,120.755 378.153 C 120.313 378.153,119.960 378.418,119.960 378.749 M280.437 378.749 C 280.437 379.080,280.790 379.345,281.231 379.345 C 281.673 379.345,282.026 379.080,282.026 378.749 C 282.026 378.418,281.673 378.153,281.231 378.153 C 280.790 378.153,280.437 378.418,280.437 378.749 M123.138 379.940 C 123.138 380.268,123.401 380.536,123.721 380.536 C 124.077 380.536,124.215 380.303,124.076 379.940 C 123.950 379.613,123.688 379.345,123.493 379.345 C 123.298 379.345,123.138 379.613,123.138 379.940 M278.054 379.974 C 278.054 380.319,278.266 380.532,278.525 380.445 C 279.262 380.200,279.384 379.345,278.683 379.345 C 278.337 379.345,278.054 379.628,278.054 379.974 M125.124 380.735 C 125.124 381.063,125.392 381.331,125.720 381.331 C 126.048 381.331,126.316 381.063,126.316 380.735 C 126.316 380.407,126.048 380.139,125.720 380.139 C 125.392 380.139,125.124 380.407,125.124 380.735 M275.670 380.735 C 275.670 381.063,275.938 381.331,276.266 381.331 C 276.594 381.331,276.862 381.063,276.862 380.735 C 276.862 380.407,276.594 380.139,276.266 380.139 C 275.938 380.139,275.670 380.407,275.670 380.735 M127.375 381.198 C 126.772 381.801,127.169 382.522,128.103 382.522 C 129.212 382.522,129.473 381.560,128.468 381.175 C 127.690 380.876,127.697 380.876,127.375 381.198 M273.386 381.198 C 272.470 381.565,272.850 382.522,273.912 382.522 C 274.653 382.522,274.899 382.340,274.806 381.860 C 274.664 381.132,274.151 380.892,273.386 381.198 M130.288 382.692 C 130.288 383.060,130.628 383.317,131.116 383.317 C 132.084 383.317,131.947 382.389,130.950 382.195 C 130.558 382.119,130.288 382.322,130.288 382.692 M270.506 382.692 C 270.506 383.060,270.846 383.317,271.334 383.317 C 272.302 383.317,272.165 382.389,271.169 382.195 C 270.777 382.119,270.506 382.322,270.506 382.692 M135.319 384.376 C 134.779 384.916,135.083 385.303,136.048 385.303 C 136.666 385.303,137.041 385.078,137.041 384.707 C 137.041 384.111,135.819 383.876,135.319 384.376 M265.224 384.362 C 264.665 384.921,264.969 385.303,265.972 385.303 C 266.616 385.303,266.936 385.118,266.832 384.806 C 266.641 384.232,265.633 383.954,265.224 384.362 M138.729 385.196 C 137.819 385.513,138.194 386.495,139.225 386.495 C 139.809 386.495,140.218 386.267,140.218 385.941 C 140.218 385.313,139.468 384.938,138.729 385.196 M262.264 385.196 C 261.354 385.513,261.729 386.495,262.761 386.495 C 263.345 386.495,263.754 386.267,263.754 385.941 C 263.754 385.313,263.004 384.938,262.264 385.196 M141.675 386.362 C 141.084 386.954,141.466 387.686,142.366 387.686 C 143.126 387.686,143.279 387.524,143.114 386.892 C 142.909 386.109,142.192 385.845,141.675 386.362 M259.000 386.868 C 258.610 387.597,258.675 387.686,259.598 387.686 C 260.352 387.686,260.599 387.506,260.506 387.024 C 260.313 386.028,259.495 385.943,259.000 386.868 M144.588 387.885 C 144.588 388.282,144.985 388.481,145.780 388.481 C 146.574 388.481,146.971 388.282,146.971 387.885 C 146.971 387.488,146.574 387.289,145.780 387.289 C 144.985 387.289,144.588 387.488,144.588 387.885 M255.280 387.554 C 254.686 388.147,255.091 388.481,256.405 388.481 C 257.376 388.481,257.795 388.301,257.795 387.885 C 257.795 387.277,255.817 387.017,255.280 387.554 M148.839 388.334 C 148.214 388.959,148.611 389.672,149.582 389.672 C 150.339 389.672,150.570 389.493,150.471 388.982 C 150.332 388.259,149.317 387.856,148.839 388.334 M251.718 388.334 C 251.094 388.959,251.491 389.672,252.462 389.672 C 253.219 389.672,253.450 389.493,253.351 388.982 C 253.212 388.259,252.197 387.856,251.718 388.334 M152.797 389.540 C 152.293 390.043,152.535 390.467,153.327 390.467 C 153.768 390.467,154.121 390.202,154.121 389.871 C 154.121 389.266,153.281 389.056,152.797 389.540 M247.865 389.842 C 247.865 390.210,248.205 390.467,248.692 390.467 C 249.661 390.467,249.524 389.539,248.527 389.345 C 248.135 389.269,247.865 389.472,247.865 389.842 M156.504 391.063 C 156.504 391.460,156.902 391.658,157.696 391.658 C 158.491 391.658,158.888 391.460,158.888 391.063 C 158.888 390.665,158.491 390.467,157.696 390.467 C 156.902 390.467,156.504 390.665,156.504 391.063 M243.098 391.063 C 243.098 391.460,243.496 391.658,244.290 391.658 C 245.084 391.658,245.482 391.460,245.482 391.063 C 245.482 390.665,245.084 390.467,244.290 390.467 C 243.496 390.467,243.098 390.665,243.098 391.063 M161.950 391.509 C 161.360 392.099,161.713 392.453,162.893 392.453 C 163.695 392.453,164.061 392.282,163.954 391.956 C 163.769 391.393,162.377 391.083,161.950 391.509 M238.216 391.509 C 237.626 392.099,237.979 392.453,239.159 392.453 C 239.961 392.453,240.328 392.282,240.220 391.956 C 240.035 391.393,238.643 391.083,238.216 391.509 M233.466 392.357 C 232.262 392.624,232.655 393.644,233.962 393.644 C 234.716 393.644,235.154 393.441,235.154 393.091 C 235.154 392.444,234.450 392.138,233.466 392.357 M166.832 393.049 C 166.832 393.446,167.229 393.644,168.024 393.644 C 168.818 393.644,169.215 393.446,169.215 393.049 C 169.215 392.651,168.818 392.453,168.024 392.453 C 167.229 392.453,166.832 392.651,166.832 393.049 M172.261 393.512 C 171.389 394.384,172.111 394.836,174.379 394.836 C 176.144 394.836,176.763 394.693,176.763 394.287 C 176.763 393.437,172.985 392.787,172.261 393.512 M225.919 393.521 C 224.153 393.982,225.249 394.836,227.607 394.836 C 229.725 394.836,229.990 394.748,229.990 394.042 C 229.990 393.245,227.966 392.986,225.919 393.521 M183.118 395.016 C 183.118 395.508,183.638 395.631,185.733 395.631 C 189.234 395.631,189.095 394.689,185.569 394.519 C 183.571 394.423,183.118 394.515,183.118 395.016 M213.969 394.704 C 213.289 395.384,213.905 395.631,216.286 395.631 C 218.316 395.631,218.868 395.503,218.868 395.035 C 218.868 394.415,214.550 394.123,213.969 394.704 " stroke="none" fill="#f8f8f8" fill-rule="evenodd" />
        <path id="path1" d="M188.282 2.933 C 188.282 3.753,186.606 3.937,181.430 3.683 C 177.262 3.478,176.763 3.524,176.763 4.110 C 176.763 4.824,175.651 4.970,171.556 4.791 C 169.831 4.716,169.274 4.836,169.087 5.322 C 168.889 5.838,168.422 5.905,166.449 5.698 C 164.389 5.483,164.052 5.540,164.052 6.100 C 164.052 6.793,163.728 6.859,160.827 6.761 C 159.459 6.715,158.930 6.864,158.745 7.347 C 158.542 7.876,158.158 7.943,156.641 7.716 C 155.094 7.484,154.698 7.559,154.249 8.172 C 153.852 8.716,153.301 8.877,152.129 8.792 C 150.858 8.701,150.546 8.811,150.546 9.355 C 150.546 9.916,150.288 9.991,149.038 9.791 C 147.822 9.596,147.396 9.707,146.831 10.367 C 146.255 11.040,145.855 11.138,144.565 10.920 C 143.288 10.704,142.999 10.772,142.999 11.286 C 142.999 11.742,142.614 11.917,141.609 11.917 C 140.589 11.917,140.218 12.089,140.218 12.563 C 140.218 13.097,139.936 13.165,138.600 12.951 C 137.609 12.792,137.073 12.839,137.217 13.071 C 137.562 13.631,136.630 14.071,135.312 13.970 C 133.909 13.863,131.877 14.703,131.877 15.390 C 131.877 15.913,131.470 16.024,129.990 15.904 C 129.385 15.855,129.096 16.050,129.096 16.508 C 129.096 17.059,128.839 17.143,127.706 16.959 C 126.657 16.789,126.316 16.873,126.316 17.304 C 126.316 17.673,125.895 17.875,125.124 17.875 C 124.330 17.875,123.932 18.073,123.932 18.471 C 123.932 18.868,123.535 19.067,122.741 19.067 C 121.906 19.067,121.549 19.260,121.549 19.712 C 121.549 20.215,121.290 20.306,120.375 20.123 C 119.449 19.937,119.248 20.011,119.425 20.470 C 119.591 20.905,119.335 21.053,118.414 21.053 C 117.545 21.053,117.180 21.242,117.180 21.692 C 117.180 22.175,116.938 22.270,116.187 22.081 C 115.454 21.897,115.194 21.990,115.194 22.435 C 115.194 22.807,114.829 23.039,114.243 23.039 C 113.720 23.039,113.185 23.319,113.053 23.662 C 112.901 24.059,112.543 24.199,112.067 24.048 C 111.528 23.877,111.259 24.045,111.100 24.652 C 110.933 25.291,110.682 25.431,110.058 25.232 C 109.465 25.044,109.235 25.145,109.235 25.594 C 109.235 25.986,108.883 26.216,108.285 26.216 C 107.762 26.216,107.226 26.499,107.093 26.844 C 106.914 27.312,106.550 27.405,105.661 27.210 C 104.875 27.037,104.469 27.104,104.469 27.405 C 104.469 28.134,103.407 28.997,102.511 28.997 C 102.044 28.997,101.688 29.255,101.688 29.593 C 101.688 29.924,101.335 30.189,100.894 30.189 C 100.457 30.189,100.099 30.446,100.099 30.761 C 100.099 31.622,99.493 31.829,98.300 31.376 C 97.403 31.035,97.266 31.067,97.460 31.572 C 97.587 31.903,97.518 32.175,97.306 32.175 C 97.095 32.175,96.922 32.443,96.922 32.771 C 96.922 33.146,96.543 33.366,95.900 33.366 C 94.853 33.366,93.744 34.169,93.744 34.927 C 93.744 35.161,93.284 35.353,92.722 35.353 C 91.578 35.353,90.566 36.173,90.566 37.102 C 90.566 37.566,90.288 37.660,89.427 37.488 C 88.441 37.291,88.235 37.413,87.892 38.395 C 87.675 39.019,86.993 39.796,86.378 40.122 C 85.292 40.697,84.099 41.599,82.609 42.970 C 82.188 43.357,81.542 43.545,81.062 43.420 C 80.479 43.267,80.238 43.392,80.238 43.846 C 80.238 44.200,80.060 44.489,79.841 44.489 C 79.623 44.489,79.444 44.717,79.444 44.996 C 79.444 45.785,77.853 46.956,77.149 46.686 C 76.492 46.434,74.677 48.168,74.677 49.047 C 74.677 49.301,74.020 50.033,73.217 50.673 C 72.413 51.313,71.520 52.073,71.232 52.361 C 70.920 52.673,70.366 52.776,69.862 52.616 C 69.268 52.428,69.102 52.487,69.305 52.814 C 69.482 53.100,69.270 53.365,68.759 53.499 C 68.300 53.619,67.925 53.965,67.925 54.267 C 67.925 54.569,67.733 54.816,67.499 54.816 C 66.949 54.816,65.938 55.827,65.938 56.377 C 65.938 56.611,65.747 56.802,65.513 56.802 C 64.963 56.802,63.952 57.813,63.952 58.363 C 63.952 58.597,63.760 58.788,63.525 58.788 C 62.969 58.788,60.775 60.983,60.775 61.538 C 60.775 61.774,60.583 61.966,60.349 61.966 C 59.799 61.966,58.788 62.977,58.788 63.527 C 58.788 63.761,58.597 63.952,58.363 63.952 C 57.813 63.952,56.802 64.963,56.802 65.513 C 56.802 65.747,56.534 65.938,56.207 65.938 C 55.879 65.938,55.611 66.207,55.611 66.534 C 55.611 66.862,55.387 67.085,55.114 67.031 C 54.810 66.970,54.656 67.289,54.717 67.853 C 54.772 68.360,54.593 68.999,54.320 69.273 C 54.047 69.546,53.300 70.427,52.659 71.231 C 52.019 72.034,51.287 72.691,51.033 72.691 C 50.154 72.691,48.420 74.506,48.672 75.162 C 48.942 75.867,47.771 77.458,46.982 77.458 C 46.703 77.458,46.475 77.637,46.475 77.855 C 46.475 78.073,46.186 78.252,45.833 78.252 C 45.384 78.252,45.254 78.494,45.400 79.053 C 45.594 79.794,45.205 80.445,43.297 82.576 C 42.969 82.942,42.434 83.752,42.108 84.376 C 41.783 85.000,41.013 85.686,40.399 85.900 C 39.425 86.239,39.314 86.436,39.534 87.435 C 39.731 88.336,39.645 88.580,39.129 88.580 C 38.163 88.580,37.339 89.573,37.339 90.736 C 37.339 91.298,37.147 91.758,36.913 91.758 C 36.155 91.758,35.353 92.867,35.353 93.914 C 35.353 94.505,35.127 94.935,34.818 94.935 C 34.524 94.935,33.960 95.293,33.565 95.730 C 33.157 96.180,33.045 96.524,33.305 96.524 C 34.092 96.524,33.806 97.779,32.969 97.998 C 32.530 98.113,32.175 98.540,32.175 98.954 C 32.175 99.365,31.907 99.702,31.579 99.702 C 31.225 99.702,30.983 100.067,30.983 100.601 C 30.983 101.095,30.544 101.829,30.008 102.232 C 29.235 102.813,29.081 103.201,29.264 104.113 C 29.442 105.004,29.348 105.263,28.848 105.263 C 28.424 105.263,28.203 105.604,28.203 106.256 C 28.203 106.893,27.979 107.249,27.580 107.249 C 27.138 107.249,27.031 107.480,27.210 108.046 C 27.378 108.575,27.254 108.922,26.840 109.081 C 26.497 109.213,26.216 109.727,26.216 110.225 C 26.216 110.785,25.924 111.205,25.448 111.330 C 24.893 111.475,24.740 111.764,24.898 112.369 C 25.055 112.970,24.933 113.208,24.468 113.208 C 23.973 113.208,23.878 113.445,24.067 114.201 C 24.261 114.972,24.164 115.194,23.631 115.194 C 23.106 115.194,22.993 115.437,23.145 116.236 C 23.291 116.998,23.160 117.326,22.657 117.458 C 22.171 117.585,22.023 117.921,22.153 118.600 C 22.286 119.298,22.160 119.563,21.695 119.563 C 21.246 119.563,21.053 119.922,21.053 120.755 C 21.053 121.549,20.854 121.946,20.457 121.946 C 20.060 121.946,19.861 122.344,19.861 123.138 C 19.861 123.793,19.682 124.330,19.464 124.330 C 19.245 124.330,19.067 124.955,19.067 125.720 C 19.067 126.738,18.894 127.110,18.421 127.110 C 17.911 127.110,17.827 127.369,18.021 128.340 C 18.216 129.311,18.119 129.608,17.562 129.754 C 16.618 130.000,15.747 132.062,16.017 133.411 C 16.268 134.667,15.786 135.680,15.129 135.275 C 14.806 135.075,14.751 135.453,14.936 136.608 C 15.144 137.905,15.064 138.269,14.526 138.475 C 14.155 138.618,13.888 139.106,13.925 139.574 C 14.040 141.049,13.918 141.410,13.302 141.410 C 12.824 141.410,12.753 141.734,12.955 142.992 C 13.158 144.263,13.075 144.625,12.536 144.832 C 12.081 145.007,11.886 145.489,11.931 146.329 C 12.035 148.286,11.957 148.560,11.290 148.560 C 10.819 148.560,10.681 148.929,10.733 150.050 C 10.837 152.305,10.778 152.532,10.083 152.532 C 9.537 152.532,9.482 152.858,9.715 154.717 C 9.950 156.599,9.896 156.902,9.327 156.902 C 8.783 156.902,8.681 157.272,8.751 158.987 C 8.885 162.230,8.818 162.578,8.108 162.306 C 7.562 162.096,7.495 162.425,7.611 164.746 C 7.718 166.881,7.633 167.404,7.192 167.310 C 6.747 167.214,6.684 167.644,6.874 169.483 C 7.206 172.703,6.815 175.283,6.039 174.985 C 5.514 174.784,5.473 175.423,5.707 180.091 C 5.933 184.587,5.880 185.523,5.371 186.032 C 4.554 186.849,4.451 211.545,5.263 211.820 C 5.637 211.946,5.729 213.376,5.635 217.612 C 5.532 222.285,5.607 223.237,6.080 223.237 C 6.796 223.237,7.181 225.838,6.863 228.526 C 6.674 230.115,6.758 230.557,7.304 230.863 C 7.870 231.179,7.935 231.615,7.711 233.594 C 7.488 235.568,7.544 235.948,8.059 235.948 C 8.902 235.948,9.077 236.613,8.829 238.877 C 8.658 240.439,8.748 240.887,9.298 241.195 C 9.864 241.512,9.935 241.930,9.718 243.671 C 9.482 245.554,9.537 245.787,10.257 245.976 C 10.946 246.156,11.028 246.415,10.840 247.819 C 10.660 249.156,10.739 249.454,11.268 249.454 C 11.932 249.454,12.047 249.911,11.931 252.083 C 11.887 252.912,12.082 253.404,12.521 253.573 C 13.048 253.775,13.125 254.140,12.909 255.413 C 12.690 256.711,12.756 257.001,13.272 257.001 C 13.923 257.001,14.043 257.352,13.918 258.888 C 13.869 259.492,14.064 259.782,14.521 259.782 C 15.086 259.782,15.154 260.040,14.942 261.370 C 14.740 262.635,14.810 262.959,15.288 262.959 C 15.941 262.959,16.000 263.202,15.897 265.442 C 15.858 266.283,16.014 266.931,16.256 266.931 C 16.491 266.931,16.683 267.268,16.683 267.680 C 16.683 268.093,17.038 268.520,17.475 268.635 C 18.126 268.805,18.223 269.062,18.021 270.071 C 17.827 271.042,17.911 271.301,18.421 271.301 C 18.894 271.301,19.067 271.673,19.067 272.691 C 19.067 273.599,19.254 274.081,19.607 274.081 C 19.970 274.081,20.085 274.409,19.958 275.074 C 19.819 275.802,19.940 276.068,20.410 276.068 C 20.854 276.068,21.053 276.423,21.053 277.217 C 21.053 277.905,21.308 278.464,21.691 278.611 C 22.134 278.781,22.256 279.143,22.092 279.799 C 21.912 280.515,22.040 280.792,22.620 280.944 C 23.171 281.088,23.323 281.377,23.165 281.982 C 23.004 282.598,23.130 282.820,23.638 282.820 C 24.195 282.820,24.283 283.053,24.091 284.012 C 23.913 284.905,24.000 285.204,24.439 285.204 C 24.799 285.204,25.025 285.586,25.025 286.197 C 25.025 286.815,25.250 287.190,25.621 287.190 C 25.991 287.190,26.216 287.565,26.216 288.183 C 26.216 288.830,26.439 289.176,26.855 289.176 C 27.339 289.176,27.434 289.418,27.245 290.169 C 27.061 290.902,27.154 291.162,27.599 291.162 C 27.978 291.162,28.203 291.531,28.203 292.155 C 28.203 292.807,28.424 293.148,28.848 293.148 C 29.353 293.148,29.442 293.407,29.255 294.340 C 29.077 295.233,29.164 295.531,29.603 295.531 C 29.925 295.531,30.189 295.799,30.189 296.127 C 30.189 296.455,30.367 296.723,30.586 296.723 C 30.804 296.723,30.983 297.080,30.983 297.517 C 30.983 297.959,31.248 298.312,31.579 298.312 C 31.910 298.312,32.175 298.665,32.175 299.106 C 32.175 299.543,32.424 299.901,32.728 299.901 C 33.451 299.901,33.886 301.062,33.388 301.663 C 32.988 302.144,34.143 303.476,34.960 303.476 C 35.176 303.476,35.353 303.935,35.353 304.497 C 35.353 305.545,36.155 306.653,36.913 306.653 C 37.147 306.653,37.339 307.172,37.339 307.806 C 37.339 308.736,37.575 309.041,38.560 309.385 C 39.539 309.726,39.731 309.971,39.526 310.617 C 39.240 311.519,40.092 312.612,41.084 312.612 C 41.427 312.612,41.708 312.880,41.708 313.208 C 41.708 313.535,41.887 313.803,42.105 313.803 C 42.324 313.803,42.502 314.161,42.502 314.598 C 42.502 315.035,42.726 315.399,42.999 315.407 C 43.798 315.432,45.649 318.404,45.417 319.291 C 45.254 319.916,45.460 320.135,46.409 320.343 C 47.829 320.655,48.899 322.100,48.589 323.286 C 48.431 323.891,48.551 324.131,49.010 324.131 C 49.363 324.131,49.652 324.387,49.652 324.700 C 49.652 325.013,50.055 325.389,50.546 325.534 C 51.489 325.814,54.022 328.281,54.022 328.920 C 54.022 329.126,54.201 329.295,54.419 329.295 C 54.638 329.295,54.816 329.742,54.816 330.288 C 54.816 330.834,54.995 331.281,55.214 331.281 C 55.432 331.281,55.611 331.549,55.611 331.877 C 55.611 332.205,55.802 332.473,56.036 332.473 C 56.586 332.473,57.597 333.483,57.597 334.033 C 57.597 334.267,57.788 334.459,58.022 334.459 C 58.572 334.459,59.583 335.469,59.583 336.019 C 59.583 336.253,59.851 336.445,60.179 336.445 C 60.506 336.445,60.775 336.636,60.775 336.870 C 60.775 337.420,61.785 338.431,62.335 338.431 C 62.569 338.431,62.761 338.699,62.761 339.027 C 62.761 339.355,62.952 339.623,63.186 339.623 C 63.736 339.623,64.747 340.633,64.747 341.183 C 64.747 341.417,64.938 341.609,65.172 341.609 C 65.722 341.609,66.733 342.619,66.733 343.169 C 66.733 343.403,67.001 343.595,67.329 343.595 C 67.656 343.595,67.925 343.863,67.925 344.191 C 67.925 344.518,68.203 344.786,68.544 344.786 C 68.884 344.786,69.053 344.965,68.918 345.184 C 68.774 345.415,69.178 345.581,69.887 345.581 C 70.555 345.581,71.102 345.760,71.102 345.978 C 71.102 346.197,71.286 346.375,71.510 346.375 C 72.154 346.375,74.632 348.784,74.919 349.689 C 75.297 350.879,76.079 351.537,77.132 351.552 C 78.198 351.566,79.444 352.401,79.444 353.101 C 79.444 353.851,80.493 354.717,81.402 354.717 C 81.854 354.717,82.224 354.896,82.224 355.114 C 82.224 355.333,82.493 355.511,82.820 355.511 C 83.148 355.511,83.416 355.678,83.416 355.882 C 83.416 356.086,83.774 356.366,84.211 356.504 C 84.647 356.643,85.005 356.979,85.005 357.252 C 85.005 357.524,85.623 357.989,86.379 358.285 C 87.374 358.676,87.822 359.141,88.004 359.972 C 88.230 360.999,88.378 361.093,89.411 360.866 C 90.306 360.669,90.566 360.754,90.566 361.240 C 90.566 361.585,90.745 361.867,90.963 361.867 C 91.182 361.867,91.360 362.148,91.360 362.491 C 91.360 362.915,91.658 363.076,92.289 362.994 C 93.225 362.871,94.538 363.825,94.538 364.627 C 94.538 364.886,94.922 364.963,95.494 364.820 C 96.266 364.626,96.554 364.796,96.999 365.706 C 97.437 366.603,97.775 366.808,98.657 366.713 C 99.479 366.624,99.818 366.792,99.967 367.362 C 100.104 367.887,100.408 368.067,100.928 367.931 C 101.445 367.796,101.688 367.938,101.688 368.375 C 101.688 368.795,102.031 369.017,102.681 369.017 C 103.227 369.017,103.674 369.208,103.674 369.442 C 103.674 370.249,104.812 371.003,106.029 371.003 C 106.888 371.003,107.249 371.193,107.249 371.645 C 107.249 372.103,107.490 372.224,108.088 372.068 C 108.676 371.914,108.981 372.060,109.111 372.557 C 109.243 373.063,109.571 373.212,110.259 373.080 C 110.956 372.947,111.221 373.073,111.221 373.539 C 111.221 373.959,111.565 374.181,112.214 374.181 C 112.864 374.181,113.208 374.403,113.208 374.823 C 113.208 375.276,113.449 375.402,114.026 375.251 C 114.527 375.120,114.929 375.256,115.062 375.602 C 115.181 375.913,115.706 376.167,116.229 376.167 C 116.815 376.167,117.180 376.399,117.180 376.770 C 117.180 377.215,117.440 377.308,118.169 377.125 C 118.873 376.949,119.229 377.061,119.403 377.515 C 119.538 377.866,120.076 378.153,120.599 378.153 C 121.179 378.153,121.549 378.385,121.549 378.749 C 121.549 379.141,121.942 379.345,122.698 379.345 C 123.362 379.345,123.946 379.601,124.080 379.950 C 124.243 380.375,124.612 380.481,125.314 380.304 C 126.095 380.108,126.316 380.204,126.316 380.738 C 126.316 381.238,126.541 381.365,127.149 381.206 C 128.240 380.920,129.096 381.270,129.096 382.001 C 129.096 382.444,129.385 382.522,130.288 382.324 C 131.178 382.128,131.541 382.221,131.721 382.689 C 131.854 383.034,132.192 383.317,132.473 383.317 C 132.754 383.317,133.094 383.605,133.229 383.957 C 133.427 384.473,133.820 384.546,135.258 384.330 C 136.753 384.106,137.041 384.168,137.041 384.713 C 137.041 385.175,137.357 385.342,138.133 385.291 C 139.912 385.173,140.218 385.269,140.218 385.943 C 140.218 386.455,140.487 386.533,141.560 386.331 C 142.687 386.120,142.935 386.208,143.111 386.880 C 143.296 387.586,143.537 387.652,145.146 387.431 C 146.719 387.216,146.971 387.278,146.971 387.882 C 146.971 388.479,147.210 388.544,148.595 388.323 C 150.031 388.093,150.244 388.161,150.440 388.914 C 150.638 389.669,150.857 389.738,152.392 389.527 C 153.761 389.340,154.121 389.413,154.121 389.879 C 154.121 390.333,154.664 390.467,156.504 390.467 C 158.450 390.467,158.888 390.587,158.888 391.119 C 158.888 391.680,159.225 391.736,161.285 391.521 C 163.205 391.320,163.728 391.388,163.910 391.862 C 164.078 392.300,164.794 392.453,166.676 392.453 C 168.758 392.453,169.215 392.569,169.215 393.100 C 169.215 393.661,169.577 393.711,171.949 393.478 C 175.093 393.168,176.763 393.467,176.763 394.339 C 176.763 394.870,177.471 394.912,182.325 394.665 C 187.184 394.419,187.919 394.462,188.128 395.007 C 188.491 395.953,213.495 395.953,213.858 395.007 C 214.068 394.462,214.802 394.419,219.661 394.665 C 224.558 394.914,225.223 394.873,225.223 394.328 C 225.223 393.461,227.113 393.131,230.189 393.461 C 232.416 393.699,232.771 393.649,232.771 393.095 C 232.771 392.413,233.099 392.346,235.995 392.444 C 237.329 392.489,237.894 392.338,238.066 391.888 C 238.260 391.383,238.741 391.316,240.701 391.521 C 242.761 391.736,243.098 391.680,243.098 391.119 C 243.098 390.587,243.536 390.467,245.482 390.467 C 247.322 390.467,247.865 390.333,247.865 389.879 C 247.865 389.413,248.225 389.340,249.594 389.527 C 251.136 389.739,251.348 389.671,251.549 388.900 C 251.747 388.144,251.955 388.070,253.217 388.306 C 254.349 388.519,254.769 388.425,255.174 387.871 C 255.571 387.328,256.024 387.220,257.139 387.401 C 258.307 387.590,258.667 387.489,258.994 386.878 C 259.307 386.294,259.671 386.175,260.584 386.357 C 261.509 386.542,261.768 386.453,261.768 385.948 C 261.768 385.274,262.074 385.175,263.801 385.285 C 264.429 385.325,264.937 385.103,265.082 384.725 C 265.270 384.235,265.670 384.154,266.915 384.353 C 268.176 384.555,268.559 384.473,268.755 383.962 C 268.891 383.607,269.341 383.317,269.755 383.317 C 270.175 383.317,270.506 383.040,270.506 382.689 C 270.506 382.199,270.767 382.119,271.698 382.324 C 272.601 382.522,272.890 382.444,272.890 382.001 C 272.890 381.270,273.746 380.920,274.838 381.206 C 275.441 381.363,275.670 381.238,275.670 380.750 C 275.670 380.208,275.903 380.127,276.862 380.338 C 277.794 380.542,278.054 380.462,278.054 379.972 C 278.054 379.540,278.424 379.345,279.245 379.345 C 280.040 379.345,280.437 379.146,280.437 378.749 C 280.437 378.352,280.834 378.153,281.629 378.153 C 282.459 378.153,282.820 377.959,282.820 377.514 C 282.820 377.031,283.062 376.936,283.813 377.124 C 284.546 377.308,284.806 377.216,284.806 376.770 C 284.806 376.399,285.171 376.167,285.757 376.167 C 286.280 376.167,286.812 375.894,286.940 375.561 C 287.103 375.137,287.472 375.031,288.174 375.207 C 288.934 375.398,289.176 375.304,289.176 374.820 C 289.176 374.446,289.505 374.181,289.970 374.181 C 290.439 374.181,290.765 373.916,290.765 373.535 C 290.765 373.030,291.023 372.942,291.953 373.127 C 292.606 373.258,293.121 373.236,293.097 373.078 C 292.965 372.206,293.230 371.893,293.942 372.080 C 294.495 372.224,294.737 372.092,294.737 371.645 C 294.737 371.193,295.098 371.003,295.957 371.003 C 297.174 371.003,298.312 370.249,298.312 369.442 C 298.312 369.208,298.759 369.017,299.305 369.017 C 299.955 369.017,300.298 368.795,300.298 368.375 C 300.298 367.938,300.541 367.796,301.058 367.931 C 301.585 368.069,301.882 367.885,302.028 367.329 C 302.184 366.733,302.459 366.587,303.107 366.756 C 304.031 366.998,304.732 366.507,305.190 365.300 C 305.399 364.747,305.716 364.625,306.459 364.812 C 307.023 364.953,307.448 364.888,307.448 364.660 C 307.448 363.735,308.806 362.688,309.711 362.915 C 310.382 363.084,310.626 362.974,310.626 362.506 C 310.626 362.154,310.804 361.867,311.023 361.867 C 311.241 361.867,311.420 361.579,311.420 361.228 C 311.420 360.740,311.661 360.650,312.442 360.846 C 313.312 361.064,313.529 360.929,313.902 359.943 C 314.180 359.205,314.820 358.594,315.660 358.265 C 316.387 357.980,316.981 357.524,316.981 357.252 C 316.981 356.979,317.339 356.643,317.776 356.504 C 318.213 356.366,318.570 356.086,318.570 355.882 C 318.570 355.678,318.838 355.511,319.166 355.511 C 319.494 355.511,319.762 355.333,319.762 355.114 C 319.762 354.896,320.132 354.717,320.584 354.717 C 321.560 354.717,322.542 353.834,322.542 352.958 C 322.542 352.615,322.810 352.334,323.138 352.334 C 323.466 352.334,323.734 352.141,323.734 351.905 C 323.734 351.635,324.176 351.573,324.926 351.738 C 325.857 351.942,326.117 351.863,326.117 351.372 C 326.117 351.027,326.296 350.745,326.514 350.745 C 326.733 350.745,326.912 350.477,326.912 350.149 C 326.912 349.821,327.090 349.553,327.309 349.553 C 327.527 349.553,327.706 349.294,327.706 348.978 C 327.706 348.661,328.376 347.901,329.196 347.289 C 330.015 346.677,330.745 346.043,330.818 345.879 C 330.890 345.715,331.337 345.575,331.811 345.568 C 332.807 345.554,334.062 344.706,334.062 344.048 C 334.062 343.799,334.330 343.595,334.657 343.595 C 334.985 343.595,335.253 343.403,335.253 343.169 C 335.253 342.619,336.264 341.609,336.814 341.609 C 337.048 341.609,337.239 341.341,337.239 341.013 C 337.239 340.685,337.431 340.417,337.665 340.417 C 338.215 340.417,339.225 339.407,339.225 338.857 C 339.225 338.622,339.417 338.431,339.651 338.431 C 340.201 338.431,341.212 337.420,341.212 336.870 C 341.212 336.636,341.480 336.445,341.807 336.445 C 342.135 336.445,342.403 336.253,342.403 336.019 C 342.403 335.469,343.414 334.459,343.964 334.459 C 344.198 334.459,344.389 334.267,344.389 334.033 C 344.389 333.483,345.400 332.473,345.950 332.473 C 346.184 332.473,346.375 332.199,346.375 331.864 C 346.375 331.530,346.632 331.158,346.946 331.037 C 347.263 330.916,347.414 330.549,347.285 330.215 C 347.158 329.883,347.219 329.496,347.420 329.354 C 347.621 329.212,348.367 328.350,349.077 327.437 C 349.876 326.410,350.819 325.680,351.553 325.518 C 352.205 325.375,352.636 325.093,352.511 324.890 C 352.386 324.688,352.576 324.410,352.934 324.273 C 353.358 324.110,353.514 323.731,353.381 323.184 C 353.120 322.112,354.279 320.681,355.694 320.326 C 356.580 320.104,356.742 319.879,356.590 319.082 C 356.475 318.482,356.613 318.030,356.951 317.900 C 357.251 317.785,357.498 317.442,357.498 317.137 C 357.498 316.833,357.676 316.584,357.895 316.584 C 358.113 316.584,358.292 316.316,358.292 315.988 C 358.292 315.660,358.633 315.392,359.049 315.392 C 359.611 315.392,359.753 315.187,359.599 314.598 C 359.483 314.154,359.587 313.803,359.835 313.803 C 360.078 313.803,360.278 313.535,360.278 313.208 C 360.278 312.880,360.559 312.612,360.902 312.612 C 361.894 312.612,362.746 311.519,362.460 310.617 C 362.255 309.971,362.447 309.726,363.426 309.385 C 364.411 309.041,364.647 308.736,364.647 307.806 C 364.647 307.172,364.824 306.653,365.040 306.653 C 365.958 306.653,367.003 305.292,366.777 304.391 C 366.635 303.823,366.725 303.476,367.016 303.476 C 367.816 303.476,368.620 302.389,368.620 301.307 C 368.620 300.738,368.888 300.170,369.215 300.044 C 369.543 299.919,369.811 299.477,369.811 299.064 C 369.811 298.650,370.079 298.312,370.407 298.312 C 370.738 298.312,371.003 297.959,371.003 297.517 C 371.003 297.080,371.182 296.723,371.400 296.723 C 371.619 296.723,371.797 296.455,371.797 296.127 C 371.797 295.799,372.080 295.531,372.425 295.531 C 372.915 295.531,372.995 295.271,372.790 294.340 C 372.586 293.408,372.666 293.148,373.156 293.148 C 373.561 293.148,373.784 292.795,373.784 292.155 C 373.784 291.507,374.006 291.162,374.422 291.162 C 374.906 291.162,375.001 290.920,374.812 290.169 C 374.607 289.353,374.707 289.176,375.372 289.176 C 376.038 289.176,376.138 288.999,375.933 288.183 C 375.744 287.432,375.839 287.190,376.322 287.190 C 376.739 287.190,376.961 286.844,376.961 286.197 C 376.961 285.549,377.183 285.204,377.600 285.204 C 378.085 285.204,378.178 284.962,377.988 284.202 C 377.811 283.500,377.917 283.131,378.342 282.968 C 378.675 282.840,378.947 282.308,378.947 281.785 C 378.947 281.199,379.179 280.834,379.551 280.834 C 379.995 280.834,380.089 280.574,379.906 279.845 C 379.729 279.140,379.841 278.785,380.296 278.611 C 380.678 278.464,380.933 277.905,380.933 277.217 C 380.933 276.460,381.137 276.068,381.529 276.068 C 381.900 276.068,382.125 275.692,382.125 275.074 C 382.125 274.476,382.352 274.081,382.696 274.081 C 383.127 274.081,383.211 273.740,383.041 272.691 C 382.856 271.547,382.938 271.301,383.509 271.301 C 384.059 271.301,384.164 271.045,384.019 270.056 C 383.877 269.087,383.999 268.769,384.569 268.620 C 384.973 268.514,385.303 268.091,385.303 267.680 C 385.303 267.268,385.495 266.931,385.730 266.931 C 385.972 266.931,386.128 266.283,386.089 265.442 C 385.985 263.196,386.045 262.959,386.711 262.959 C 387.197 262.959,387.271 262.671,387.065 261.573 C 386.864 260.502,386.950 260.131,387.444 259.942 C 387.858 259.783,388.083 259.221,388.083 258.349 C 388.083 257.382,388.262 257.001,388.714 257.001 C 389.228 257.001,389.296 256.712,389.082 255.442 C 388.859 254.122,388.943 253.816,389.634 253.447 C 390.334 253.072,390.415 252.760,390.205 251.232 C 390.002 249.751,390.070 249.454,390.611 249.454 C 391.117 249.454,391.261 249.056,391.261 247.666 C 391.261 246.286,391.407 245.879,391.903 245.879 C 392.449 245.879,392.504 245.553,392.271 243.693 C 392.043 241.870,392.106 241.465,392.649 241.257 C 393.137 241.070,393.285 240.545,393.239 239.173 C 393.141 236.274,393.207 235.948,393.894 235.948 C 394.451 235.948,394.504 235.613,394.271 233.560 C 394.044 231.555,394.105 231.132,394.651 230.923 C 395.164 230.726,395.278 230.207,395.194 228.445 C 395.009 224.547,395.174 223.237,395.850 223.237 C 396.384 223.237,396.451 222.488,396.347 217.650 C 396.239 212.666,396.302 212.020,396.922 211.671 C 397.987 211.073,397.987 187.519,396.922 186.450 C 396.314 185.841,396.242 185.063,396.347 180.269 C 396.452 175.445,396.393 174.814,395.850 175.022 C 395.171 175.283,395.016 173.928,395.216 169.463 C 395.283 167.976,395.176 167.218,394.921 167.375 C 394.285 167.768,394.074 166.676,394.322 164.274 C 394.524 162.319,394.472 162.078,393.900 162.297 C 393.189 162.570,393.124 162.221,393.241 158.788 C 393.293 157.275,393.177 156.902,392.652 156.902 C 392.091 156.902,392.037 156.591,392.271 154.717 C 392.504 152.858,392.449 152.532,391.903 152.532 C 391.398 152.532,391.261 152.110,391.261 150.546 C 391.261 148.983,391.125 148.560,390.620 148.560 C 390.086 148.560,390.024 148.263,390.247 146.773 C 390.463 145.332,390.400 144.985,389.922 144.985 C 389.165 144.985,388.771 143.760,389.103 142.437 C 389.301 141.651,389.211 141.410,388.722 141.410 C 388.261 141.410,388.083 141.036,388.083 140.062 C 388.083 139.190,387.858 138.628,387.444 138.469 C 386.950 138.280,386.864 137.909,387.065 136.838 C 387.271 135.740,387.197 135.452,386.711 135.452 C 386.232 135.452,386.097 134.973,386.097 133.267 C 386.097 132.066,385.919 131.082,385.700 131.082 C 385.482 131.082,385.303 130.835,385.303 130.533 C 385.303 130.231,384.946 129.890,384.511 129.776 C 383.861 129.606,383.763 129.349,383.965 128.340 C 384.165 127.339,384.081 127.110,383.513 127.110 C 382.938 127.110,382.855 126.867,383.041 125.720 C 383.211 124.671,383.127 124.330,382.696 124.330 C 382.327 124.330,382.125 123.909,382.125 123.138 C 382.125 122.344,381.927 121.946,381.529 121.946 C 381.132 121.946,380.933 121.549,380.933 120.755 C 380.933 119.922,380.740 119.563,380.291 119.563 C 379.821 119.563,379.700 119.298,379.839 118.570 C 379.966 117.904,379.851 117.577,379.488 117.577 C 379.152 117.577,378.947 117.126,378.947 116.385 C 378.947 115.555,378.754 115.194,378.308 115.194 C 377.825 115.194,377.730 114.952,377.919 114.201 C 378.103 113.468,378.010 113.208,377.565 113.208 C 377.186 113.208,376.961 112.838,376.961 112.214 C 376.961 111.567,376.739 111.221,376.322 111.221 C 375.847 111.221,375.745 110.978,375.921 110.274 C 376.106 109.537,375.975 109.278,375.333 109.110 C 374.708 108.947,374.570 108.693,374.768 108.072 C 374.956 107.479,374.855 107.249,374.406 107.249 C 374.014 107.249,373.784 106.897,373.784 106.299 C 373.784 105.776,373.496 105.238,373.146 105.103 C 372.703 104.934,372.580 104.571,372.743 103.921 C 372.919 103.219,372.730 102.796,371.991 102.241 C 371.447 101.833,371.003 101.095,371.003 100.601 C 371.003 100.067,370.761 99.702,370.407 99.702 C 370.076 99.702,369.811 99.349,369.811 98.908 C 369.811 98.438,369.547 98.113,369.164 98.113 C 368.647 98.113,368.561 97.836,368.738 96.746 C 368.912 95.668,368.840 95.426,368.392 95.597 C 368.080 95.717,367.825 95.617,367.825 95.375 C 367.825 95.133,367.544 94.935,367.201 94.935 C 366.777 94.935,366.616 94.638,366.698 94.007 C 366.820 93.075,365.868 91.758,365.073 91.758 C 364.839 91.758,364.647 91.298,364.647 90.736 C 364.647 89.592,363.827 88.580,362.898 88.580 C 362.430 88.580,362.340 88.302,362.519 87.407 C 362.722 86.392,362.617 86.201,361.735 85.979 C 360.632 85.702,359.303 84.030,359.689 83.405 C 359.820 83.193,359.664 83.019,359.341 83.019 C 359.018 83.019,358.367 82.393,357.895 81.629 C 357.422 80.864,356.896 80.238,356.726 80.238 C 356.555 80.238,356.501 79.791,356.606 79.245 C 356.745 78.517,356.624 78.252,356.154 78.252 C 355.800 78.252,355.511 78.073,355.511 77.855 C 355.511 77.637,355.333 77.458,355.114 77.458 C 354.289 77.458,353.086 75.833,353.334 75.053 C 353.619 74.155,352.922 73.325,351.521 72.893 C 350.562 72.597,349.156 71.393,349.156 70.867 C 349.156 70.719,348.705 70.179,348.153 69.668 C 347.389 68.960,347.210 68.499,347.403 67.731 C 347.608 66.914,347.535 66.770,347.015 66.969 C 346.590 67.133,346.375 67.001,346.375 66.577 C 346.375 66.226,346.197 65.938,345.978 65.938 C 345.760 65.938,345.581 65.670,345.581 65.343 C 345.581 65.015,345.313 64.747,344.985 64.747 C 344.657 64.747,344.389 64.568,344.389 64.350 C 344.389 64.131,344.121 63.952,343.793 63.952 C 343.466 63.952,343.198 63.761,343.198 63.527 C 343.198 62.977,342.187 61.966,341.637 61.966 C 341.403 61.966,341.212 61.698,341.212 61.370 C 341.212 61.043,341.033 60.775,340.814 60.775 C 340.596 60.775,340.417 60.506,340.417 60.179 C 340.417 59.851,340.226 59.583,339.991 59.583 C 339.442 59.583,338.431 58.572,338.431 58.022 C 338.431 57.788,338.163 57.597,337.835 57.597 C 337.507 57.597,337.239 57.418,337.239 57.200 C 337.239 56.981,336.971 56.802,336.643 56.802 C 336.316 56.802,336.048 56.611,336.048 56.377 C 336.048 55.827,335.037 54.816,334.487 54.816 C 334.253 54.816,334.062 54.567,334.062 54.263 C 334.062 53.959,333.782 53.602,333.441 53.471 C 333.099 53.340,332.915 53.079,333.031 52.890 C 333.148 52.702,332.812 52.630,332.285 52.731 C 331.577 52.866,330.944 52.541,329.853 51.482 C 329.042 50.694,328.227 50.050,328.042 50.050 C 327.857 50.050,327.706 49.732,327.706 49.343 C 327.706 48.954,327.349 48.378,326.912 48.064 C 326.475 47.749,326.117 47.243,326.117 46.940 C 326.117 46.552,325.826 46.462,325.134 46.635 C 324.084 46.899,322.542 45.924,322.542 44.996 C 322.542 44.717,322.363 44.489,322.145 44.489 C 321.927 44.489,321.748 44.201,321.748 43.850 C 321.748 43.367,321.506 43.272,320.755 43.460 C 320.209 43.597,319.762 43.542,319.762 43.337 C 319.762 43.132,319.135 42.577,318.369 42.104 C 317.603 41.630,317.077 41.079,317.201 40.880 C 317.324 40.680,317.140 40.516,316.792 40.516 C 315.738 40.516,314.292 39.345,314.023 38.272 C 313.811 37.431,313.604 37.303,312.784 37.508 C 312.058 37.691,311.730 37.570,311.533 37.050 C 311.101 35.911,310.355 35.353,309.264 35.353 C 308.621 35.353,308.242 35.132,308.242 34.757 C 308.242 34.429,308.053 34.161,307.822 34.161 C 307.590 34.161,307.511 33.982,307.646 33.764 C 307.791 33.529,307.349 33.366,306.565 33.366 C 305.442 33.366,305.166 33.175,304.767 32.116 C 304.385 31.106,304.188 30.954,303.737 31.328 C 303.065 31.886,301.887 31.513,301.887 30.742 C 301.887 30.438,301.529 30.189,301.092 30.189 C 300.651 30.189,300.298 29.924,300.298 29.593 C 300.298 29.255,299.942 28.997,299.475 28.997 C 298.579 28.997,297.517 28.134,297.517 27.405 C 297.517 27.104,297.111 27.037,296.325 27.210 C 295.436 27.405,295.072 27.312,294.893 26.844 C 294.760 26.499,294.333 26.216,293.942 26.216 C 293.552 26.216,293.125 25.936,292.994 25.593 C 292.832 25.170,292.490 25.054,291.930 25.232 C 291.315 25.427,291.054 25.294,290.901 24.709 C 290.760 24.170,290.459 23.987,289.936 24.124 C 289.419 24.260,289.176 24.118,289.176 23.681 C 289.176 23.234,288.818 23.039,287.997 23.039 C 287.075 23.039,286.871 22.899,287.063 22.398 C 287.269 21.861,287.107 21.802,286.058 22.033 C 285.066 22.250,284.806 22.177,284.806 21.680 C 284.806 21.276,284.453 21.053,283.813 21.053 C 283.203 21.053,282.820 20.827,282.820 20.467 C 282.820 20.028,282.522 19.941,281.629 20.119 C 280.696 20.306,280.437 20.217,280.437 19.712 C 280.437 19.260,280.080 19.067,279.245 19.067 C 278.451 19.067,278.054 18.868,278.054 18.471 C 278.054 18.073,277.656 17.875,276.862 17.875 C 276.061 17.875,275.670 17.677,275.670 17.271 C 275.670 16.817,275.410 16.733,274.615 16.933 C 273.847 17.126,273.421 17.006,273.045 16.492 C 272.709 16.033,272.230 15.865,271.672 16.011 C 271.047 16.174,270.762 16.027,270.615 15.466 C 270.504 15.043,270.088 14.697,269.689 14.697 C 269.291 14.697,268.846 14.506,268.702 14.273 C 268.558 14.040,267.877 13.879,267.189 13.916 C 265.229 14.021,264.945 13.944,264.945 13.302 C 264.945 12.824,264.622 12.753,263.357 12.956 C 262.049 13.165,261.768 13.095,261.768 12.563 C 261.768 12.089,261.397 11.917,260.377 11.917 C 259.364 11.917,258.987 11.743,258.987 11.277 C 258.987 10.765,258.719 10.687,257.650 10.887 C 256.059 11.186,255.015 10.859,255.015 10.062 C 255.015 9.603,254.649 9.539,253.227 9.753 C 251.708 9.980,251.440 9.920,251.440 9.349 C 251.440 8.806,251.120 8.701,249.756 8.800 C 248.375 8.899,248.046 8.788,247.929 8.184 C 247.804 7.535,247.529 7.477,245.631 7.700 C 243.875 7.907,243.430 7.837,243.234 7.327 C 243.057 6.867,242.504 6.716,241.159 6.761 C 238.258 6.859,237.934 6.793,237.934 6.100 C 237.934 5.540,237.597 5.483,235.537 5.698 C 233.567 5.904,233.097 5.838,232.900 5.324 C 232.714 4.840,232.159 4.723,230.431 4.806 C 226.451 4.995,225.223 4.831,225.223 4.110 C 225.223 3.524,224.724 3.478,220.556 3.683 C 215.380 3.937,213.704 3.753,213.704 2.933 C 213.704 2.476,211.551 2.383,200.993 2.383 C 190.435 2.383,188.282 2.476,188.282 2.933 M163.139 118.045 C 163.750 118.303,166.306 119.835,168.818 121.450 C 171.331 123.065,175.657 125.848,178.433 127.635 C 181.208 129.422,186.264 132.671,189.668 134.856 C 193.072 137.041,198.351 140.437,201.400 142.403 C 204.448 144.369,209.455 147.587,212.527 149.553 C 215.598 151.519,219.577 154.078,221.369 155.239 C 225.484 157.904,242.196 168.687,244.262 170.010 C 245.115 170.556,246.945 171.709,248.328 172.572 C 250.600 173.988,256.111 177.544,265.814 183.854 C 267.711 185.088,271.365 187.438,273.933 189.076 C 281.456 193.876,282.423 195.042,282.423 199.320 C 282.423 202.210,281.028 204.538,278.171 206.417 C 277.123 207.106,274.479 208.821,272.294 210.228 C 270.109 211.636,266.544 213.932,264.372 215.331 C 262.200 216.730,258.763 218.947,256.736 220.258 C 254.709 221.569,250.536 224.250,247.464 226.216 C 244.391 228.183,239.387 231.400,236.342 233.366 C 233.298 235.333,228.299 238.550,225.234 240.516 C 222.169 242.483,216.894 245.879,213.512 248.064 C 210.130 250.248,205.974 252.913,204.277 253.985 C 202.580 255.057,199.315 257.158,197.021 258.654 C 194.727 260.149,190.131 263.115,186.807 265.245 C 183.483 267.374,177.048 271.513,172.507 274.442 C 160.316 282.306,156.181 282.679,153.110 276.191 L 152.135 274.131 152.135 199.018 L 152.135 123.906 153.117 121.968 C 154.987 118.279,159.500 116.512,163.139 118.045 " stroke="none" fill="#040404" fill-rule="evenodd" />
    </g>
</svg>