<svg xmlns="http://www.w3.org/2000/svg" xmlns:xlink="http://www.w3.org/1999/xlink" id="svg" width="400" height="388.6792452830189" viewBox="0, 0, 400,388.6792452830189">
   <g id="svgg">
      <path id="path0" d="M60.849 6.596 C 41.031 10.725,24.529 25.485,17.726 45.165 C 15.608 51.293,15.566 52.191,15.566 91.038 L 15.566 130.660 18.040 137.020 C 25.571 156.377,41.087 170.101,59.906 174.052 C 69.406 176.047,130.594 176.047,140.094 174.052 C 161.328 169.594,179.028 151.894,183.486 130.660 C 185.481 121.160,185.481 59.972,183.486 50.472 C 179.534 31.645,165.760 16.081,146.454 8.624 L 140.094 6.168 102.358 5.989 C 81.604 5.890,62.925 6.163,60.849 6.596 M293.551 6.654 C 225.858 18.764,199.245 102.110,247.624 150.489 C 289.232 192.097,359.802 179.452,384.517 125.959 C 412.701 64.958,359.281 -5.104,293.551 6.654 M134.302 44.553 C 145.900 48.028,147.170 52.567,147.170 90.566 C 147.170 139.168,148.601 137.736,100.000 137.736 C 51.399 137.736,52.830 139.168,52.830 90.566 C 52.830 42.020,51.225 43.642,99.419 43.493 C 121.438 43.424,131.562 43.732,134.302 44.553 M323.037 46.183 C 361.660 59.589,365.478 114.486,329.026 132.304 C 287.687 152.511,245.602 110.427,265.809 69.087 C 275.789 48.671,301.062 38.556,323.037 46.183 M59.434 214.679 C 40.928 218.668,25.520 232.434,18.040 251.659 L 15.566 258.019 15.566 298.113 L 15.566 338.208 18.040 344.568 C 24.894 362.183,37.409 374.445,54.599 380.387 C 60.727 382.505,61.625 382.547,100.472 382.547 L 140.094 382.547 146.454 380.073 C 165.810 372.542,179.535 357.026,183.486 338.208 C 184.556 333.113,184.873 323.951,184.873 298.113 C 184.873 260.340,184.377 256.066,178.636 244.340 C 171.560 229.888,156.131 217.994,140.094 214.627 C 130.868 212.690,68.476 212.730,59.434 214.679 M266.981 214.679 C 246.142 219.171,228.470 237.016,224.061 258.019 C 222.991 263.114,222.674 272.276,222.674 298.113 C 222.674 335.826,223.178 340.201,228.851 351.729 C 235.052 364.330,246.504 374.397,261.093 380.073 L 267.453 382.547 307.075 382.547 C 345.922 382.547,346.820 382.505,352.948 380.387 C 370.138 374.445,382.653 362.183,389.507 344.568 L 391.981 338.208 391.981 298.113 L 391.981 258.019 389.507 251.659 C 381.940 232.210,366.550 218.597,347.642 214.627 C 338.415 212.690,276.023 212.730,266.981 214.679 M134.302 252.100 C 145.900 255.575,147.170 260.114,147.170 298.113 C 147.170 346.715,148.601 345.283,100.000 345.283 C 51.399 345.283,52.830 346.715,52.830 298.113 C 52.830 249.567,51.225 251.189,99.419 251.040 C 121.438 250.971,131.562 251.279,134.302 252.100 M341.849 252.100 C 353.448 255.575,354.717 260.114,354.717 298.113 C 354.717 346.715,356.149 345.283,307.547 345.283 C 258.946 345.283,260.377 346.715,260.377 298.113 C 260.377 249.567,258.772 251.189,306.966 251.040 C 328.985 250.971,339.109 251.279,341.849 252.100 " stroke="none"  />
   </g>
</svg>