<svg id="svg" xmlns="http://www.w3.org/2000/svg" xmlns:xlink="http://www.w3.org/1999/xlink" width="400" height="429.93197278911566" viewBox="0, 0, 400,429.93197278911566"><g id="svgg"><path id="path0" d="M190.930 24.871 C 164.222 31.066,142.626 51.567,138.254 74.876 L 137.667 78.005 87.845 78.005 C 39.702 78.005,37.902 78.066,34.443 79.831 C 25.104 84.595,25.120 98.039,34.471 103.294 C 37.570 105.037,39.290 105.215,52.939 105.215 L 67.989 105.215 68.235 226.984 L 68.481 348.753 71.481 357.351 C 79.234 379.570,92.993 393.328,115.212 401.081 L 123.810 404.082 204.082 404.082 L 284.354 404.082 292.971 401.081 C 315.142 393.359,328.960 379.541,336.681 357.370 L 339.683 348.753 339.928 226.984 L 340.174 105.215 355.224 105.215 C 369.136 105.215,370.548 105.062,373.893 103.182 C 383.074 98.022,383.074 85.198,373.893 80.038 L 370.275 78.005 320.500 78.005 L 270.726 78.005 268.984 71.882 C 259.742 39.401,223.192 17.387,190.930 24.871 M213.568 52.182 C 226.320 55.504,242.177 69.548,242.177 77.521 C 242.177 77.787,225.034 78.005,204.082 78.005 C 183.129 78.005,165.986 77.787,165.986 77.521 C 165.986 77.255,167.041 74.956,168.330 72.412 C 176.401 56.485,196.161 47.649,213.568 52.182 M312.925 222.939 C 312.925 352.487,313.214 345.572,307.335 356.604 C 302.334 365.986,293.014 372.961,281.457 375.971 C 273.590 378.021,134.450 377.988,126.568 375.935 C 114.909 372.899,105.240 365.448,100.296 355.691 C 95.019 345.278,95.238 351.032,95.238 222.939 L 95.238 105.215 204.082 105.215 L 312.925 105.215 312.925 222.939 M156.699 175.113 C 149.408 178.963,149.660 176.596,149.660 241.337 C 149.660 298.001,149.681 298.656,151.581 302.037 C 156.849 311.410,170.330 311.307,175.150 301.857 C 177.819 296.626,177.819 185.913,175.150 180.682 C 171.775 174.066,163.445 171.552,156.699 175.113 M238.332 175.113 C 231.041 178.963,231.293 176.596,231.293 241.337 C 231.293 298.001,231.313 298.656,233.214 302.037 C 238.481 311.410,251.962 311.307,256.783 301.857 C 259.452 296.626,259.452 185.913,256.783 180.682 C 253.407 174.066,245.078 171.552,238.332 175.113 " fill-rule="evenodd"></path></g></svg>