<svg id="svg" xmlns="http://www.w3.org/2000/svg" xmlns:xlink="http://www.w3.org/1999/xlink" width="400" height="389.07103825136613" viewBox="0, 0, 400,389.07103825136613"><g id="svgg"><path id="path0" d="M31.381 19.491 C 25.676 22.400,25.889 21.015,25.673 56.701 C 25.488 87.450,25.531 88.605,26.942 90.899 C 31.384 98.123,40.950 97.750,44.878 90.200 C 45.699 88.623,45.902 83.311,45.902 63.424 L 45.902 38.616 70.856 38.613 C 94.472 38.610,95.938 38.533,98.185 37.162 C 105.059 32.971,105.059 23.859,98.185 19.668 C 94.733 17.564,35.470 17.407,31.381 19.491 M302.543 19.656 C 295.669 23.883,295.669 32.971,302.543 37.162 C 304.791 38.533,306.257 38.610,329.872 38.613 L 354.827 38.616 354.830 63.570 C 354.832 87.186,354.910 88.652,356.280 90.899 C 360.471 97.773,369.583 97.773,373.774 90.899 C 375.879 87.447,376.036 28.184,373.952 24.096 C 371.042 18.390,372.427 18.603,336.742 18.387 C 305.992 18.202,304.838 18.245,302.543 19.656 M90.882 79.599 C 88.363 81.512,88.160 84.262,88.160 116.514 C 88.160 149.392,88.390 152.297,91.103 153.749 C 91.869 154.159,100.035 154.463,110.282 154.463 L 128.127 154.463 129.637 152.543 C 131.038 150.763,131.148 149.672,131.148 137.574 C 131.148 124.690,131.170 124.501,132.936 122.736 L 134.724 120.947 154.395 120.947 C 175.238 120.947,176.993 121.195,178.426 124.340 C 179.003 125.608,179.235 149.348,179.235 207.280 L 179.235 288.443 177.477 290.488 C 175.723 292.529,175.703 292.532,165.090 292.782 C 150.572 293.124,151.548 291.616,151.548 313.700 C 151.548 332.407,151.572 332.567,154.515 334.089 C 157.597 335.683,243.132 335.683,246.214 334.089 C 249.157 332.567,249.180 332.407,249.180 313.700 C 249.180 291.616,250.157 293.124,235.638 292.782 C 225.026 292.532,225.006 292.529,223.251 290.488 L 221.494 288.443 221.494 207.280 C 221.494 149.348,221.725 125.608,222.303 124.340 C 223.736 121.195,225.490 120.947,246.333 120.947 L 266.004 120.947 267.793 122.736 C 269.558 124.501,269.581 124.690,269.581 137.574 C 269.581 149.672,269.691 150.763,271.091 152.543 L 272.601 154.463 290.447 154.463 C 300.694 154.463,308.860 154.159,309.625 153.749 C 312.338 152.298,312.568 149.390,312.568 116.576 C 312.568 83.761,312.338 80.854,309.625 79.402 C 307.469 78.248,92.407 78.442,90.882 79.599 M30.777 291.392 C 25.397 294.770,25.507 293.999,25.505 328.597 C 25.503 362.712,25.500 362.687,30.107 366.068 C 33.291 368.405,94.457 368.793,98.185 366.501 C 105.059 362.273,105.059 353.186,98.185 348.994 C 95.938 347.624,94.472 347.546,70.856 347.544 L 45.902 347.541 45.902 322.732 C 45.902 296.035,45.882 295.883,41.987 292.245 C 39.354 289.785,33.986 289.377,30.777 291.392 M360.103 291.435 C 354.848 294.639,354.833 294.727,354.830 322.587 L 354.827 347.541 330.018 347.541 C 310.131 347.541,304.820 347.744,303.243 348.565 C 295.692 352.493,295.319 362.058,302.543 366.501 C 304.838 367.912,305.992 367.955,336.742 367.769 C 372.427 367.554,371.042 367.767,373.952 362.061 C 376.036 357.973,375.879 298.709,373.774 295.257 C 371.904 292.189,368.249 289.987,365.027 289.987 C 363.625 289.987,361.409 290.639,360.103 291.435 " fill-rule="evenodd"></path></g></svg>