<svg id="svg" xmlns="http://www.w3.org/2000/svg" xmlns:xlink="http://www.w3.org/1999/xlink" width="400" height="391.1764705882353" viewBox="0, 0, 400,391.1764705882353"><g id="svgg"><path id="path0" d="M325.521 8.821 C 321.494 9.912,315.834 12.234,312.944 13.981 C 307.410 17.325,117.794 206.238,116.523 209.673 C 114.887 214.096,107.529 280.575,108.404 283.031 C 110.479 288.855,113.302 289.682,126.685 288.388 C 177.871 283.437,187.289 282.116,190.518 279.433 C 202.008 269.887,381.276 88.157,383.647 83.651 C 404.897 43.270,368.992 -2.954,325.521 8.821 M351.883 28.520 C 368.353 35.777,375.917 55.567,368.417 71.780 C 365.995 77.018,341.464 103.922,339.111 103.922 C 338.152 103.922,293.565 58.935,293.775 58.180 C 294.163 56.786,319.221 32.146,321.993 30.433 C 330.183 25.371,342.891 24.558,351.883 28.520 M68.115 45.546 C 47.290 49.330,29.177 63.261,20.185 82.412 C 13.441 96.774,13.627 92.737,13.937 217.647 L 14.216 329.902 16.901 337.822 C 23.537 357.392,39.630 373.520,59.103 380.115 L 67.157 382.843 179.412 383.122 C 305.021 383.433,300.384 383.658,315.196 376.543 C 334.426 367.305,347.736 349.691,351.553 328.431 C 352.579 322.718,352.880 304.961,352.907 248.775 L 352.941 176.471 343.137 176.471 L 333.333 176.471 333.313 251.225 L 333.292 325.980 331.021 332.353 C 325.262 348.518,312.577 359.825,296.343 363.265 C 287.865 365.062,80.712 365.412,71.013 363.647 C 52.606 360.295,36.780 344.468,33.415 326.045 C 31.646 316.360,31.994 109.208,33.793 100.716 C 37.326 84.047,50.257 70.082,66.600 65.288 C 71.265 63.919,81.127 63.725,146.256 63.725 L 220.588 63.725 220.588 53.922 L 220.588 44.118 147.794 44.206 C 93.346 44.272,73.265 44.610,68.115 45.546 M302.701 95.348 L 325.485 118.147 252.693 190.910 L 179.902 263.672 154.412 266.426 C 129.005 269.170,128.921 269.173,128.666 267.188 C 128.525 266.092,129.697 254.429,131.271 241.269 L 134.133 217.343 206.525 144.946 C 246.340 105.128,279.142 72.549,279.417 72.549 C 279.692 72.549,290.170 82.809,302.701 95.348 " fill-rule="evenodd"></path></g></svg>