<svg id="svg" xmlns="http://www.w3.org/2000/svg" xmlns:xlink="http://www.w3.org/1999/xlink" width="400" height="391.70124481327804" viewBox="0, 0, 400,391.70124481327804"><g id="svgg"><path id="path0" d="M93.361 27.492 C 61.060 31.530,36.353 56.697,32.383 89.605 C 31.230 99.166,31.230 295.854,32.383 305.416 C 36.424 338.914,61.086 363.576,94.584 367.617 C 104.146 368.770,300.834 368.770,310.395 367.617 C 343.893 363.576,368.555 338.914,372.596 305.416 C 373.749 295.854,373.749 99.166,372.596 89.605 C 368.555 56.107,343.893 31.445,310.395 27.404 C 301.691 26.354,101.814 26.435,93.361 27.492 M317.825 57.947 C 330.667 63.398,340.075 74.233,343.528 87.552 C 344.721 92.152,344.721 302.869,343.528 307.469 C 340.010 321.039,329.985 332.375,317.248 337.190 L 312.448 339.004 204.979 339.260 C 124.628 339.451,96.359 339.268,92.946 338.535 C 79.850 335.722,68.946 326.374,63.003 312.863 L 60.996 308.299 60.996 197.510 L 60.996 86.722 62.926 82.175 C 68.257 69.615,79.923 59.365,92.238 56.422 C 93.768 56.056,144.129 55.815,204.149 55.887 L 313.278 56.017 317.825 57.947 M161.850 113.347 C 154.193 116.669,150.903 124.368,153.979 131.769 C 154.845 133.854,165.407 145.018,186.537 166.183 L 217.813 197.510 186.537 228.838 C 165.407 250.003,154.845 261.167,153.979 263.251 C 149.411 274.245,160.306 286.012,171.200 281.852 C 176.834 279.700,251.121 204.928,251.902 200.622 C 253.290 192.973,254.493 194.454,213.428 153.232 C 170.409 110.047,170.067 109.783,161.850 113.347 " fill-rule="evenodd"></path></g></svg>