<svg id="svg" xmlns="http://www.w3.org/2000/svg" xmlns:xlink="http://www.w3.org/1999/xlink" width="400" height="401.51228733459357" viewBox="0, 0, 400,401.51228733459357"><g id="svgg"><path id="path0" d="M183.365 16.705 C 45.798 30.925,-26.832 184.832,50.128 299.040 C 131.380 419.616,315.567 399.080,369.252 263.460 C 418.607 138.779,316.295 2.965,183.365 16.705 M217.853 47.239 C 342.858 61.862,396.029 214.975,307.014 303.990 C 216.982 394.022,62.780 338.740,49.941 211.829 C 41.903 132.369,101.198 57.306,179.584 47.710 C 183.327 47.252,187.240 46.754,188.280 46.604 C 193.207 45.892,209.291 46.238,217.853 47.239 M149.456 146.562 C 147.316 148.927,147.565 246.620,149.716 248.771 C 151.198 250.253,152.237 250.284,200.378 250.284 C 248.519 250.284,249.558 250.253,251.040 248.771 C 253.126 246.685,253.445 149.815,251.375 146.860 L 250.198 145.180 200.452 145.180 C 153.220 145.180,150.644 145.249,149.456 146.562 " fill-rule="evenodd"></path></g></svg>